<?xml version="1.0" standalone="no"?>
<!DOCTYPE svg PUBLIC "-//W3C//DTD SVG 1.1//EN" "http://www.w3.org/Graphics/SVG/1.1/DTD/svg11.dtd" >
<svg>
<metadata>
Created by FontForge 20120731 at Tue Jun  7 22:19:38 2022
 By fw_worker
Copyright 2016 Dalton Maag Ltd. Modification of this file requires prior written permission from Dalton Maag Ltd.
</metadata>
<defs>
<font id="KingsCaslonDisplayTrial-Italic" horiz-adv-x="500" >
  <font-face 
    font-family="Kings Caslon Display Trial"
    font-weight="400"
    font-style="italic"
    font-stretch="normal"
    units-per-em="1000"
    panose-1="2 5 5 3 5 5 10 9 4 3"
    ascent="711"
    descent="-289"
    x-height="437"
    cap-height="698"
    bbox="-257 -263 1202 915"
    underline-thickness="32"
    underline-position="-142"
    slope="-18"
    unicode-range="U+0008-FB06"
  />
<missing-glyph 
d="M50 0v750h400v-750h-400zM400 50v650h-300v-650h300z" />
    <glyph glyph-name="f_f" unicode="ff" horiz-adv-x="524" 
d="M188 426h173l22 67q10 31 23.5 62t31.5 59q-15 0 -28.5 10t-26 22t-25.5 21.5t-28 9.5q-20 0 -35.5 -11t-28 -28t-21.5 -37.5t-15 -40.5zM26 386l13 40h77l22 67q12 38 31 76t46.5 68t64 49t84.5 19q13 0 30 -4t33 -10.5t29 -15.5t18 -19q23 23 52.5 36t66.5 13
q14 0 30.5 -4.5t31 -13t24.5 -20.5t10 -27q0 -14 -9 -23t-24 -9q-17 0 -25.5 8.5t-18.5 23.5q-12 20 -22 28.5t-25 8.5q-20 0 -34 -11t-24.5 -28t-18 -37.5t-13.5 -40.5l-42 -135h101l-11 -39h-102q-21 -60 -41.5 -120t-39 -114t-34.5 -98.5t-28 -72.5q-14 -35 -31 -65.5
t-38.5 -53t-50 -35t-66.5 -12.5q-15 0 -30.5 4t-28.5 11.5t-21 18.5t-8 25t9.5 24t26.5 10q16 0 24 -9t15 -25q8 -19 16 -25t23 -6q18 0 31 10.5t23.5 27t18.5 37t14 39.5l144 429h-173q-21 -62 -42 -123t-40 -115.5t-35 -98t-27 -70.5q-15 -35 -31.5 -65t-38 -52
t-49.5 -34.5t-66 -12.5q-20 0 -39 4.5t-33.5 13t-23 20.5t-8.5 27q0 14 9.5 24t26.5 10q16 0 24 -8.5t18 -25.5q12 -20 22 -28.5t26 -8.5q19 0 34.5 12.5t28 31t22 40.5t15.5 41l135 418h-78z" />
    <glyph glyph-name="f_f_i" unicode="ffi" horiz-adv-x="721" 
d="M188 426h171l24 74q10 30 23 59t30 55q-14 1 -27 11t-25.5 21.5t-25.5 21t-28 9.5q-20 0 -35.5 -11t-28 -28t-21.5 -37.5t-15 -40.5zM26 386l13 40h77l22 67q12 38 31 76t46.5 68t64 49t84.5 19q13 0 30 -4t33 -10.5t28.5 -15.5t17.5 -19q25 23 56.5 36t73.5 13
q24 0 44.5 -7t35.5 -17.5t23.5 -23t8.5 -24.5q0 -14 -8 -23.5t-27 -9.5q-17 0 -27 12t-19.5 26.5t-21.5 26.5t-34 12q-20 0 -36.5 -11t-29.5 -28t-23 -37.5t-16 -40.5l-42 -135h221q11 0 17 -3t6 -13t-3.5 -21.5t-8.5 -24.5q-31 -75 -64 -145.5t-65 -145.5q-5 -10 -6 -18.5
t8 -8.5q6 0 18 10t25.5 23.5t25.5 27.5t18 22q7 12 13 12t9.5 -5t-0.5 -10q-29 -42 -57 -67.5t-60 -45.5q-10 -6 -23.5 -10t-27.5 -4q-12 0 -20.5 8t-8.5 22q0 11 6 28q27 64 64 145t76 170q3 7 0.5 11t-7.5 4h-168l-42 -124t-40 -117.5t-35.5 -100.5t-28.5 -71
q-12 -27 -28.5 -55t-38 -51t-48 -37.5t-58.5 -14.5q-48 0 -73.5 11.5t-25.5 34.5q0 17 10.5 26t24.5 9q17 0 25.5 -9t15 -19.5t14 -19t24.5 -8.5q28 0 51 29t46 99l135 418h-171q-21 -62 -42 -122.5t-39.5 -114.5t-34 -97.5t-26.5 -70.5q-15 -35 -31.5 -65t-38.5 -52.5
t-50 -35.5t-66 -13q-20 0 -39 4.5t-33.5 13t-23.5 20.5t-9 27q0 14 10 24t27 10q16 0 24 -8.5t18 -25.5q12 -20 22 -28.5t26 -8.5q19 0 33.5 11t25 27.5t18.5 37t14 39.5l143 428h-78z" />
    <glyph glyph-name="f_f_l" unicode="ffl" horiz-adv-x="737" 
d="M431 425h191l78 186q-29 26 -60 46t-67 20q-22 0 -38 -11t-28 -28t-20 -37.5t-14 -40.5zM188 426h171l22 67q10 31 23 62t31 59q-14 1 -27 11.5t-25.5 21.5t-25.5 20.5t-27 9.5q-20 0 -35.5 -11t-28 -28t-21.5 -37.5t-15 -40.5zM26 386l13 40h77l22 67q12 38 31 76
t46.5 68t64 49t84.5 19q13 0 29.5 -3.5t32 -10t28 -15t18.5 -18.5q23 22 52 34.5t67 12.5q9 0 23 -1.5t30 -4.5t31 -7t26 -9q10 1 22.5 3l25 4t22.5 3.5t16 1.5q7 0 11 -5t1 -14q-15 -36 -35 -83.5t-42.5 -100.5t-46.5 -109t-47.5 -110.5t-45 -104.5t-39.5 -91
q-4 -10 -6 -18.5t6 -8.5q6 0 21.5 15t32.5 34t31.5 36.5t18.5 22.5q9 12 14 12q8 0 10.5 -5.5t-0.5 -9.5q-10 -14 -25.5 -34t-34.5 -40.5t-38.5 -39t-36.5 -29.5q-10 -6 -22.5 -10t-25.5 -4q-33 0 -33 30q0 13 7 28q10 25 22.5 54t29.5 67.5t39 89t51 119.5h-185
q-21 -62 -41.5 -122.5t-38.5 -114.5t-33.5 -97.5t-26.5 -70.5q-15 -35 -32 -65t-38.5 -52.5t-50 -35.5t-66.5 -13q-15 0 -30.5 4t-28.5 11.5t-21 18.5t-8 25t9.5 24t26.5 10q16 0 24 -9t15 -25q8 -19 16 -25t23 -6q18 0 31.5 10.5t24 27t18.5 36.5t14 39l141 430h-171
q-21 -62 -42 -122.5t-39.5 -114.5t-34.5 -97.5t-27 -70.5q-15 -35 -31.5 -65t-38.5 -52.5t-50 -35.5t-66 -13q-20 0 -39 4.5t-33.5 13t-23 20.5t-8.5 27q0 14 9.5 24.5t26.5 10.5q16 0 24 -9t18 -26q12 -20 22 -28.5t26 -8.5q19 0 33.5 10.5t25 27t18.5 37t14 39.5l144 429
h-78z" />
    <glyph glyph-name="f_b" unicode="fb" horiz-adv-x="670" 
d="M308 27q7 -10 24 -10q20 0 44.5 20t50 52t50 72.5t43 81t30 77.5t11.5 63q0 31 -28 31q-16 0 -40 -18.5t-49.5 -48.5t-50 -67.5t-42.5 -74.5q-8 -15 -16.5 -34.5t-15.5 -40t-12 -41.5t-5 -39q0 -13 6 -23zM188 425h191l78 186q-29 26 -60 46t-67 20q-22 0 -38 -11
t-28 -28t-20 -37.5t-14 -40.5zM26 386l13 40h77l22 67q12 38 29.5 76t42 68t58.5 49t80 19q9 0 23 -1.5t30 -4.5t31 -7t26 -9q10 1 22.5 3l25 4t22.5 3.5t16 1.5q7 0 11 -5t1 -14l-124 -293l6 -4q30 30 59 46t61 16q13 0 26 -4t23.5 -12.5t17.5 -22.5t7 -34q0 -31 -13 -71.5
t-36 -82.5t-53.5 -82t-65 -71.5t-72 -50.5t-73.5 -19q-44 0 -63.5 18.5t-19.5 49.5q0 22 7.5 50t20.5 58l96 219h-184q-21 -62 -42 -122.5t-39 -114.5t-33.5 -97.5t-26.5 -70.5q-14 -35 -31 -65.5t-39 -53t-50.5 -35t-66.5 -12.5q-15 0 -30.5 4t-28.5 11.5t-21 18.5t-8 25
t9.5 24t26.5 10q16 0 24 -9t15 -25q8 -19 16 -25t23 -6q18 0 31.5 11t24.5 28.5t19.5 38t14.5 39.5l140 426h-78z" />
    <glyph glyph-name="f_j" unicode="fj" horiz-adv-x="479" 
d="M27 386l13 40h77l24 74q12 38 30 75t44.5 66t62 46.5t83.5 17.5q24 0 44.5 -6.5t35.5 -17t23.5 -23.5t8.5 -26q0 -14 -8.5 -23t-24.5 -9q-17 0 -27 10.5t-21 27.5q-12 19 -23.5 29t-32.5 10q-20 0 -36.5 -11t-29.5 -28t-23 -37.5t-16 -40.5l-42 -135h227q16 0 21 -5.5
t5 -18.5q0 -8 -4.5 -23t-11.5 -33.5t-15 -38t-15 -36.5q-16 -40 -36 -88.5t-39.5 -95t-36 -84t-25.5 -54.5q-32 -62 -75 -97.5t-88 -35.5q-35 0 -56 13t-21 38q0 23 13.5 34t27.5 11q16 0 26.5 -8t10.5 -26q0 -4 -1 -10.5t-1 -13t2.5 -11t9.5 -4.5q12 0 24.5 10.5t23.5 27
t20.5 35t17.5 35.5q7 16 23.5 55t39 94t50 123t57.5 142q2 6 1 16t-14 10h-173q-19 -54 -38.5 -112t-38 -112.5t-35 -102t-28.5 -78.5q-14 -35 -31 -65.5t-38.5 -53t-50 -35t-66.5 -12.5q-20 0 -39 4.5t-33.5 13t-23 20.5t-8.5 27q0 14 9.5 24t26.5 10q16 0 24 -8.5
t18 -25.5q12 -20 22 -28.5t26 -8.5q19 0 33.5 10.5t25 27t18.5 37t14 39.5l141 429h-78z" />
    <glyph glyph-name="f_k" unicode="fk" horiz-adv-x="677" 
d="M26 386l13 40h77l22 67q12 38 29.5 76t42 68t58.5 49t80 19q15 0 43.5 -4t51.5 -12q23 -1 50 -1t52 2q8 1 11 -1.5t-1 -12.5q-34 -86 -67 -167t-67 -161l6 -4q11 12 27.5 29t38 32t47 25.5t54.5 10.5q25 0 42.5 -13.5t17.5 -42.5q0 -36 -23.5 -66t-63.5 -55
q-29 -17 -64 -29t-67 -18q4 -21 14.5 -54.5t22.5 -65.5q10 -26 16 -34t14 -8q6 0 15.5 6t19 15t17.5 18.5t13 15.5t7.5 8t5.5 2q5 0 8.5 -4.5t-0.5 -10.5q-8 -13 -22.5 -31t-32.5 -35t-37 -29t-36 -12q-18 0 -26 8t-13 22q-16 42 -31 86t-29 87q-21 -48 -42 -95.5t-41 -95.5
q-2 -4 -4.5 -6.5t-8.5 -3.5q-11 -1 -24.5 -1h-17.5q-8 0 -12 0.5t-4 5.5q0 3 3 9l152 372h-187q-20 -58 -40.5 -118t-39 -114t-34.5 -99t-28 -74q-15 -35 -31.5 -65.5t-38.5 -53t-50.5 -35t-66.5 -12.5q-15 0 -30.5 4t-28.5 11.5t-21 18.5t-8 25t9.5 24t26.5 10q16 0 24 -9
t15 -25q8 -19 16 -25t23 -6q18 0 31.5 11t24.5 28.5t19.5 38t15.5 39.5l140 426h-78zM188 425h191l77 187q-29 25 -60 45t-66 20q-22 0 -38 -11t-28 -28t-20 -37.5t-14 -40.5zM415 290q-22 -28 -40 -58q34 3 71.5 13t69 26t52 37.5t20.5 47.5q0 14 -6.5 24t-26.5 10
q-26 0 -50 -16t-44 -35q-23 -21 -46 -49z" />
    <glyph glyph-name="f_t" unicode="ft" horiz-adv-x="520" 
d="M289 79q-5 -10 -6 -19.5t8 -9.5q6 0 21 11.5t31 26.5t30 29t18 20l7.5 7.5t7.5 2.5q7 0 9.5 -5t-0.5 -10q-26 -33 -59.5 -64.5t-68.5 -53.5q-10 -6 -23.5 -11t-30.5 -5q-12 0 -20.5 8t-8.5 22q0 11 6 28l144 330h-178q-21 -62 -41.5 -122.5t-39 -114.5t-34 -97.5
t-26.5 -70.5q-15 -35 -31.5 -65t-38.5 -52.5t-50.5 -35.5t-66.5 -13q-15 0 -30.5 4t-28.5 11.5t-21 18.5t-8 25t9.5 24t26.5 10q16 0 24 -9t15 -25q8 -19 16 -25t23 -6q18 0 31.5 11t24.5 28.5t19.5 38t14.5 39.5l140 426h-78l13 40h77l22 67q12 38 29.5 76t43 68t60.5 49
t83 19q15 0 32 -3t31.5 -9.5t23.5 -15.5t9 -21q0 -14 -8.5 -23t-27.5 -9q-15 0 -26 8.5t-21 18t-21 18t-26 8.5q-20 0 -34 -11t-24.5 -28t-18 -37.5t-13.5 -40.5l-42 -135h183q6 14 11.5 28.5t11.5 28.5q5 10 8.5 14t11.5 8q6 3 14.5 6.5t17.5 7t16.5 6t10.5 2.5q7 0 7 -5
q0 -4 -4 -13l-37 -83h93l-11 -39h-98z" />
    <glyph glyph-name="f_h" unicode="fh" horiz-adv-x="693" 
d="M188 425h191l78 186q-29 26 -60 46t-67 20q-22 0 -38 -11t-28 -28t-20 -37.5t-14 -40.5zM26 386l13 40h77l22 67q12 38 29.5 76t42 68t58.5 49t80 19q9 0 23 -1.5t30 -4.5t31 -7t26 -9q10 1 22.5 3l25 4t22.5 3.5t16 1.5q7 0 11 -5t1 -14l-173 -404l5 -3q32 43 60 77.5
t61 64.5q22 20 41 25t38 5q20 0 34 -10.5t14 -30.5t-6 -35q-15 -42 -30 -79t-30 -72.5t-30.5 -70.5t-32.5 -73q-5 -10 -6 -16.5t8 -6.5q6 0 19.5 12t27.5 27.5t26 30t16 19.5l7.5 9t7.5 3q8 0 8.5 -6t-2.5 -11q-26 -34 -55 -66.5t-64 -54.5q-20 -12 -45 -12q-32 0 -32 30
q0 13 7 28q28 69 60.5 141t63.5 147q4 10 6.5 20.5t2.5 19.5q0 8 -2.5 14t-10.5 6q-18 0 -35 -16q-11 -10 -32 -33t-44 -51t-44 -56.5t-33 -50.5q-26 -48 -48.5 -93.5t-43.5 -93.5q-2 -4 -4 -6.5t-9 -3.5q-10 -1 -22 -1.5t-16 -0.5q-16 0 -16 7q0 3 3 9l156 372h-186
q-21 -62 -42 -123t-39 -115t-33.5 -97.5t-26.5 -69.5q-15 -35 -31.5 -65.5t-38.5 -53t-50.5 -35t-66.5 -12.5q-15 0 -30.5 4t-28.5 11.5t-21 18.5t-8 25t9.5 24t26.5 10q16 0 24 -9t15 -25q8 -19 16 -25t23 -6q18 0 31.5 11t24.5 28.5t19.5 38t14.5 39.5l140 426h-78z" />
    <glyph glyph-name="f_i" unicode="fi" horiz-adv-x="478" 
d="M26 386l13 40h77l24 74q12 38 30 75t44.5 66t62 46.5t83.5 17.5q24 0 44.5 -6.5t35.5 -17t23.5 -23.5t8.5 -26q0 -14 -8.5 -23t-24.5 -9q-17 0 -27 10.5t-21 27.5q-12 19 -23.5 29t-32.5 10q-20 0 -36.5 -11t-29.5 -28t-23 -37.5t-16 -40.5l-42 -135h221q11 0 17 -3
t6 -13t-3.5 -21.5t-8.5 -24.5q-31 -75 -64 -145.5t-65 -145.5q-5 -10 -6 -18.5t8 -8.5q6 0 18 10t25.5 23.5t25.5 27.5t18 22q7 12 13 12t9.5 -5t-0.5 -10q-29 -42 -57 -67.5t-60 -45.5q-10 -6 -23.5 -10t-27.5 -4q-12 0 -20.5 8t-8.5 22q0 11 6 28q27 64 64 145t76 170
q3 7 0.5 11t-7.5 4h-168q-19 -54 -38.5 -112t-38 -112.5t-35 -102t-28.5 -78.5q-14 -35 -31 -65.5t-38.5 -53t-50 -35t-66.5 -12.5q-20 0 -39 4.5t-33.5 13t-23 20.5t-8.5 27q0 14 9.5 24t26.5 10q16 0 24 -8.5t18 -25.5q12 -20 22 -28.5t26 -8.5q19 0 33.5 10.5t25 27
t18.5 37t14 39.5l141 429h-78z" />
    <glyph glyph-name="f_l" unicode="fl" horiz-adv-x="493" 
d="M188 425h191l78 186q-29 26 -60 46t-67 20q-22 0 -38 -11t-28 -28t-20 -37.5t-14 -40.5zM26 386l13 40h77l22 67q12 38 29.5 76t42 68t58.5 49t80 19q9 0 23 -1.5t30 -4.5t31 -7t26 -9q10 1 22.5 3l25 4t22.5 3.5t16 1.5q7 0 11 -5t1 -14q-15 -36 -35 -83.5t-42.5 -100.5
t-46.5 -109t-47.5 -110.5t-45 -104.5t-39.5 -91q-4 -10 -6 -18.5t6 -8.5q6 0 21.5 15t32.5 34t31.5 36.5t18.5 22.5q9 12 14 12q8 0 10.5 -5.5t-0.5 -9.5q-10 -14 -25.5 -34t-34.5 -40.5t-38.5 -39t-36.5 -29.5q-10 -6 -22.5 -10t-25.5 -4q-33 0 -33 30q0 13 7 28
q10 25 22.5 54t29.5 67.5t39 89t51 119.5h-185q-21 -62 -42 -122.5t-40 -114.5t-34.5 -97.5t-26.5 -70.5q-14 -35 -31 -65t-38.5 -52.5t-50 -35.5t-66.5 -13q-20 0 -39 4.5t-33.5 13t-23 20.5t-8.5 27q0 14 9.5 24t26.5 10q16 0 24 -8.5t18 -25.5q12 -20 22 -28.5t26 -8.5
q19 0 33.5 10.5t25.5 27t19.5 37t14.5 39.5l142 429h-78z" />
    <glyph glyph-name=".notdef" 
d="M50 0v750h400v-750h-400zM400 50v650h-300v-650h300z" />
    <glyph glyph-name=".null" horiz-adv-x="0" 
 />
    <glyph glyph-name=".null" horiz-adv-x="0" 
 />
    <glyph glyph-name=".null" horiz-adv-x="0" 
 />
    <glyph glyph-name="nonmarkingreturn" unicode="&#x9;" horiz-adv-x="184" 
 />
    <glyph glyph-name="nonmarkingreturn" unicode="&#xd;" horiz-adv-x="184" 
 />
    <glyph glyph-name="space" unicode=" " horiz-adv-x="184" 
 />
    <glyph glyph-name="exclam" unicode="!" horiz-adv-x="235" 
d="M72 194q-10 0 -10 9q0 5 0.5 6.5t0.5 3.5q1 6 8 37.5t18 75.5t23.5 95t24 97t20 81t11.5 47q8 31 25 38t35 7q22 0 33.5 -14.5t5.5 -35.5q-8 -26 -25 -69.5t-44 -110.5q-17 -42 -35 -84t-33.5 -77.5t-27 -60t-14.5 -30.5q-3 -7 -6.5 -11t-9.5 -4zM25 -13
q-23 0 -34.5 13.5t-11.5 32.5q0 23 16 40.5t43 17.5q20 0 33 -12.5t13 -31.5q0 -23 -17 -41.5t-42 -18.5z" />
    <glyph glyph-name="quotedbl" unicode="&#x22;" horiz-adv-x="303" 
d="M107 474q-14 0 -12 16q0 6 5 31.5t11 55t11.5 55.5t7.5 34q5 20 19.5 25.5t26.5 5.5q18 0 26.5 -8t5.5 -21q-3 -14 -16 -42t-27.5 -58t-27 -54t-15.5 -30q-5 -10 -15 -10zM238 474q-14 0 -12 16q0 6 5 31.5t11 55t11.5 55.5t7.5 34q5 20 19.5 25.5t26.5 5.5q18 0 26.5 -8
t5.5 -21q-3 -14 -16 -42t-27.5 -58t-27 -54t-15.5 -30q-5 -10 -15 -10z" />
    <glyph glyph-name="numbersign" unicode="#" horiz-adv-x="600" 
d="M27 47l78 161h-109l18 43h111l90 184h-128l19 43h129l68 138h45l-68 -138h164l68 138h44l-68 -138h120l-19 -43h-121l-90 -184h138l-19 -43h-139l-78 -161h-44l78 161h-164l-78 -161h-45zM170 251h164l90 184h-164z" />
    <glyph glyph-name="dollar" unicode="$" horiz-adv-x="518" 
d="M64 -114l37 110q-60 8 -95.5 35t-35.5 61q0 13 9 24.5t29 11.5q21 0 32 -14t29 -40q9 -13 20.5 -24t24.5 -16l103 300q-34 37 -60 75.5t-26 84.5q0 41 15 75t42 58t64.5 37.5t81.5 14.5l25 71h37l-25 -74q24 -4 45.5 -13t38 -22t26.5 -27.5t10 -29.5t-9.5 -23.5
t-22.5 -8.5q-18 0 -28 11.5t-19 27t-20.5 30.5t-31.5 23l-85 -249q21 -23 42.5 -46t38.5 -47t28 -49.5t11 -51.5q0 -45 -16.5 -83t-45.5 -66.5t-69.5 -44.5t-89.5 -16h-19t-18 1l-36 -106h-37zM148 23q19 -4 42 -4q27 0 51 11t43 30t30 45t11 56q0 40 -24.5 75t-56.5 70z
M316 653q-28 0 -51 -10t-40 -27.5t-26.5 -39.5t-9.5 -46q0 -26 16.5 -52.5t41.5 -53.5l78 229h-9z" />
    <glyph glyph-name="percent" unicode="%" horiz-adv-x="794" 
d="M525 -16q-45 0 -74 32.5t-29 95.5q0 40 14 82t39.5 76t62 55.5t80.5 21.5q21 0 40 -6.5t34 -20.5t23.5 -36t8.5 -53q0 -45 -14 -89t-40 -79.5t-63 -57t-82 -21.5zM498 37q10 -23 39 -23t51.5 23t37.5 58t23 75.5t8 75.5q0 29 -10.5 50t-36.5 21q-30 0 -52.5 -24
t-38 -58.5t-23 -72t-7.5 -65.5q0 -36 9 -60zM113 -17l500 696h55l-500 -696h-55zM168 315q-45 0 -74 32.5t-29 95.5q0 40 14 82t39.5 76t62 55.5t80.5 21.5q21 0 40 -6.5t34 -20.5t23.5 -36t8.5 -53q0 -45 -14 -89t-40 -79.5t-63 -57t-82 -21.5zM141 368q10 -23 39 -23
t51.5 23t37.5 58t23 75.5t8 75.5q0 29 -10.5 50t-36.5 21q-30 0 -52.5 -24t-38 -58.5t-23 -72t-7.5 -65.5q0 -36 9 -60z" />
    <glyph glyph-name="ampersand" unicode="&#x26;" horiz-adv-x="783" 
d="M130 431q-11 30 -11 68q0 39 14.5 76.5t41.5 66.5t64.5 47t83.5 18q65 0 103 -33t38 -86q0 -22 -8 -43t-22 -37t-32 -26t-39 -10q-34 0 -57 22t-23 57q0 16 5.5 29t13 22t16 14t14.5 5q7 0 7 -5q0 -3 -2 -5.5t-7 -7.5q-11 -11 -12.5 -22.5t-1.5 -18.5q0 -22 15.5 -36.5
t35.5 -14.5q34 0 51.5 24.5t17.5 54.5q0 44 -32 68.5t-78 24.5q-40 0 -67 -18t-43.5 -45t-23.5 -58t-7 -57q0 -21 4 -42v-4q21 6 42 6q14 0 29.5 -3.5t29 -11.5t22.5 -21.5t9 -32.5q0 -28 -20 -44t-52 -16q-23 0 -46.5 11.5t-42.5 32.5q-8 9 -14 19q-3 -4 -6 -9
q-13 -22 -19 -47.5t-6 -45.5q0 -51 21 -96.5t58.5 -80t89 -55t112.5 -20.5q71 0 122 19t84 48t48.5 64t15.5 68q0 37 -13 65.5t-33.5 48t-46 29.5t-50.5 10q-24 0 -47 -7.5t-41 -22.5t-28.5 -37.5t-10.5 -52.5q0 -26 9.5 -44t23.5 -29.5t31 -17t32 -5.5q13 0 28 4t28 12.5
t21 22.5t8 35q0 26 -14.5 43.5t-42.5 17.5q-11 0 -22 -6t-11 -14q0 -5 2.5 -6t6.5 -2q8 -2 15.5 -8.5t7.5 -20.5q0 -15 -8.5 -24t-23.5 -9q-12 0 -25 10.5t-13 33.5q0 27 22 46.5t53 19.5q28 0 52.5 -20t24.5 -62q0 -18 -7 -36t-21.5 -32t-36 -23t-49.5 -9q-26 0 -49.5 9.5
t-41.5 27.5t-28.5 43.5t-10.5 57.5q0 46 20 79t52.5 55.5t74.5 34t87 14.5q30 2 63 6t61 16.5t46 36t18 64.5q0 39 -21 64t-61 25q-32 0 -53 -17.5t-21 -41.5q0 -10 6 -10q5 0 10 4.5t16 4.5t21.5 -8.5t10.5 -27.5t-10 -30t-29 -11q-9 0 -19.5 3t-18.5 9.5t-13.5 18
t-5.5 28.5q0 24 10 43t26 31.5t36 19.5t41 7q23 0 45 -8t39 -24t27 -41t10 -59q0 -58 -27 -92.5t-63.5 -52.5t-72.5 -24q-36 -5 -54 -5q12 -6 26.5 -19t27 -34t21.5 -49t9 -62q0 -48 -22.5 -94.5t-65 -83t-103.5 -58.5t-138 -22q-58 0 -114 14.5t-100 46.5t-71 82.5
t-27 121.5q0 50 15.5 90.5t40.5 68.5q11 13 24 23zM228 443q-18 0 -33 -5q3 -7 6 -13q9 -16 21.5 -26.5t29.5 -10.5q11 0 19 5t8 14q0 18 -16 27t-35 9z" />
    <glyph glyph-name="quotesingle" unicode="'" horiz-adv-x="172" 
d="M107 474q-14 0 -12 16q0 6 5 31.5t11 55t11.5 55.5t7.5 34q5 20 19.5 25.5t26.5 5.5q18 0 26.5 -8t5.5 -21q-3 -14 -16 -42t-27.5 -58t-27 -54t-15.5 -30q-5 -10 -15 -10z" />
    <glyph glyph-name="parenleft" unicode="(" horiz-adv-x="312" 
d="M166 -129q-7 0 -16 10q-2 2 -16.5 22.5t-31 57.5t-29.5 90t-13 120q0 64 17.5 128.5t45 125t61 113.5t66.5 94t61.5 67.5t44.5 33.5q4 2 6 2q9 0 9 -11q0 -8 -8 -14q-50 -48 -93.5 -114.5t-76 -140.5t-51.5 -151.5t-19 -149.5q0 -51 6 -93t14.5 -74.5t17.5 -54.5t14 -34
l3 -7.5t1 -7.5t-3 -8.5t-10 -3.5z" />
    <glyph glyph-name="parenright" unicode=")" horiz-adv-x="321" 
d="M-37 -130q-9 0 -9 11q0 8 8 14q50 48 93.5 114t76 140.5t51.5 152t19 149.5q0 51 -6 93t-14.5 74.5t-17.5 54.5t-14 34l-3 7.5t-1 7.5t3 8.5t10 3.5t16 -10q2 -2 16.5 -22.5t31 -57.5t29.5 -90t13 -120q0 -64 -17.5 -128.5t-45 -125t-61 -113.5t-66.5 -94t-61.5 -67.5
t-44.5 -33.5q-4 -2 -6 -2z" />
    <glyph glyph-name="asterisk" unicode="*" horiz-adv-x="426" 
d="M257 542q-17 -10 -30 -20t-23 -18.5t-19 -13.5t-18 -5q-13 0 -20.5 10.5t-7.5 22.5q0 9 5 17.5t16 13.5q10 4 19.5 5t20 2t23 2.5t27.5 6.5l18 7l-16 9q-12 7 -27 11t-27.5 8t-21 10.5t-8.5 17.5q0 14 11.5 27t28.5 13q12 0 19 -7t12.5 -17.5t12 -22t17.5 -21.5l14 -11
l2 21q3 21 0 37t-3 31q0 19 10 32.5t30 13.5q13 0 22 -7.5t9 -20.5q0 -12 -5 -22.5t-12 -21.5t-14.5 -21.5t-11.5 -22.5l-8 -19l19 11q16 9 28.5 20t23 20.5t20.5 16t20 6.5q11 0 18.5 -11.5t7.5 -23.5q0 -16 -11 -24t-27.5 -12t-34.5 -5.5t-31 -5.5l-25 -9l16 -8
q23 -13 41.5 -15t35.5 -11q10 -6 10 -21q0 -14 -12 -28.5t-28 -14.5q-11 0 -17.5 6t-12.5 15t-13.5 21t-19.5 24l-16 14l-2 -20q-2 -21 0.5 -37.5t2.5 -31.5q0 -20 -9.5 -32.5t-29.5 -12.5q-14 0 -22.5 7.5t-8.5 20.5q0 12 4.5 21.5t11.5 19.5t13.5 20t11.5 22l8 22z" />
    <glyph glyph-name="plus" unicode="+" horiz-adv-x="518" 
d="M237 143v161h-161v42h161v161h45v-161h160v-42h-160v-161h-45z" />
    <glyph glyph-name="comma" unicode="," horiz-adv-x="243" 
d="M-25 -154q-7 0 -8.5 2.5t-1.5 5.5q0 4 5 8.5t7 6.5l22 22t22.5 25t19 25.5t11.5 23.5q1 5 1 8v6q0 12 -6 16.5t-11 4.5q-22 0 -38 12t-16 38q0 27 16.5 41.5t42.5 14.5q29 0 45 -21.5t16 -52.5q0 -27 -8.5 -51.5t-22.5 -46t-32 -40t-37 -34.5q-11 -9 -16.5 -11.5
t-10.5 -2.5z" />
    <glyph glyph-name="hyphen" unicode="-" horiz-adv-x="342" 
d="M10 213l25 66h247l-25 -66h-247z" />
    <glyph glyph-name="period" unicode="." horiz-adv-x="240" 
d="M34 -9q-24 0 -37 15t-13 35q0 26 17.5 45.5t47.5 19.5q22 0 36 -14t14 -35q0 -25 -18.5 -45.5t-46.5 -20.5z" />
    <glyph glyph-name="slash" unicode="/" horiz-adv-x="401" 
d="M-105 -85l537 817h59l-537 -817h-59z" />
    <glyph glyph-name="zero" unicode="0" horiz-adv-x="524" 
d="M91 -9q-23 9 -39 30.5t-24.5 56.5t-8.5 85q0 49 9 99t25 97.5t38.5 91.5t49.5 82q54 75 112 110.5t113 35.5q61 0 97 -43t36 -139q0 -64 -16 -131t-44.5 -129t-68 -115t-85.5 -87q-39 -29 -70.5 -41.5t-69.5 -12.5q-30 0 -54 10zM106 43q7 -15 19 -24t30 -9q41 0 77 30
t65.5 78t53 107.5t39.5 118t24.5 110t8.5 83.5q0 52 -13.5 82.5t-51.5 30.5q-40 0 -75.5 -30.5t-65 -78.5t-52.5 -107.5t-39 -118.5t-24.5 -111t-8.5 -84q0 -22 3 -42t10 -35z" />
    <glyph glyph-name="one" unicode="1" horiz-adv-x="422" 
d="M171 100q-7 -18 -7 -34q0 -15 8.5 -24t20 -13.5t24.5 -5.5t22 -1q10 0 12.5 -3.5t2.5 -7.5q0 -13 -17 -13q-19 0 -56 1t-81 1q-24 0 -48.5 -0.5t-45 -0.5t-35.5 -0.5t-20 -0.5q-11 0 -11 10q0 15 25 15q33 0 55 5t36.5 15.5t23.5 26.5t17 37l153 441q9 25 9 34q0 5 -6 5
q-5 0 -12.5 -2t-18.5 -5l-57 -15q-7 -2 -11.5 2t-4.5 10q0 11 15 16q11 3 21 6t21 7t25 10t34 16q28 14 44.5 25t26 19t15 12t10.5 4q7 0 9.5 -4.5t0.5 -9.5z" />
    <glyph glyph-name="two" unicode="2" horiz-adv-x="472" 
d="M-55 0q20 69 60.5 128t88.5 109.5t98.5 94.5t92 84.5t68 78.5t26.5 77q0 34 -20.5 54t-61.5 20q-35 0 -66 -15.5t-55 -34.5t-39 -36.5t-18 -21.5q-15 -19 -25 -19q-11 0 -11 11q0 5 4.5 11.5t7.5 11.5q16 20 38.5 42.5t52.5 41t67.5 30.5t81.5 12q26 0 50 -6.5t43 -20
t30 -35t11 -50.5q0 -42 -26.5 -79t-68.5 -73t-94 -73t-104 -78t-98 -89t-75 -105h258q22 0 36 3t23.5 9t15.5 16t14 24q5 8 8 12t8 4q11 0 10 -11q-1 -6 -5.5 -18t-9.5 -23l-33 -75q-2 -5 -5 -8t-11 -3h-367z" />
    <glyph glyph-name="three" unicode="3" horiz-adv-x="486" 
d="M351 423l-56 -40q14 -6 30.5 -17t31 -27.5t24 -39.5t9.5 -54q0 -50 -24 -97.5t-64.5 -84t-93 -58.5t-108.5 -22q-18 0 -43.5 4t-49 13.5t-39.5 24t-16 35.5q0 16 11.5 27t29.5 11q24 0 34 -14t19 -31.5t22.5 -31.5t45.5 -14q36 0 70.5 15t60.5 42t42 65t16 85
q0 52 -23 85.5t-68 33.5q-27 0 -49 -7t-30 -7q-9 0 -9 8q0 5 4 8.5t15 7.5q31 12 71.5 31.5t76.5 46.5t60.5 61t24.5 76q0 37 -18 59.5t-63 22.5q-24 0 -47 -10t-43 -25.5t-37.5 -33.5t-30.5 -33q-7 -8 -12 -12.5t-11 -4.5q-8 0 -10 4t-2 7q0 6 6.5 15t19.5 23
q10 11 30 29.5t46.5 36t59.5 30.5t70 13q56 0 86 -31t30 -76q0 -31 -13.5 -57t-35.5 -48.5t-50 -43.5z" />
    <glyph glyph-name="four" unicode="4" horiz-adv-x="496" 
d="M197 -6q-8 0 -9 5t1 12l63 178h-232q-6 0 -9 4t0 12l6 19q2 5 6 10.5t10 11.5l372 412q16 17 33 17h44q14 0 9 -14l-147 -416h79q9 0 6 -10l-12 -36q-3 -10 -13 -10h-79l-59 -179q-5 -16 -20 -16h-49zM71 245h200l126 362z" />
    <glyph glyph-name="five" unicode="5" horiz-adv-x="484" 
d="M126 400q30 8 56 11.5t52 3.5q39 0 69 -12t51 -33t31.5 -50t10.5 -63q0 -52 -21 -101t-58 -87.5t-87.5 -62t-108.5 -23.5q-42 0 -70 7.5t-45.5 19t-25 25.5t-7.5 28q0 17 11.5 28t31.5 11q21 0 34.5 -14t26.5 -31.5t29 -31.5t41 -14q35 0 65.5 20.5t52.5 52.5t34.5 71.5
t12.5 77.5q0 63 -30.5 91.5t-91.5 28.5q-17 0 -34 -2.5t-31 -6t-25 -6t-15 -2.5q-14 0 -9 14q2 4 6 14.5l12 31.5l92 260h228q21 0 28 13.5t12 23.5q5 13 13 13q14 0 12 -10q-2 -6 -5 -16.5t-6 -19.5l-20 -60q-3 -9 -12 -11.5t-18 -2.5h-225z" />
    <glyph glyph-name="six" unicode="6" horiz-adv-x="503" 
d="M308 561q-73 -64 -122 -149q26 13 59.5 21t57.5 8q66 0 98.5 -34.5t32.5 -91.5q0 -55 -23 -113.5t-62 -107t-90 -80t-107 -31.5q-70 0 -100 41.5t-30 125.5q0 88 34.5 169.5t91.5 150t129.5 122t148.5 86.5q28 12 45 12q5 0 9.5 -2.5t4.5 -6.5q0 -5 -5 -9t-11 -6
q-88 -41 -161 -105zM101 29q19 -23 45 -23q39 0 76.5 33t67.5 82.5t48.5 107t18.5 105.5q0 37 -14.5 59t-44.5 22q-52 0 -92 -29.5t-67.5 -74.5t-41.5 -98.5t-14 -101.5q0 -59 18 -82z" />
    <glyph glyph-name="seven" unicode="7" horiz-adv-x="445" 
d="M191 583q-23 0 -37.5 -5.5t-23.5 -13.5t-13.5 -16t-7.5 -14q-2 -5 -5 -8t-11 -3q-6 0 -7.5 3t-1.5 6t4 12t9 20t10 21t7 15q14 28 22.5 48.5t12.5 28.5q5 13 8.5 16t8.5 3q12 0 11 -13q-2 -13 4 -20t36 -7h277q8 0 8 -8q0 -5 -8 -17.5t-19 -27.5q-53 -74 -101 -149.5
t-88 -147.5t-69.5 -138t-45.5 -121q-11 -38 -24.5 -55t-36.5 -17q-21 0 -29.5 10.5t-8.5 27.5q0 14 3.5 26t8.5 26q14 37 43.5 87.5t66 105.5t76 109.5t73 100t58 76.5t30.5 39h-240z" />
    <glyph glyph-name="eight" unicode="8" horiz-adv-x="494" 
d="M205 380q-20 23 -37.5 54.5t-17.5 72.5q0 43 17 75.5t44 54t62 32t71 10.5q65 0 104.5 -32t39.5 -85q0 -36 -16.5 -64t-42 -49.5t-56.5 -37.5t-59 -28l28 -35q29 -38 48 -75t19 -79q0 -53 -18.5 -93t-49 -66t-70.5 -39t-83 -13q-46 0 -80.5 14t-58 36.5t-35.5 50.5
t-12 57q0 45 22 80.5t54.5 62.5t70.5 46.5t71 32.5zM234 345q-32 -18 -60 -37t-48.5 -41t-32.5 -49t-12 -61q0 -29 8 -56t23.5 -47t38 -32t52.5 -12q31 0 56 10.5t42.5 29t27 44t9.5 55.5q0 42 -14.5 71t-36.5 57zM239 469q24 -33 60 -71q25 16 48 35t41 40.5t28.5 45.5
t10.5 51q0 34 -22 60t-67 26q-26 0 -48.5 -8.5t-39 -23.5t-25.5 -35.5t-9 -43.5q0 -42 23 -76z" />
    <glyph glyph-name="nine" unicode="9" horiz-adv-x="501" 
d="M16 -10q5 4 11 6q88 41 161 105t122 149q-26 -13 -59.5 -21t-57.5 -8q-66 0 -98.5 34.5t-32.5 91.5q0 55 23 113.5t62 107t90 80t107 31.5q70 0 100 -41.5t30 -125.5q0 -88 -34.5 -169.5t-91.5 -150t-129.5 -122t-148.5 -86.5q-29 -12 -45 -12q-5 0 -9.5 2.5t-4.5 6.5
q0 5 5 9zM153 269q15 -22 45 -22q52 0 92 29.5t67.5 74.5t41.5 98.5t14 101.5q0 59 -18.5 82t-44.5 23q-39 0 -76.5 -33t-67.5 -82.5t-48.5 -107t-18.5 -105.5q0 -37 14 -59z" />
    <glyph glyph-name="colon" unicode=":" horiz-adv-x="240" 
d="M136 315q-24 0 -37 15t-13 35q0 26 17.5 45.5t47.5 19.5q22 0 36 -14t14 -35q0 -25 -18.5 -45.5t-46.5 -20.5zM33 -9q-24 0 -37 15t-13 35q0 26 17.5 45.5t47.5 19.5q22 0 36 -14t14 -35q0 -25 -18.5 -45.5t-46.5 -20.5z" />
    <glyph glyph-name="semicolon" unicode=";" horiz-adv-x="243" 
d="M-28 -154q-7 0 -8.5 2.5t-1.5 5.5q0 4 5 8.5t7 6.5l22 22t22.5 25t19 25.5t11.5 23.5q1 5 1 8v6q0 12 -6 16.5t-11 4.5q-22 0 -38 12t-16 38q0 27 16.5 41.5t42.5 14.5q29 0 45 -21.5t16 -52.5q0 -27 -8.5 -51.5t-22.5 -46t-32 -40t-37 -34.5q-11 -9 -16.5 -11.5
t-10.5 -2.5zM115 315q-24 0 -37 15t-13 35q0 26 17.5 45.5t47.5 19.5q22 0 36 -14t14 -35q0 -25 -18.5 -45.5t-46.5 -20.5z" />
    <glyph glyph-name="less" unicode="&#x3c;" horiz-adv-x="518" 
d="M65 299v36l379 185v-53l-307 -147v-4l307 -149v-52z" />
    <glyph glyph-name="equal" unicode="=" horiz-adv-x="518" 
d="M68 234v42h366v-42h-366zM68 364v42h366v-42h-366z" />
    <glyph glyph-name="greater" unicode="&#x3e;" horiz-adv-x="518" 
d="M74 115v52l307 149v4l-307 147v53l379 -185v-36z" />
    <glyph glyph-name="question" unicode="?" horiz-adv-x="394" 
d="M143 198q-15 12 -24 29.5t-9 39.5q0 35 17.5 63t44 52.5t57 46.5t57 46.5t44 51.5t17.5 62q0 39 -19 59.5t-48 20.5q-21 0 -34 -9.5t-24 -27.5q-14 -22 -22.5 -29.5t-25.5 -7.5q-11 0 -21.5 8t-10.5 22q0 29 34.5 47.5t91.5 18.5q66 0 102.5 -35.5t36.5 -92.5
q0 -39 -17.5 -70t-44 -56.5t-57.5 -47.5t-57.5 -43t-44 -43.5t-17.5 -48.5q0 -14 6 -26.5t22 -20.5q13 -6 20 -9t7 -12q0 -12 -12 -12q-18 0 -36 6t-33 18zM125 -13q-22 0 -34 13.5t-12 32.5q0 23 16 40.5t43 17.5q20 0 33 -12.5t13 -31.5q0 -23 -17 -41.5t-42 -18.5z" />
    <glyph glyph-name="at" unicode="@" horiz-adv-x="765" 
d="M384 135q-16 -17 -36.5 -36t-43.5 -34.5t-47.5 -25.5t-48.5 -10q-21 0 -36.5 12t-15.5 47q0 42 29 95t73 100t95.5 79t97.5 32q17 0 26.5 -7t15.5 -17q4 7 10.5 19t13.5 12q6 0 18.5 0.5t17.5 0.5q15 0 15 -6q0 -3 -3 -9q-29 -66 -63.5 -139.5t-66.5 -148.5
q-8 -17 -6 -32t29 -15q34 0 69 16.5t63 45.5t45.5 69.5t17.5 87.5q0 53 -20 95.5t-55.5 72.5t-83 46t-102.5 16q-74 0 -133 -28.5t-100 -76.5t-62.5 -111t-21.5 -132q0 -44 14.5 -92.5t49 -89t91.5 -67t143 -26.5q54 0 92 12t63 23q5 -2 7.5 -9t0.5 -13q-23 -14 -48 -23.5
t-50 -15t-49.5 -7.5t-45.5 -2q-62 0 -122.5 18.5t-108 57t-77 96.5t-29.5 137q0 88 32.5 159t87.5 120.5t126.5 76.5t148.5 27q72 0 127 -22t92.5 -58t56.5 -83t19 -97q0 -48 -20.5 -94t-57.5 -82.5t-87.5 -58.5t-111.5 -22q-25 0 -39 4.5t-20.5 11.5t-6.5 16.5t4 18.5z
M227 94q0 -25 17 -25q21 0 45 15t47.5 37t43 47t31.5 46q8 13 13.5 22.5t10.5 19t10 20t11 24.5q12 33 12 52q0 9 -4 18.5t-18 9.5t-35.5 -14.5t-46 -38.5t-49 -54.5t-44 -62t-32 -62t-12.5 -54.5z" />
    <glyph glyph-name="A" unicode="A" horiz-adv-x="657" 
d="M147 179l-21 -31.5t-20.5 -32.5t-15.5 -31.5t-6 -27.5q0 -17 10.5 -26.5t34.5 -9.5q9 0 12 -2.5t3 -8.5q0 -10 -14 -10h-46.5t-32 0.5t-23 0.5h-18.5q-31 0 -58 -1t-52 -1q-15 0 -15 11q0 8 4.5 10.5t17.5 2.5q17 0 38 6t45.5 23.5t53.5 47.5t62 78l330 481q7 11 17 14
l64 25q4 2 11 2t8 -5.5t1 -14.5l-45 -553q-1 -6 -1 -11.5v-11.5q0 -17 2.5 -32t9.5 -26t19 -18t30 -7q13 0 13 -11q0 -10 -14 -10q-48 0 -83.5 0.5t-54.5 0.5q-20 0 -46.5 -0.5t-71.5 -0.5q-12 0 -12 11q0 7 4 9.5t9 2.5q51 0 76 20t29 65l16 175h-200zM240 314h179l28 311z
" />
    <glyph glyph-name="B" unicode="B" horiz-adv-x="618" 
d="M77 0q-26 0 -52 -1t-55 -1q-12 0 -12 13q0 5 2.5 9.5t10.5 4.5q19 0 32 4.5t22.5 14.5t17 26t15.5 39l163 471l10.5 31.5t5.5 33.5t-14.5 23.5t-44.5 7.5q-10 0 -15 2t-5 10t4.5 9t9.5 1q29 0 58.5 -2t62.5 -2q16 0 35 0.5t58 0.5q56 0 98 -12t69.5 -33t41 -49.5
t13.5 -61.5q0 -40 -16.5 -72.5t-44 -57t-64 -39.5t-75.5 -21q63 -20 98 -59.5t35 -96.5t-23 -94t-61.5 -59t-88.5 -31t-104 -9h-187zM146 99q-7 -20 -11.5 -34.5t-4.5 -25.5q0 -8 8 -11.5t41 -3.5h50q43 0 81.5 10t68 32t46.5 55.5t17 81.5q0 25 -6.5 50t-22 45t-40.5 33
t-62 13h-79zM240 372h81q41 0 77 10.5t62.5 32t41.5 53.5t15 75q0 25 -7 48t-21.5 41t-37.5 28.5t-55 10.5q-20 0 -32 -4t-19.5 -11.5t-12 -18t-9.5 -24.5z" />
    <glyph glyph-name="C" unicode="C" horiz-adv-x="621" 
d="M460 51q-1 14 -3 26q-28 -30 -56 -48.5t-55.5 -28.5t-55 -13.5t-54.5 -3.5q-98 0 -154.5 55t-56.5 164q0 59 17 119.5t47.5 116.5t73.5 104.5t95.5 85t112.5 57t126 20.5q42 0 69.5 -9.5t54.5 -25.5q3 -2 5.5 -3t5.5 -1q4 0 8 3t6 7q5 7 8 9t6 2q6 0 9.5 -4.5t-1.5 -18.5
q-5 -15 -12 -34.5t-14.5 -41t-15 -43.5t-13.5 -42q-4 -11 -6.5 -16.5t-9.5 -5.5q-13 0 -11 17q2 22 3 36t1.5 22t0.5 12v7q0 22 -4 41.5t-13.5 34t-26.5 23t-44 8.5q-52 0 -100.5 -21.5t-90.5 -58t-77 -84.5t-60 -101t-38.5 -108.5t-13.5 -105.5q0 -35 6 -69t21.5 -60.5
t44 -43t73.5 -16.5q31 0 59.5 10.5t52.5 27t44 36.5t34 39q24 34 38.5 60.5t27.5 58.5q6 14 17 14q7 0 12.5 -6t1.5 -17q-11 -34 -20 -62t-17.5 -53.5t-16 -50t-14.5 -51.5q-3 -13 -14 -13q-10 0 -11 18z" />
    <glyph glyph-name="D" unicode="D" horiz-adv-x="729" 
d="M152 117q-8 -23 -9 -32t-1 -18q0 -10 2.5 -18t11.5 -13.5t26.5 -8.5t47.5 -3q85 0 152 33t114 86t72 121t25 139q0 63 -13.5 112t-39.5 82q-32 42 -73.5 59.5t-81.5 17.5q-34 0 -46 -14t-20 -39zM224 600q4 11 7 22.5t3 22.5q0 17 -15 23.5t-38 7.5q-10 0 -14.5 2
t-4.5 10t4.5 9t9.5 1q32 0 63 -0.5t51 -0.5q14 0 33 0.5t58 0.5q52 0 106.5 -16t99.5 -52t73.5 -93.5t28.5 -140.5q0 -59 -16.5 -114t-46 -101.5t-70 -82.5t-88.5 -58q-51 -23 -107 -32.5t-121 -9.5q-14 0 -33 0.5t-41 0.5q-24 1 -47 1h-43q-31 0 -58.5 -2t-54.5 -2
q-13 0 -13 11q0 5 3 9.5t14 4.5q34 0 55 19t33 56z" />
    <glyph glyph-name="E" unicode="E" horiz-adv-x="649" 
d="M-36 0q-15 0 -15 11q0 7 4 10t15 3q33 0 54 16t35 61l159 479q6 17 9.5 29.5t3.5 26.5q0 17 -14 27t-50 10q-21 0 -21 13q0 12 13 12h445q15 0 16 -17l9 -80q1 -4 1.5 -11t0.5 -11q0 -11 -10 -11q-7 0 -12.5 5t-20.5 25l-45 60q-5 8 -11.5 11.5t-18.5 3.5h-174l-100 -301
h40q50 0 77.5 4.5t39.5 9.5q23 10 44.5 29t38.5 60q4 10 7.5 16t9.5 6t10.5 -4t2.5 -10q-9 -25 -21 -60t-25 -73t-24 -74.5t-19 -63.5q-3 -9 -6.5 -12t-6.5 -3q-12 0 -12 14q0 8 0.5 18t0.5 31q0 25 -8 42t-22 27t-32.5 14t-40.5 4h-63l-74 -223q-4 -11 -8.5 -29t-4.5 -33
q0 -18 13.5 -27t43.5 -9h214q11 0 17 3t11 10l99 120q7 8 10 10.5t8 2.5q7 0 8.5 -5t-0.5 -13l-36 -145q-2 -9 -9 -9h-556z" />
    <glyph glyph-name="F" unicode="F" horiz-adv-x="582" 
d="M153 121q-4 -11 -8.5 -28.5t-4.5 -29.5q0 -21 22 -31t61 -10q8 0 11 -3.5t3 -8.5q0 -6 -3 -9t-13 -3q-2 0 -14 0.5t-31 0.5t-43.5 0.5t-50.5 0.5q-23 0 -52.5 -0.5t-65.5 -0.5q-15 0 -15 12q0 7 4 10t15 3q33 0 53.5 16t35.5 61l159 479q6 17 9.5 29.5t3.5 26.5
q0 17 -14 27t-50 10q-21 0 -21 13q0 12 13 12h458q15 0 16 -17l11 -99q1 -4 1.5 -11t0.5 -11q0 -6 -3.5 -8.5t-8.5 -2.5q-7 0 -12 5t-14 20l-54 84q-5 8 -11.5 11.5t-18.5 3.5h-185l-98 -293h55q28 0 55 3t51 13t43.5 28.5t33.5 50.5q5 10 8.5 15t10.5 5t10.5 -4t1.5 -10
q-10 -28 -20.5 -56t-24.5 -72q-9 -26 -15 -44.5t-10.5 -33.5t-8.5 -27.5t-8 -25.5q-3 -9 -6 -12t-8 -3t-8.5 2t-3.5 9q0 12 1.5 25t1.5 29q0 49 -27 65t-80 16h-61z" />
    <glyph glyph-name="G" unicode="G" horiz-adv-x="664" 
d="M502 47q-8 -5 -27 -16t-47.5 -21.5t-65 -18.5t-78.5 -8q-58 0 -105 15.5t-80 46.5t-51 77.5t-18 108.5q0 110 39.5 198t102.5 149.5t141 94t155 32.5q27 0 50.5 -5t42.5 -12.5t33.5 -15.5t23.5 -14q14 -8 21 -8q5 0 10.5 6t8.5 11q5 8 11 8q11 0 11 -12q0 -6 -2 -14
l-40 -175q-2 -6 -5 -11t-9 -5q-7 0 -10.5 4.5t-3.5 17.5q0 33 -5.5 68.5t-21 65t-43 48t-71.5 18.5q-71 0 -133 -38.5t-108 -101t-72.5 -142t-26.5 -160.5q0 -37 6 -78t23 -75t47.5 -56t79.5 -22q46 0 66.5 9.5t31.5 18.5q17 12 36 41.5t37 83.5q5 14 10 34.5t5 37.5
q0 4 -1 9.5t-6 9.5t-15.5 7t-29.5 3q-18 0 -23 2t-5 10t5 10t13 2q33 0 63.5 -1t50.5 -1q26 0 56.5 1.5t52.5 1.5q13 0 13 -11q0 -6 -3.5 -9t-15.5 -3q-27 0 -44.5 -17.5t-33.5 -64.5z" />
    <glyph glyph-name="H" unicode="H" horiz-adv-x="748" 
d="M152 113q-8 -25 -10 -38.5t-2 -21.5q0 -19 14.5 -26t45.5 -7q8 0 10 -3t2 -8q0 -6 -2 -8.5t-12 -2.5q-29 0 -55.5 1t-66.5 1q-27 0 -54 -1.5t-56 -1.5q-14 0 -14 12q0 5 3.5 8.5t14.5 3.5q59 0 79 58l168 499q11 32 11 63q0 33 -50 33q-14 0 -18.5 3t-4.5 11t4.5 9t9.5 1
q28 0 57 -1t64 -1q26 0 52 1t58 1q17 0 17 -11q0 -6 -4 -9.5t-15 -3.5q-38 0 -53 -15t-25 -45l-83 -244h301l73 213q5 13 9 28t4 31q0 32 -52 32q-14 0 -18.5 2.5t-4.5 9.5q0 8 5.5 10t13.5 2q34 0 65 -1t50 -1q26 0 53.5 1.5t60.5 1.5q11 0 14.5 -2.5t3.5 -9.5
q0 -5 -4 -8.5t-16 -3.5q-62 0 -81 -58l-164 -488q-7 -20 -10.5 -36.5t-3.5 -27.5q0 -17 12.5 -30t44.5 -13q8 0 10.5 -3t2.5 -8q0 -6 -2.5 -8.5t-12.5 -2.5q-28 0 -55 1t-66 1q-40 0 -63 -1t-48 -1q-13 0 -13 11q0 5 3 8.5t14 3.5q34 0 52 16t34 63l78 233h-301z" />
    <glyph glyph-name="I" unicode="I" horiz-adv-x="355" 
d="M152 113q-8 -25 -10.5 -38.5t-2.5 -21.5q0 -19 15 -26t46 -7q8 0 10.5 -3t2.5 -8q0 -6 -2.5 -8.5t-12.5 -2.5q-29 0 -55.5 1t-66.5 1q-27 0 -54.5 -1.5t-56.5 -1.5q-13 0 -13 12q0 5 3 8.5t14 3.5q32 0 51 15t29 43l169 499q5 14 8.5 30t3.5 33t-13.5 25t-37.5 8
q-14 0 -19 2.5t-5 10.5t4.5 9.5t9.5 1.5q28 0 57 -1t64 -1q26 0 51.5 1t57.5 1q11 0 14.5 -2.5t3.5 -8.5t-3.5 -9.5t-15.5 -3.5q-38 0 -53 -15t-25 -45z" />
    <glyph glyph-name="J" unicode="J" horiz-adv-x="429" 
d="M263 161q-12 -37 -27.5 -70t-38.5 -57.5t-55 -39t-78 -14.5q-60 0 -87 27t-27 64q0 32 16 49t42 17q20 0 32.5 -11t12.5 -31q0 -15 -7.5 -24t-16 -15t-16 -11t-7.5 -12q0 -16 15.5 -21.5t33.5 -5.5q40 0 60.5 27.5t34.5 70.5l159 474q5 14 9 30t4 33t-14 25t-37 8
q-14 0 -19 2t-5 10t4.5 10t8.5 2q28 0 57 -1.5t64 -1.5q26 0 52 1.5t58 1.5q11 0 14.5 -3.5t3.5 -9.5t-3 -8.5t-16 -2.5q-38 0 -53 -15t-25 -45z" />
    <glyph glyph-name="K" unicode="K" horiz-adv-x="657" 
d="M154 113q-8 -25 -10 -38.5t-2 -21.5q0 -19 15 -26t44 -7q8 0 10.5 -3t2.5 -8q0 -6 -2.5 -8.5t-11.5 -2.5q-28 0 -55.5 1t-66.5 1q-27 0 -54.5 -1.5t-56.5 -1.5q-14 0 -14 12q0 5 3.5 8.5t14.5 3.5q31 0 50.5 15.5t28.5 42.5l166 507q4 13 6.5 27t2.5 28q0 33 -50 33
q-14 0 -18.5 3t-4.5 11t4.5 9t9.5 1q28 0 56.5 -1.5t63.5 -1.5q26 0 52 1.5t58 1.5q11 0 14.5 -2.5t3.5 -8.5t-4 -9.5t-16 -3.5q-38 0 -53 -15.5t-25 -44.5l-87 -257l266 238q20 19 33 34t13 23q0 9 -9.5 14t-32.5 7q-14 2 -20 3.5t-6 9.5t6 10t11 2q26 0 57 -1.5t65 -1.5
q17 0 37 1.5t34 1.5q11 0 15 -2.5t4 -8.5t-4 -9t-17 -5q-15 -2 -42.5 -13t-65.5 -43q-27 -23 -58 -49.5t-64 -54.5t-66 -57.5t-64 -58.5l145 -268q13 -24 25 -43.5t26 -34t31.5 -22.5t40.5 -8q8 0 11 -3.5t3 -8.5q0 -6 -3 -8.5t-13 -2.5q-30 0 -64 1t-73 1q-27 0 -54.5 -1.5
t-56.5 -1.5q-14 0 -14 12q0 5 3 8.5t14 3.5q58 0 58 29q0 8 -4.5 19t-9.5 21l-136 244l-36 -34z" />
    <glyph glyph-name="L" unicode="L" horiz-adv-x="620" 
d="M-35 0q-14 0 -14 11q0 7 3.5 10t14.5 3q32 0 53.5 16t35.5 61l156 475q5 14 9 30t4 33t-13.5 25t-36.5 8q-15 0 -19.5 3t-4.5 11t4 9t9 1q28 0 56.5 -1t63.5 -1q26 0 52 1t58 1q11 0 14.5 -2.5t3.5 -8.5t-3 -9.5t-16 -3.5q-36 0 -52 -16t-26 -44l-162 -488
q-4 -11 -8.5 -29t-4.5 -33q0 -18 13.5 -27t43.5 -9h191q11 0 17 3t11 10l99 120q7 8 10 10.5t8 2.5q7 0 8.5 -5t-0.5 -13l-36 -145q-2 -9 -9 -9h-533z" />
    <glyph glyph-name="M" unicode="M" horiz-adv-x="889" 
d="M126 184q-12 -27 -20 -46t-12.5 -32.5t-6.5 -23.5t-2 -20q0 -18 12.5 -29.5t50.5 -11.5q9 0 11.5 -3t2.5 -9q0 -11 -13 -11q-29 0 -56.5 1t-56.5 1q-31 0 -63.5 -1t-58.5 -1q-14 0 -14 11q0 7 3 10.5t13 3.5q19 0 40.5 5.5t44 22t45.5 48t46 83.5l199 459q-7 16 -21 23
t-33 12q-8 2 -13 5.5t-5 8.5t4 8t15 3h8t13.5 -0.5t14.5 -1t12 -0.5q7 0 17.5 -0.5t22.5 -0.5h23.5h20.5h32l-19 -557l397 557h29t32.5 -0.5t31 -0.5h25.5t18.5 0.5t12.5 0.5q11 0 14.5 -2.5t3.5 -8.5t-3.5 -8.5t-15.5 -2.5q-19 0 -31 -4.5t-19.5 -13t-13 -20.5t-10.5 -27
l-158 -464q-8 -21 -14.5 -45t-6.5 -41q0 -16 15.5 -27.5t62.5 -11.5q14 0 14 -12q0 -11 -13 -11h-32t-38.5 0.5t-37 0.5h-26.5q-21 0 -49 -0.5t-69 -0.5q-14 0 -17.5 3t-3.5 10q0 12 11 12q49 0 69 19.5t29 45.5l190 552l-448 -625q-9 -14 -19 -14q-8 0 -10 5t-2 12l15 604z
" />
    <glyph glyph-name="N" unicode="N" horiz-adv-x="727" 
d="M117 186q-9 -26 -15 -50t-6 -44q0 -16 3 -29t12 -22t25 -14t43 -5q9 0 11.5 -3t2.5 -9q0 -12 -13 -12q-40 0 -76 1t-76 1q-32 0 -55.5 -0.5t-49.5 -0.5q-14 0 -14 11q0 7 3 10.5t13 3.5q19 0 39 5t40.5 20.5t39.5 44.5t36 78l163 472q-11 13 -23.5 19.5t-28.5 9.5
q-13 2 -20 5t-7 10q0 5 3.5 8t14.5 3q10 0 37 -0.5t61 -0.5h52l174 -549l140 409q10 30 10 57q0 12 -2.5 23t-11 19t-23 12.5t-38.5 4.5q-14 0 -14 13q0 11 13 11q8 0 23 -0.5t31 -0.5t31.5 -0.5t25.5 -0.5q31 0 63.5 1t49.5 1q13 0 13 -11q0 -8 -2.5 -10.5t-12.5 -2.5
q-17 0 -33 -3.5t-31 -15t-29.5 -34t-27.5 -59.5l-194 -553q-5 -12 -13 -12q-6 0 -9 4.5t-6 12.5l-194 603z" />
    <glyph glyph-name="O" unicode="O" horiz-adv-x="645" 
d="M156 -2q-41 14 -70 44.5t-44.5 77t-15.5 111.5q0 52 13 108t37 108.5t57.5 99.5t75.5 82t90.5 55.5t102.5 20.5q112 0 164.5 -66t52.5 -182q0 -60 -14 -118.5t-39 -111t-59.5 -97.5t-75.5 -77.5t-88 -51t-96 -18.5q-50 0 -91 15zM155 45q19 -20 41 -28.5t43 -8.5
q46 0 85.5 27.5t72.5 72t58.5 100.5t43 112t26.5 106.5t9 84.5q0 77 -30.5 123.5t-93.5 46.5q-40 0 -77.5 -25t-70.5 -66t-60.5 -93.5t-47 -108t-30 -109.5t-10.5 -97q0 -50 11.5 -83.5t29.5 -53.5z" />
    <glyph glyph-name="P" unicode="P" horiz-adv-x="587" 
d="M154 119q-8 -23 -13 -41t-5 -32q0 -7 3 -11t11.5 -6.5t23.5 -3t38 -0.5q13 0 13 -13q0 -5 -2.5 -9.5t-13.5 -4.5q-30 0 -61 1t-68 1q-26 0 -52 -1t-55 -1q-12 0 -12 13q0 5 2.5 9.5t10.5 4.5q37 0 55.5 19.5t32.5 64.5l149 471q5 14 10 33.5t5 31.5q0 17 -12.5 23.5
t-42.5 7.5q-10 0 -14.5 2t-4.5 10t4 9t9 1q29 0 57.5 -1t60.5 -1q23 0 47.5 1t50.5 1q115 0 171.5 -47t56.5 -122q0 -44 -15 -78.5t-43 -59.5t-66.5 -40.5t-85.5 -21.5q-31 -4 -68 -4.5t-69 -0.5h-39zM230 348h63q44 0 84.5 10t71 32.5t49 59t18.5 88.5q0 27 -8 52t-24.5 44
t-40.5 30.5t-55 11.5q-32 0 -46.5 -6.5t-21.5 -23.5z" />
    <glyph glyph-name="Q" unicode="Q" horiz-adv-x="645" 
d="M137 -90q-12 -5 -16.5 -9t5.5 -6l36 -8t37.5 -7t42 -5t50.5 -2q45 0 80 11.5t61 32.5q9 8 13.5 10.5t9.5 2.5q10 0 12.5 -7t-1.5 -15q-7 -16 -23 -36t-40.5 -37t-56 -29t-70.5 -12q-40 0 -68.5 16t-52.5 34q-20 14 -45 25t-52 11q-7 0 -12.5 -2t-5.5 -7q0 -6 3.5 -11.5
t3.5 -13.5q0 -13 -8 -21t-22 -8q-13 0 -19.5 8.5t-6.5 19.5q0 13 5.5 22t17.5 17t30.5 16t44.5 20q31 14 68 30t75 33q-47 2 -85.5 17.5t-65.5 46t-41.5 76.5t-14.5 108q0 52 13 108t37 108.5t57.5 99.5t75.5 82t90.5 55.5t102.5 20.5q112 0 164.5 -66t52.5 -182
q0 -83 -21 -155t-58.5 -130.5t-88.5 -102.5t-112 -71zM155 45q19 -20 41 -28.5t43 -8.5q46 0 85.5 27.5t72.5 72t58.5 100.5t43 112t26.5 106.5t9 84.5q0 77 -30.5 123.5t-93.5 46.5q-40 0 -77.5 -25t-70.5 -66t-60.5 -93.5t-47 -108t-30 -109.5t-10.5 -97q0 -50 11.5 -83.5
t29.5 -53.5z" />
    <glyph glyph-name="R" unicode="R" horiz-adv-x="691" 
d="M163 111q-2 -10 -5 -20.5t-3 -21.5q0 -17 13.5 -31t53.5 -14q8 0 10.5 -3.5t2.5 -8.5t-2 -9.5t-13 -4.5q-8 0 -20.5 0.5t-26.5 0.5q-21 1 -43.5 1h-39.5h-30t-42 -1q-17 0 -31 -0.5t-19 -0.5q-12 0 -12 13q0 5 2.5 9t10.5 4q47 0 68.5 19.5t34.5 65.5l133 469
q4 14 7.5 33.5t3.5 31.5q0 17 -13 23.5t-44 7.5q-10 0 -15 2.5t-5 10.5t5 9.5t10 1.5q29 0 55 -0.5t62 -0.5q23 0 47.5 0.5t56.5 0.5q60 0 102 -12.5t68.5 -33.5t38.5 -50t12 -62q0 -48 -21 -83t-54.5 -59t-75 -38t-81.5 -19l109 -212q10 -20 22.5 -39t28 -34t35 -24
t45.5 -9q11 0 14 -4t3 -9q0 -12 -17 -12q-23 0 -50 1t-63 1h-61q-11 34 -21 57t-15 32l-126 249h-45zM229 362h57q44 0 83.5 8.5t69 29t47 56t17.5 89.5q0 25 -7 48.5t-22 42t-38 29.5t-55 11q-33 0 -48.5 -8.5t-21.5 -27.5z" />
    <glyph glyph-name="S" unicode="S" horiz-adv-x="541" 
d="M65 201q0 -34 6.5 -68.5t23.5 -62t46.5 -45t76.5 -17.5q54 0 88 35.5t34 95.5q0 27 -8.5 51t-23 45.5t-32 41t-35.5 37.5q-20 20 -39 41t-34 45t-24 53.5t-9 65.5q0 45 17 79.5t45.5 58.5t65 36t75.5 12q21 0 42.5 -3t40.5 -8t34.5 -10.5t25.5 -9.5q8 -4 12.5 -6t9.5 -2
q13 0 24 24q4 9 12 9q5 0 9 -4.5t0 -15.5q-6 -17 -14 -41t-17 -50.5t-17 -53.5t-14 -48q-4 -12 -6.5 -17.5t-8.5 -5.5q-5 0 -8.5 2.5t-3.5 12.5q0 11 1 22t1 25q0 25 -3.5 49t-12.5 44q-13 28 -41.5 44.5t-70.5 16.5q-50 0 -81 -28.5t-31 -82.5q0 -27 7.5 -50t20.5 -44
t29 -41t34 -39q20 -22 41 -45.5t38 -49t28 -55t11 -63.5q0 -44 -16.5 -80.5t-45.5 -62.5t-69 -40.5t-87 -14.5q-30 0 -54.5 6t-44 15t-34 18.5t-24.5 16.5q-16 11 -26 11t-17 -9t-18 -27q-6 -10 -12 -10q-5 0 -10.5 3.5t-0.5 14.5q8 21 17 47t18 54t17 54.5t14 48.5
q4 13 6.5 17.5t8.5 5.5q13 0 13 -18v-30z" />
    <glyph glyph-name="T" unicode="T" horiz-adv-x="638" 
d="M291 115q-11 -33 -11 -50q0 -26 23 -34.5t72 -8.5q8 0 10.5 -3.5t2.5 -8.5q0 -6 -2.5 -9t-12.5 -3q-42 0 -80 1t-77 1q-35 0 -69 -1.5t-70 -1.5q-12 0 -12 12q0 5 2.5 9.5t13.5 4.5q39 0 69.5 18t40.5 47l194 585h-139q-7 0 -12.5 -2t-11.5 -9l-89 -99q-10 -12 -21 -12
q-8 0 -8 12q0 4 2 11t4 12l34 97q4 15 18 15h551q13 0 9 -16l-34 -114q-5 -16 -13 -16q-5 0 -8 3t-6 14l-22 88q-3 16 -20 16h-142z" />
    <glyph glyph-name="U" unicode="U" horiz-adv-x="689" 
d="M170 243q-8 -24 -12.5 -49t-4.5 -47q0 -28 7 -52t22.5 -41t40.5 -27t61 -10q51 0 88 20t60 57q12 19 22 38t18 42l121 335q10 27 16.5 55t6.5 48q0 35 -19 48.5t-56 13.5q-15 0 -19.5 3t-4.5 11t4.5 9t9.5 1q27 0 62.5 -1.5t70.5 -1.5q25 0 50 1.5t56 1.5q11 0 15 -2.5
t4 -8.5t-3.5 -9.5t-15.5 -3.5q-32 0 -59.5 -20t-43.5 -62l-166 -431q-17 -43 -37.5 -76t-48.5 -55.5t-65.5 -34.5t-86.5 -12q-39 0 -74 8t-61.5 27.5t-42 51.5t-15.5 81q0 29 6 60.5t19 71.5l98 297q5 14 8.5 30t3.5 33t-13.5 25t-36.5 8q-14 0 -19 2t-5 10t4.5 9t9.5 1
q27 0 55.5 -1.5t63.5 -1.5q26 0 52.5 1.5t58.5 1.5q11 0 14.5 -2.5t3.5 -8.5t-3.5 -8.5t-15.5 -2.5q-38 0 -53 -15t-25 -45z" />
    <glyph glyph-name="V" unicode="V" horiz-adv-x="658" 
d="M203 0q-5 -7 -12.5 -12t-15.5 -5q-9 0 -13 6t-4 15l20 567q1 20 -1.5 39t-9.5 34t-20.5 24t-34.5 9q-12 0 -12 11q0 10 12 10q48 0 83.5 -0.5t54.5 -0.5q20 0 46.5 0.5t71.5 0.5q10 0 10 -11q0 -12 -10 -12q-51 0 -74.5 -20t-25.5 -65l-21 -475l270 390q34 50 49.5 81.5
t15.5 52.5q0 17 -11 27.5t-36 10.5q-9 0 -11.5 2.5t-2.5 8.5q0 10 12 10h46.5t32 -0.5t23.5 -0.5h19q31 0 58 1t52 1q14 0 14 -11q0 -8 -3.5 -10.5t-16.5 -2.5q-34 0 -85.5 -39t-117.5 -133z" />
    <glyph glyph-name="W" unicode="W" horiz-adv-x="936" 
d="M192 -4q-4 -5 -9.5 -9t-10.5 -4q-14 0 -14 20l20 568q1 20 -1.5 39t-9.5 34t-20.5 24t-34.5 9q-12 0 -12 11q0 10 12 10q48 0 83.5 -0.5t54.5 -0.5q20 0 44 0.5t68 0.5q10 0 10 -11q0 -12 -10 -12q-51 0 -71.5 -20t-22.5 -65l-20 -460l233 338l5 103q1 20 0 39t-6 34
t-17 24t-33 9q-12 0 -12 11q0 10 12 10q48 0 78.5 -0.5t49.5 -0.5q20 0 46.5 0.5t71.5 0.5q10 0 10 -11q0 -12 -10 -12q-51 0 -74.5 -20t-25.5 -65l-21 -447l244 362q34 50 45 81.5t11 52.5q0 17 -11 27.5t-36 10.5q-9 0 -11.5 2.5t-2.5 8.5q0 10 12 10h46.5t32 -0.5
t23.5 -0.5h19q31 0 58 1t52 1q14 0 14 -11q0 -8 -3.5 -10.5t-16.5 -2.5q-34 0 -82 -39t-112 -133l-345 -509q-5 -7 -9.5 -9t-9.5 -2q-15 0 -13 20l18 402z" />
    <glyph glyph-name="X" unicode="X" horiz-adv-x="724" 
d="M199 141q-21 -24 -35 -43.5t-14 -37.5q0 -20 17 -29.5t42 -9.5q9 0 11.5 -3.5t2.5 -8.5q0 -10 -12 -10h-56t-39 0.5t-27 0.5h-20q-32 0 -62 -1t-61 -1q-14 0 -14 11q0 8 3.5 10t12.5 4q43 8 88.5 26.5t76.5 51.5l217 237l-98 252q-17 43 -39.5 64.5t-65.5 21.5
q-13 0 -13 11t12 11q29 0 60.5 -1t81.5 -1q29 0 59.5 1t62.5 1q10 0 10 -11q0 -13 -16 -13q-9 0 -20.5 -0.5t-22.5 -3.5t-18.5 -8.5t-7.5 -14.5q0 -16 7.5 -39.5t17.5 -49.5l58 -161l126 148q30 35 47 58t17 37q0 22 -17.5 29t-41.5 7q-9 0 -11.5 3t-2.5 8q0 11 12 11
q33 0 55 -0.5t37.5 -0.5t26 -0.5t20.5 -0.5q32 0 57 1.5t49 1.5q14 0 14 -12q0 -7 -3 -9.5t-13 -4.5q-30 -5 -58 -17t-54 -29.5t-49.5 -39.5t-43.5 -45l-154 -175l102 -260q15 -38 39.5 -61.5t64.5 -23.5q14 0 14 -13q0 -10 -12 -10q-14 0 -28.5 0.5t-31 0.5t-36.5 0.5
t-45 0.5q-29 0 -58 -1t-60 -1q-12 0 -12 11q0 7 3.5 10t8.5 3q10 0 22.5 0.5t23 3.5t17.5 8.5t7 14.5q0 14 -7 36.5t-17 49.5l-63 172z" />
    <glyph glyph-name="Y" unicode="Y" horiz-adv-x="688" 
d="M323 113q-5 -14 -7.5 -26t-2.5 -20q0 -25 21.5 -35t69.5 -10q8 0 11 -3.5t3 -8.5q0 -6 -3 -9t-13 -3q-40 0 -77.5 1t-77.5 1q-29 0 -59 -1.5t-61 -1.5q-14 0 -14 12q0 5 3.5 9.5t14.5 4.5q33 0 55.5 12.5t33.5 44.5l80 240l-96 270q-16 45 -36 65.5t-61 20.5
q-12 0 -12 11t11 11q29 0 60.5 -1t81.5 -1q29 0 58.5 1t60.5 1q10 0 10 -11q0 -13 -10 -13q-11 0 -24.5 -0.5t-25 -3.5t-19.5 -8.5t-8 -14.5q0 -14 6 -33.5l14 -45.5l68 -212l171 188q29 32 46.5 56.5t17.5 37.5q0 22 -20.5 29.5t-45.5 7.5q-9 0 -11.5 3t-2.5 8q0 12 12 12
q16 0 37 -0.5t42 -0.5t39 -0.5t28 -0.5q31 0 55 1t50 1q12 0 12 -12q0 -7 -2.5 -9.5t-11.5 -4.5q-31 -5 -58 -17t-52 -29t-47 -38.5t-43 -43.5l-203 -221z" />
    <glyph glyph-name="Z" unicode="Z" horiz-adv-x="608" 
d="M-30 0q-5 0 -7 3t-2 6q0 7 6 15l528 648h-235q-14 0 -24 -11l-100 -106q-16 -16 -25 -16q-8 0 -10 3t-2 8t1 9t2 6l54 120q3 7 6.5 10t11.5 3h419q14 0 14 -13q0 -9 -7 -18l-526 -641h252q62 0 106 33t79 86q11 16 15.5 21t10.5 5q7 0 9.5 -4.5t2.5 -9.5q0 -6 -7 -22
l-58 -124q-2 -5 -5 -8t-10 -3h-499z" />
    <glyph glyph-name="bracketleft" unicode="[" horiz-adv-x="318" 
d="M-53 -116l296 862h152q13 0 13 -12q0 -13 -22 -14l-64 -3q-14 -1 -24.5 -8.5t-16.5 -24.5l-254 -738q-3 -9 -3 -15q0 -17 21 -18l63 -3q13 -1 13 -12q0 -14 -23 -14h-151z" />
    <glyph glyph-name="backslash" unicode="\" horiz-adv-x="460" 
d="M285 -85l-150 817h53l149 -817h-52z" />
    <glyph glyph-name="bracketright" unicode="]" horiz-adv-x="291" 
d="M-127 -116q-13 0 -13 12q0 13 22 14l64 3q14 1 24.5 8.5t16.5 24.5l254 738q3 9 3 15q0 16 -21 18l-63 3q-13 1 -13 12q0 14 23 14h151l-296 -862h-152z" />
    <glyph glyph-name="asciicircum" unicode="^" horiz-adv-x="524" 
d="M88 332l185 379h36l184 -379h-52l-149 307h-4l-147 -307h-53z" />
    <glyph glyph-name="underscore" unicode="_" 
d="M0 -174v32h500v-32h-500z" />
    <glyph glyph-name="grave" unicode="`" 
d="M216 590l-29 29q-9 9 -11.5 19.5t1 19.5t11.5 15t19 6q8 0 16.5 -3.5t13.5 -11.5q24 -38 51.5 -80.5t48.5 -80.5q5 -10 -2.5 -15.5t-15.5 2.5q-15 16 -33 33t-35.5 34t-34.5 33z" />
    <glyph glyph-name="a" unicode="a" horiz-adv-x="437" 
d="M202 130q-14 -21 -32.5 -45t-41 -45t-47.5 -35t-53 -14t-46.5 14.5t-18.5 52.5q0 32 13.5 72.5t37 83t54.5 83.5t66.5 73t73.5 51.5t74 19.5q17 0 30.5 -7.5t19.5 -18.5q4 8 8 12.5t12 4.5q5 0 18 0.5t18 0.5q16 0 16 -7q0 -3 -3 -9q-33 -78 -72 -163t-72 -170l-4 -12
t-3 -17q0 -9 7 -9q12 0 33 26t47 61q4 6 9 6t8 -4t1 -8q-19 -30 -40.5 -58t-55.5 -53q-10 -8 -26 -14.5t-33 -6.5q-11 0 -18 6.5t-7 19.5q0 28 9 50.5t23 55.5zM207 174q22 34 34 57q16 27 27 50t23 52q14 37 14 56q0 10 -6 20.5t-24 10.5q-20 0 -45.5 -19.5t-52 -50.5
t-52 -70.5t-45.5 -79.5t-32.5 -76.5t-12.5 -62.5q0 -29 25 -29q22 0 48.5 22.5t52 54.5t46.5 65z" />
    <glyph glyph-name="b" unicode="b" horiz-adv-x="407" 
d="M175 379q30 30 59 46t61 16q13 0 26 -4t23.5 -12.5t17.5 -22.5t7 -34q0 -31 -13 -71.5t-36 -82.5t-53.5 -82t-65 -71.5t-72 -50.5t-73.5 -19q-44 0 -63.5 18.5t-19.5 49.5q0 22 7.5 50t20.5 58l196 447q2 5 4 12t2 13q0 8 -3 13.5t-14 8.5q-13 5 -21.5 5.5t-20.5 2.5
q-11 2 -9 11.5t13 9.5q26 -1 63 -1.5t72 1.5q8 1 11 -1.5t-1 -12.5q-29 -73 -59.5 -144.5t-64.5 -148.5zM45 27q7 -10 24 -10q20 0 44.5 20t50 52t50 72.5t43 81t30 77.5t11.5 63q0 31 -28 31q-16 0 -40 -18.5t-49.5 -48.5t-50 -67.5t-42.5 -74.5q-8 -15 -16.5 -34.5
t-15.5 -40t-12 -41.5t-5 -39q0 -13 6 -23z" />
    <glyph glyph-name="c" unicode="c" horiz-adv-x="344" 
d="M7 9q-13 11 -21 29t-8 47q0 33 10.5 72t29.5 79t45 76.5t57 65.5t66.5 46t72.5 17q14 0 27.5 -2.5t24.5 -8.5t18 -16t7 -26q0 -15 -12 -27.5t-31 -12.5q-18 0 -28 9t-10 23q0 8 3 16.5t3 14.5q0 9 -13 9q-21 0 -44 -18t-45.5 -47.5t-43 -66.5t-36 -74.5t-24.5 -73
t-9 -60.5q0 -28 10 -44.5t33 -16.5q29 0 61.5 23t67.5 72q6 8 12 8q8 0 11.5 -6t-1.5 -13q-12 -17 -28 -37t-37 -36.5t-47.5 -27.5t-58.5 -11q-17 0 -33 4t-29 14z" />
    <glyph glyph-name="d" unicode="d" horiz-adv-x="436" 
d="M202 130q-14 -21 -32.5 -45t-40 -45t-46.5 -35t-53 -14q-31 0 -49 14.5t-18 52.5q0 30 13.5 70.5t36.5 83t54 83.5t66.5 73.5t74 52.5t76.5 20q15 0 29.5 -2t22.5 -4l80 185q2 5 4 12t2 13q0 17 -17 22q-13 5 -21.5 5.5t-21.5 2.5q-8 1 -7.5 8t11.5 7q26 -1 62.5 -1.5
t72.5 1.5q8 1 11 -1.5t-2 -12.5q-26 -65 -55 -133.5t-55 -125.5q-35 -77 -72.5 -162.5t-70.5 -170.5l-4 -12t-3 -17q0 -9 7 -9q12 0 33 26t47 61q4 6 9 6t8 -4t1 -8q-19 -30 -40.5 -58t-55.5 -53q-10 -8 -26 -14.5t-33 -6.5q-11 0 -18 6.5t-7 19.5q0 28 9 50.5t23 55.5z
M207 174q22 34 34 57q16 27 27 50t23 52q14 37 14 56q0 10 -5 20.5t-23 10.5q-20 0 -46 -19.5t-53 -50.5t-52.5 -70t-45.5 -78.5t-32.5 -76t-12.5 -62.5q0 -31 25 -31q22 0 48.5 22.5t52 54.5t46.5 65z" />
    <glyph glyph-name="e" unicode="e" horiz-adv-x="337" 
d="M165 228q-45 -25 -96 -49q-10 -32 -15 -57t-5 -46q0 -26 8.5 -39t30.5 -13q23 0 58 26.5t65 78.5q6 12 15 12q7 0 10 -5t-1 -12q-12 -23 -29 -46.5t-39 -43t-48 -31.5t-57 -12q-13 0 -28 3.5t-27.5 13t-20.5 26.5t-8 43q0 34 10.5 74t29 80.5t43.5 78t54.5 67t62.5 47
t67 17.5q37 0 54.5 -14.5t17.5 -37.5q0 -28 -20 -55.5t-53.5 -54t-78.5 -51.5zM111 282q-19 -39 -33 -78q29 16 61.5 38t60 47t45.5 51.5t18 52.5q0 14 -8 21t-19 7q-19 0 -40.5 -19.5t-43 -50t-41.5 -69.5z" />
    <glyph glyph-name="f" unicode="f" horiz-adv-x="278" 
d="M26 386l13 40h77l22 67q12 38 30 76t43 68t59 49t78 19q14 0 30.5 -4.5t31 -13t24.5 -20.5t10 -27q0 -14 -9 -23t-24 -9q-17 0 -25.5 8.5t-18.5 23.5q-12 20 -22 28.5t-25 8.5q-20 0 -34 -11t-24.5 -28t-18 -37.5t-13.5 -40.5l-42 -135h101l-11 -39h-102
q-21 -60 -41.5 -120t-39 -114t-34.5 -98.5t-28 -72.5q-14 -35 -31 -65.5t-38.5 -53t-50 -35t-66.5 -12.5q-20 0 -39 4.5t-33.5 13t-23 20.5t-8.5 27q0 14 9.5 24t26.5 10q16 0 24 -8.5t18 -25.5q12 -20 22 -28.5t26 -8.5q19 0 33.5 10.5t25 27t18.5 37t14 39.5l144 429h-78z
" />
    <glyph glyph-name="g" unicode="g" horiz-adv-x="393" 
d="M-27 -29q21 10 40 19q-23 8 -34 19.5t-11 29.5q0 14 8 29t20.5 29t26.5 27.5t26 24.5q-17 13 -28.5 32.5t-11.5 55.5q0 37 14 73.5t40 65.5t62 47t80 18q23 0 45 -9.5t34 -31.5q23 19 46 32.5t45 13.5q15 0 25 -8t10 -22q0 -15 -10 -24.5t-26 -9.5t-28.5 5t-26.5 5
q-13 0 -25 -8q4 -13 4 -29q0 -38 -15 -77t-42 -70.5t-65.5 -51.5t-84.5 -20q-10 0 -19 3q-17 -16 -30.5 -31.5t-13.5 -31.5q0 -18 22.5 -28.5t81.5 -25.5q63 -16 94.5 -35.5t31.5 -58.5q0 -37 -19 -61t-48 -38t-63.5 -19.5t-66.5 -5.5q-26 0 -55.5 3.5t-55 12t-42.5 23.5
t-17 39q0 20 12 36.5t30 29.5t40 23zM73 168q7 -11 24 -11q28 0 54 24t45.5 58.5t31 72t11.5 64.5q0 20 -8 33.5t-26 13.5q-29 0 -54.5 -25.5t-44 -61.5t-29 -74.5t-10.5 -64.5q0 -18 6 -29zM41 -19q-12 -6 -27.5 -14.5t-28.5 -20.5t-22 -26.5t-9 -32.5q0 -19 11 -30.5
t28.5 -18t38.5 -8.5t42 -2q69 0 100.5 20.5t31.5 47.5q0 25 -18.5 37.5t-54.5 23.5z" />
    <glyph glyph-name="h" unicode="h" horiz-adv-x="438" 
d="M133 269q32 43 60 77.5t61 64.5q22 20 41 25t38 5q20 0 34 -10.5t14 -30.5t-6 -35q-15 -42 -30 -79t-30 -72.5t-30.5 -70.5t-32.5 -73q-5 -10 -6 -16.5t8 -6.5q6 0 19.5 12t27.5 27.5t26 30t16 19.5l7.5 9t7.5 3q8 0 8.5 -6t-2.5 -11q-26 -34 -55 -66.5t-64 -54.5
q-20 -12 -45 -12q-32 0 -32 30q0 13 7 28q28 69 60.5 141t63.5 147q4 10 6.5 20.5t2.5 19.5q0 8 -2.5 14t-10.5 6q-18 0 -35 -16q-11 -10 -32 -33t-44 -51t-44 -56.5t-33 -50.5q-26 -48 -48.5 -93.5t-43.5 -93.5q-2 -4 -4 -6.5t-9 -3.5q-10 -1 -22 -1.5t-16 -0.5
q-16 0 -16 7q0 3 3 9l253 600q2 5 4 12t2 13q0 17 -17 22q-13 4 -23.5 5t-22.5 3q-8 1 -6.5 11t11.5 10q26 -1 64.5 -1.5t74.5 1.5q8 1 10.5 -1.5t-1.5 -12.5t-17 -42t-31 -74.5t-38.5 -90t-38.5 -89t-31 -71.5t-16 -37z" />
    <glyph glyph-name="i" unicode="i" horiz-adv-x="250" 
d="M205 408q0 -14 -7 -29q-29 -77 -66.5 -154.5t-69.5 -152.5q-5 -10 -6 -18.5t8 -8.5q6 0 18 10t25.5 23.5t25.5 27.5t18 22q7 12 13 12t9.5 -5t-0.5 -10q-29 -42 -57 -67.5t-60 -45.5q-10 -6 -23.5 -10t-27.5 -4q-12 0 -20.5 8t-8.5 22q0 11 6 28q14 33 31.5 71t36.5 77.5
t37 79t34 76.5q3 7 5 12t2 10q0 10 -9 10q-6 0 -18.5 -10t-26.5 -26t-28.5 -35t-26.5 -38q-5 -7 -12 -7q-6 0 -9 4.5t0 9.5q21 35 53 71t65 59q29 21 57 21q11 0 21.5 -7.5t10.5 -25.5zM211 608q-20 0 -34 14t-14 34t14 34.5t34 14.5t34.5 -14.5t14.5 -34.5t-14.5 -34
t-34.5 -14z" />
    <glyph glyph-name="j" unicode="j" horiz-adv-x="233" 
d="M-208 -172q-21 13 -21 38q0 23 13.5 34t27.5 11q16 0 26.5 -8t10.5 -26q0 -4 -1 -10.5t-1 -13t2.5 -11t9.5 -4.5q12 0 24.5 10.5t23.5 27t20.5 35t17.5 35.5t21.5 49.5t30 72.5t34.5 84.5t35 86.5q11 28 24 58t27 63q3 7 5 12t2 10q0 10 -9 10q-6 0 -18.5 -10t-26.5 -26
t-28.5 -35t-26.5 -38q-5 -7 -12 -7q-6 0 -9 4.5t0 9.5q21 35 53 71t65 59q29 21 57 21q11 0 21.5 -7.5t10.5 -25.5q0 -14 -7 -29q-8 -20 -13.5 -35t-11 -28t-11 -25.5t-11.5 -28.5q-17 -42 -36.5 -89t-38.5 -90.5t-35 -79.5t-26 -55q-32 -62 -75 -97.5t-88 -35.5
q-35 0 -56 13zM171 622q-14 14 -14 34t14.5 34.5t34.5 14.5t34.5 -14.5t14.5 -34.5t-14.5 -34t-34.5 -14t-35 14z" />
    <glyph glyph-name="k" unicode="k" horiz-adv-x="417" 
d="M167 344q11 12 27.5 29t38 32t47 25.5t54.5 10.5q25 0 42.5 -13.5t17.5 -42.5q0 -36 -23.5 -66t-63.5 -55q-29 -17 -64 -29t-67 -18q4 -21 14.5 -54.5t22.5 -65.5q10 -26 16 -34t14 -8q6 0 15.5 6t19 15t17.5 18.5t13 15.5t7.5 8t5.5 2q5 0 8.5 -4.5t-0.5 -10.5
q-8 -13 -22.5 -31t-32.5 -35t-37 -29t-36 -12q-18 0 -26 8t-13 22q-16 42 -31 86t-29 87q-21 -48 -42 -95.5t-41 -95.5q-2 -4 -4.5 -6.5t-8.5 -3.5q-11 -1 -24.5 -1h-17.5q-8 0 -12 0.5t-4 5.5q0 3 3 9l246 600q2 5 4 12t2 13q0 8 -3 13.5t-14 8.5q-13 4 -23 5t-23 3
q-8 1 -6 11t13 10q26 -1 64.5 -1.5t73.5 1.5q8 1 11 -1.5t-1 -12.5q-34 -86 -67 -167t-67 -161zM155 290q-22 -28 -40 -58q34 3 71.5 13t69 26t52 37.5t20.5 47.5q0 14 -6.5 24t-26.5 10q-26 0 -50 -16t-44 -35q-23 -21 -46 -49z" />
    <glyph glyph-name="l" unicode="l" horiz-adv-x="234" 
d="M-14 -2q-33 0 -33 30q0 13 7 28q9 22 20 47.5t25.5 58t32.5 74t41.5 96t53.5 124t67 157.5q2 5 4.5 12t2.5 13q0 8 -3.5 13.5t-14.5 8.5q-13 4 -23 5t-23 3q-8 1 -6.5 11.5t13.5 10.5q26 -1 64.5 -1.5t74.5 1.5q8 1 10.5 -1.5t-1.5 -12.5q-14 -37 -34 -84t-42.5 -100
t-47 -109.5t-48.5 -111t-46 -104.5t-40 -91q-4 -10 -6 -18.5t6 -8.5q6 0 22 15t33 34t31.5 37t18.5 23q9 12 14 12q8 0 10.5 -5.5t-0.5 -9.5q-10 -14 -25.5 -34t-34.5 -40.5t-38.5 -39t-36.5 -29.5q-10 -6 -22.5 -10t-25.5 -4z" />
    <glyph glyph-name="m" unicode="m" horiz-adv-x="697" 
d="M123 210q32 51 73 103.5t83 94.5q22 21 42.5 27t40.5 6q18 0 31.5 -10t13.5 -32q0 -8 -2 -17t-7 -26q-5 -20 -20.5 -60.5t-37.5 -91.5l6 -3q13 19 32 46t41.5 55.5t46.5 55.5t48 47q23 20 42 28t38 8t32 -8.5t13 -29.5q0 -25 -10 -49q-16 -39 -31.5 -74t-30.5 -69
t-30 -68.5t-31 -71.5q-5 -10 -6 -18.5t8 -8.5q6 0 19.5 12t27.5 27t26 29.5t16 20.5q8 11 13 11q6 0 9 -5t0 -9q-21 -31 -50 -63t-64 -55q-13 -8 -24 -11t-25 -3q-16 0 -25.5 8t-9.5 22q0 13 7 28q33 72 63 139.5t63 142.5q10 22 10 40q0 8 -2.5 14t-10.5 6t-17 -5.5
t-18 -13.5q-14 -13 -41 -44t-58 -70t-61 -81t-49 -77q-13 -23 -26 -48t-25 -49q-2 -4 -4 -6.5t-9 -3.5q-11 -1 -22.5 -1.5t-15.5 -0.5q-14 0 -15.5 6t3.5 15q15 27 34 70t37.5 89.5t35 89t25.5 68.5q3 10 5.5 22.5t2.5 21.5q0 18 -15 18q-14 0 -34 -18q-11 -10 -33.5 -36
t-48 -57t-48 -61.5t-33.5 -48.5q-27 -45 -46.5 -82.5t-39.5 -84.5q-2 -4 -4.5 -6.5t-8.5 -3.5q-11 -1 -22.5 -1.5t-16.5 -0.5q-15 0 -15 7q0 1 2 9q34 78 73 168.5t71 175.5q4 12 4 22q0 12 -10 12q-6 0 -16.5 -10t-23.5 -26t-26 -35.5t-25 -38.5q-5 -6 -11 -6t-9 5t1 11
q21 34 47.5 69.5t60.5 60.5q11 8 24 13.5t27 5.5q11 0 20 -5.5t9 -19.5q0 -16 -8 -43.5t-19 -57t-23 -57.5t-19 -45z" />
    <glyph glyph-name="n" unicode="n" horiz-adv-x="451" 
d="M137 244q26 38 55 78.5t71 82.5q22 21 43 28.5t42 7.5q19 0 32 -10t13 -32q0 -14 -5 -31q-24 -78 -58.5 -150.5t-66.5 -147.5q-5 -10 -6.5 -18.5t7.5 -8.5q7 0 20 12t26.5 27.5t25.5 30t16 20.5q5 5 7 7.5t5 2.5q4 0 8.5 -4t-0.5 -11q-23 -35 -52 -65.5t-58 -49.5
q-14 -8 -27 -11.5t-23 -3.5q-34 0 -34 30q0 11 6 28q29 69 63 140t64 146q10 22 10 42q0 18 -16 18q-10 0 -18 -5.5t-17 -13.5q-11 -10 -31.5 -35t-42.5 -54t-42.5 -58t-30.5 -47q-26 -45 -47 -88t-41 -91q-2 -4 -4.5 -6.5t-8.5 -3.5q-11 -1 -22.5 -1.5t-16.5 -0.5
q-15 0 -15 7q0 1 2 9q34 78 73 169t71 176q4 12 4 22q0 12 -10 12q-5 0 -15.5 -10t-23 -26t-26 -35.5t-25.5 -38.5q-5 -6 -10 -6q-7 0 -9.5 5t0.5 10q8 13 19.5 30t25 35t29.5 35.5t33 29.5q11 8 24 13.5t27 5.5q11 0 20 -5.5t9 -19.5q0 -16 -5.5 -38.5t-14 -46t-17.5 -46
t-16 -39.5z" />
    <glyph glyph-name="o" unicode="o" horiz-adv-x="381" 
d="M37 -3q-16 5 -29.5 19.5t-21.5 39t-8 63.5q0 29 9 64t25 70.5t39 69.5t52 60t62.5 42t70.5 16q19 0 36 -5t29.5 -19t19.5 -38t7 -62q0 -29 -9 -64.5t-25.5 -72t-40 -70.5t-52 -60.5t-61 -42.5t-68.5 -16q-18 0 -35 6zM42 28q9 -16 29 -16q22 0 46.5 20.5t47.5 53.5
t43.5 73.5t36.5 80.5t25 74.5t9 55.5q0 17 -6.5 33.5t-29.5 16.5q-21 0 -44.5 -17t-47 -45t-45 -64.5t-38 -75t-26 -76.5t-9.5 -69q0 -29 9 -45z" />
    <glyph glyph-name="p" unicode="p" horiz-adv-x="430" 
d="M9 -105q-5 -13 -5 -22q0 -20 18 -28q11 -5 24.5 -5.5t27.5 -0.5q8 0 8 -9q0 -5 -3 -8.5t-10 -3.5q-28 0 -56.5 1t-56.5 1q-12 0 -27 -0.5t-29.5 -1t-26 -1t-17.5 -0.5q-13 0 -13 10q0 5 3.5 9t9.5 4q31 0 49.5 13.5t26.5 33.5l201 517q-14 -6 -29.5 -18.5t-30.5 -27
t-29 -30.5t-25 -29q-3 -3 -6.5 -6t-8.5 -3q-7 0 -9 5.5t1 10.5q6 9 19.5 25.5t32.5 35t42.5 36.5t50.5 29q6 15 11 30t11 30q3 10 7 13.5t11 7.5q12 6 28 11.5t25 8.5q8 3 13 0.5t0 -14.5q-3 -8 -8 -19.5t-9.5 -24t-9 -24t-6.5 -18.5q79 -3 117 -42t38 -105q0 -47 -18 -99
t-51 -95.5t-79 -72t-102 -28.5q-44 0 -69 14zM72 64q-5 -13 -5 -22q0 -17 16 -22.5t32 -5.5q37 0 70 27.5t57.5 69t39 89.5t14.5 90q0 20 -3.5 41t-13.5 38.5t-28 29t-47 11.5z" />
    <glyph glyph-name="q" unicode="q" horiz-adv-x="402" 
d="M178 -95q-2 -5 -5 -17t-3 -20q0 -11 6 -16.5t14 -7.5q11 -3 22.5 -4t22.5 -1q10 0 10 -10q0 -4 -2.5 -7.5t-7.5 -3.5q-28 0 -57 1t-56 1q-12 0 -28.5 -0.5t-32 -1.5t-28.5 -1h-19q-11 0 -11 10q0 5 3 9t11 4q32 0 53.5 13.5t29.5 33.5l53 135q-26 -16 -46.5 -23.5
t-43.5 -7.5q-14 0 -30 3.5t-29.5 15t-22 32t-8.5 53.5q0 30 9.5 67.5t27 76t42 75t54.5 65t64.5 45.5t71.5 17q39 0 59 -30l7 12q5 9 12 9q17 2 31 3t19 1q9 0 9 -8q0 -6 -3 -12zM40 23q7 -11 26 -11q25 0 50 24t46.5 56t38 64.5t24.5 50.5q3 7 11 27t16.5 46t15 53.5
t6.5 48.5q0 16 -5.5 26t-17.5 10q-21 0 -45 -18.5t-48.5 -48.5t-47 -68.5t-39.5 -79t-27.5 -79.5t-10.5 -70q0 -19 7 -31z" />
    <glyph glyph-name="r" unicode="r" horiz-adv-x="383" 
d="M168 309q13 21 29 44t35 42.5t42 32.5t52 13q24 0 41.5 -13.5t17.5 -36.5q0 -21 -12.5 -33.5t-31.5 -12.5t-26.5 8t-8.5 21q-1 11 -6 18.5t-16 7.5q-10 0 -17 -5t-16 -13q-11 -11 -27.5 -31.5t-33.5 -45t-33 -49t-26 -43.5q-24 -47 -49.5 -101.5t-46.5 -101.5
q-2 -4 -4.5 -6.5t-8.5 -3.5q-11 -1 -22.5 -1h-16.5q-14 0 -14 10q0 4 1 6q16 36 34 78t37 86.5t36.5 87.5t31.5 80q6 17 7.5 23.5t1.5 11.5q0 11 -9 11q-6 0 -16.5 -10.5t-23 -26t-25.5 -34.5t-25 -37q-6 -8 -11 -8q-8 0 -10 5t0 9q22 37 50.5 73t60.5 60q11 8 24 12.5
t27 4.5q11 0 20 -7t9 -26q0 -20 -7 -44.5t-18 -50.5z" />
    <glyph glyph-name="s" unicode="s" horiz-adv-x="296" 
d="M-43 9q-34 19 -34 48q0 15 10 25t24 10q15 0 25 -8.5t21 -31.5q8 -17 22.5 -27.5t34.5 -10.5q13 0 26 3t23.5 10.5t17 20t6.5 32.5q0 27 -12 51.5t-27 48.5t-27 49.5t-12 55.5q0 28 10.5 56t29 50.5t44 36t55.5 13.5q14 0 29.5 -3.5t29 -10t22 -15.5t8.5 -21
q0 -10 -7.5 -20.5t-24.5 -10.5q-13 0 -23 7.5t-19 17t-19.5 17t-23.5 7.5q-26 0 -42 -20t-16 -48q0 -25 13 -51t28 -53.5t28 -56.5t13 -59q0 -28 -10.5 -52t-29 -41t-45 -27t-57.5 -10q-57 0 -91 18z" />
    <glyph glyph-name="t" unicode="t" horiz-adv-x="279" 
d="M48 79q-5 -10 -6 -19.5t8 -9.5q6 0 21 11.5t31 26.5t30 29t18 20l7.5 7.5t7.5 2.5q7 0 9.5 -5t-0.5 -10q-26 -33 -59.5 -64.5t-68.5 -53.5q-10 -6 -23.5 -11t-30.5 -5q-12 0 -20.5 8t-8.5 22q0 11 6 28l144 330h-61l13 40h65q6 14 11.5 28t11.5 28q5 10 8.5 14t11.5 8
q6 3 14.5 6.5t17.5 7t16.5 6t10.5 2.5q7 0 7 -5q0 -4 -4 -13q-8 -18 -17.5 -39t-19.5 -44h93l-11 -39h-98z" />
    <glyph glyph-name="u" unicode="u" horiz-adv-x="453" 
d="M246 186q-26 -38 -54 -78.5t-73 -80.5q-23 -20 -42 -26.5t-37 -6.5q-19 0 -32 10t-13 32q0 8 2 17.5t5 17.5q27 72 56 146t55 148q4 10 4 18.5t-5 8.5q-7 0 -21 -14t-29 -32t-28 -35t-17 -23q-5 -5 -7 -7.5t-5 -2.5q-4 0 -8.5 4t0.5 11q12 18 26 36.5t30 36t31.5 32.5
t30.5 24q14 8 26.5 11.5t22.5 3.5q30 0 30 -30q0 -6 -1.5 -14.5t-4.5 -16.5q-24 -71 -52.5 -141t-58.5 -145q-10 -22 -10 -42q0 -18 14 -18q8 0 15.5 5.5t16.5 13.5q13 12 34 37t43 54t41.5 58t30.5 47q26 45 46 86t40 89q2 4 4.5 6.5t8.5 3.5q11 1 22.5 1.5t16.5 0.5
q15 0 15 -7q0 -1 -2 -9q-17 -39 -35.5 -82t-37 -88t-37 -89.5t-34.5 -85.5q-6 -14 -6 -22q0 -11 9 -11q5 0 14.5 8t21 21.5t24 30t24.5 34.5q4 6 10 6q7 0 9.5 -5t-0.5 -10q-16 -26 -42 -57.5t-60 -54.5q-11 -8 -24.5 -13.5t-31.5 -5.5q-11 0 -19 6.5t-8 20.5q0 16 7 37.5
t16.5 44t20 44.5t17.5 39z" />
    <glyph glyph-name="v" unicode="v" horiz-adv-x="492" 
d="M109 0q-22 9 -35.5 23t-19 32.5t-5.5 38.5q0 31 12 59.5t31 54.5q37 50 69 84.5t65 70.5q8 8 2.5 11t-10.5 3h-31.5h-34.5t-31 -0.5t-20 -1.5q-32 -4 -50 -19t-19 -44q0 -5 1 -9t5 -4t6.5 3.5t6.5 7.5t9.5 7.5t15.5 3.5q11 0 18.5 -9t7.5 -20q0 -18 -13.5 -29t-32.5 -11
q-14 0 -23.5 5t-15 12.5t-7.5 16.5t-2 17q0 22 10 44.5t30 41.5q20 18 43.5 28.5t47.5 12.5q11 1 34 1.5t47 1t44 0.5h24q11 0 11 -6t-6 -13q-6 -9 -12 -17.5t-13.5 -18t-17 -22t-24.5 -30.5q-21 -26 -41.5 -51t-36 -50t-25 -50.5t-9.5 -51.5q0 -73 73 -73q37 0 67.5 16
t55 41t42 55.5t29.5 59.5t18 52.5t6 35.5q0 22 -8.5 34t-18.5 21t-18.5 19t-8.5 27q0 15 11 25t28 10q15 0 26 -7t17.5 -18.5t10 -25.5t3.5 -28q0 -27 -8.5 -65t-25 -79.5t-41 -83t-56 -74.5t-69.5 -53.5t-82 -20.5q-33 0 -56 9z" />
    <glyph glyph-name="w" unicode="w" horiz-adv-x="693" 
d="M302 38q-6 13 -10 25q-9 -8 -23.5 -20t-33.5 -23.5t-42 -20t-47 -8.5q-30 0 -48.5 8.5t-29.5 22.5t-15 31.5t-4 34.5q0 44 20 81.5t47 70.5t56.5 63t53.5 58q8 8 4.5 12t-8.5 4h-32h-36t-33 -0.5t-21 -1.5q-32 -4 -50 -18.5t-18 -43.5q0 -5 1.5 -9t5.5 -4t6.5 3.5t6 7.5
t9 7.5t15.5 3.5q11 0 18.5 -9.5t7.5 -20.5q0 -18 -13 -29t-30 -11q-29 0 -40 17.5t-11 35.5q0 27 12 47t29 37q19 18 43 28t53 13q12 1 34 1.5t45.5 0.5h42h22.5q10 0 10 -6t-5 -13q-6 -9 -12 -17.5t-13.5 -18t-17.5 -22t-25 -30.5q-15 -19 -34 -42.5t-35.5 -50.5
t-27.5 -56.5t-11 -59.5t13 -52t48 -22q34 0 61.5 16.5t44.5 32.5q-5 28 -5 54q0 51 14.5 103t37.5 93t50.5 67t54.5 26q20 0 27.5 -17t7.5 -45q0 -26 -7.5 -59t-23 -68.5t-39.5 -71t-58 -67.5q8 -28 21.5 -47.5t44.5 -19.5q29 0 54.5 14.5t46.5 37.5t38 51.5t29 57.5t18 55
t6 43q0 26 -10 40t-22.5 24t-22.5 20t-10 28q0 15 8.5 25.5t27.5 10.5q18 0 30.5 -9.5t20.5 -24.5t12 -34t4 -37q0 -54 -19 -115.5t-52.5 -113.5t-79.5 -86.5t-101 -34.5q-24 0 -41 6.5t-28 17t-17 23.5zM337 134q19 21 34 47t25 52.5t15 52t5 45.5q0 47 -23 47
q-12 0 -23 -17t-18.5 -45.5t-12 -64.5t-4.5 -75q0 -11 0.5 -21t1.5 -21z" />
    <glyph glyph-name="x" unicode="x" horiz-adv-x="443" 
d="M258 72q2 -10 5.5 -17t11.5 -7q6 0 14.5 9t17 22.5t16 29t13.5 28.5q5 10 11 10q8 0 10.5 -5.5t0.5 -11.5q-6 -15 -18 -39t-28.5 -46t-36 -38t-41.5 -16q-20 0 -28 15t-15 42l-33 124q-15 -24 -37 -55.5t-46.5 -59.5t-49 -47t-44.5 -19q-18 0 -25.5 15t-7.5 34
q0 47 23 96q4 10 12 10t9.5 -5.5t-0.5 -10.5q-5 -11 -9 -24t-4 -30q0 -15 5 -23.5t19 -8.5q17 0 37.5 17.5t41.5 42.5t39.5 52.5t30.5 46.5l-40 154q-5 18 -9.5 25t-10.5 7q-7 0 -15 -8.5t-16.5 -22.5t-17.5 -32t-16 -36q-3 -8 -10 -8q-8 0 -9.5 5t0.5 10q8 27 20.5 53
t28 46.5t34 32.5t39.5 12q17 0 26 -13.5t17 -41.5l30 -123q16 26 37.5 57t45 58t47.5 45t45 18q18 0 25.5 -15.5t7.5 -33.5q0 -24 -5 -48.5t-19 -48.5q-2 -4 -6 -7.5t-9 -3.5q-6 0 -8.5 5t1.5 13q5 11 10 24.5t5 30.5q0 15 -5.5 24t-20.5 9q-18 0 -38 -17t-39.5 -41.5
t-36.5 -51t-29 -45.5z" />
    <glyph glyph-name="y" unicode="y" horiz-adv-x="393" 
d="M212 49q9 17 15 33t14 33q16 36 26 63t16 47.5t8 36t2 27.5q0 19 -3 34t-6 28.5t-6 25.5t-3 25q0 43 42 43q20 0 29 -14t9 -37q0 -26 -14 -79t-38.5 -117.5t-58.5 -132.5t-73.5 -123.5t-83.5 -91t-89 -35.5q-42 0 -58.5 15.5t-16.5 33.5q0 20 12.5 30t27.5 10t24 -8
t15.5 -17t13.5 -17t19 -8q11 0 25.5 7t29 20.5t26.5 32.5t18 43q5 23 6.5 49.5t1.5 57.5q0 64 -8 129.5t-15 120.5q-6 45 -14.5 60.5t-18.5 15.5q-7 0 -17 -13t-20.5 -32t-20 -41t-15.5 -41q-2 -5 -4 -8t-8 -3q-13 0 -10 17q7 27 20 57.5t30.5 56t37.5 42t41 16.5
q44 0 59 -82q14 -72 20.5 -151t5.5 -156z" />
    <glyph glyph-name="z" unicode="z" horiz-adv-x="427" 
d="M95 132q29 -14 47 -31t33 -31.5t30.5 -24.5t39.5 -10q15 0 29 7t25 18t17.5 26t6.5 30q0 9 -3.5 15t-13.5 6q-9 0 -19.5 -6t-26.5 -6q-17 0 -25 11t-8 23q0 19 13.5 29t33.5 10q29 0 51.5 -17.5t22.5 -51.5q0 -27 -12 -51.5t-32.5 -44t-47 -31t-55.5 -11.5q-30 0 -51 14
t-38 31t-31.5 31t-30.5 14q-20 0 -34 -18t-24 -39q-9 -19 -20.5 -26t-22.5 -7q-9 0 -16 5.5t-7 16.5t6 19.5t14 14.5q16 11 28.5 21t24.5 20t24 21.5t27 25.5l220 206q-23 9 -39.5 21t-31.5 22t-31.5 17t-40.5 7q-10 0 -21 -5t-20 -13t-15 -19t-6 -24q0 -16 8.5 -18.5
t22.5 -2.5t22 -9t8 -22q0 -18 -13 -28t-31 -10q-25 0 -38 17t-13 41q0 25 12 48t32 40.5t45 27.5t52 10q29 0 49 -7.5t36 -17t29.5 -17t30.5 -7.5q15 0 26 10.5t15 24.5q10 29 33 29q24 0 24 -21q0 -13 -17 -25q-26 -18 -45 -34.5t-40 -36.5z" />
    <glyph glyph-name="braceleft" unicode="{" horiz-adv-x="308" 
d="M-25 -59q0 20 8 47q9 24 22 55.5t26.5 65t25.5 64.5t20 53q10 29 10 49q0 21 -13 36.5t-38 23.5q-7 2 -9 5.5t-2 7.5q0 13 21 16q22 3 38.5 8t29.5 15.5t23 26.5t18 40q16 45 27 85.5t27 88.5q19 56 51.5 83t77.5 27q11 0 22.5 -2t21 -5.5t15.5 -8t6 -10.5
q0 -8 -5.5 -10.5t-11.5 -2.5q-8 0 -14 1.5t-20 1.5q-29 0 -49.5 -18t-31.5 -51q-15 -44 -29.5 -93t-31.5 -100q-11 -30 -22 -47.5t-23.5 -28t-26 -15.5t-28.5 -9q15 -7 26 -21t11 -40q0 -20 -12 -56q-8 -25 -20.5 -57.5t-26 -65.5t-26 -64t-20.5 -53q-6 -20 -6 -34
q0 -35 39 -35q14 0 22 1.5t16 1.5q9 0 9 -8q0 -9 -8.5 -15t-21 -9.5t-26 -5t-23.5 -1.5q-33 0 -50.5 16.5t-17.5 46.5z" />
    <glyph glyph-name="bar" unicode="|" horiz-adv-x="323" 
d="M-30 -158l333 970h50l-333 -970h-50z" />
    <glyph glyph-name="braceright" unicode="}" horiz-adv-x="287" 
d="M128 307q14 5 29 9q-15 7 -26 21t-11 40q0 20 12 56q17 50 39.5 103t38.5 97q6 19 6 34q0 35 -39 35q-14 0 -22 -1.5t-16 -1.5q-9 0 -9 8q0 9 8.5 15t21 9.5t26 5t23.5 1.5q33 0 50.5 -16.5t17.5 -46.5q0 -20 -8 -47q-17 -48 -40.5 -100.5t-38.5 -97.5q-10 -29 -10 -49
q0 -21 13 -36.5t38 -23.5q7 -2 9 -5.5t2 -7.5q0 -13 -21 -16q-22 -3 -38.5 -8t-29.5 -15.5t-23 -26.5t-18 -40q-8 -22 -17 -49.5t-18 -56t-17.5 -56.5t-16.5 -52q-19 -56 -51.5 -83t-77.5 -27q-11 0 -22.5 2t-21 5.5t-15.5 8t-6 10.5q0 8 5.5 10.5t11.5 2.5q8 0 14 -1.5
t20 -1.5q29 0 49.5 18t31.5 51q7 22 17 51.5t20 61.5t20 63.5t19 56.5q10 30 21.5 47.5t24 28t25.5 15.5z" />
    <glyph glyph-name="asciitilde" unicode="~" horiz-adv-x="595" 
d="M81 274q-12 0 -16.5 6t-4.5 18q0 21 8.5 42t23.5 37t36.5 26t47.5 10q31 0 70.5 -12.5t78 -27.5t72.5 -27.5t55 -12.5q16 0 22 5.5t11 15.5q9 20 12 28.5t16 8.5q14 0 18 -7t4 -18t-6.5 -28t-18.5 -33t-30 -27.5t-40 -11.5q-33 0 -72.5 13t-79.5 29t-76.5 29t-62.5 13
q-19 0 -26.5 -11t-10.5 -28q-3 -16 -9 -26.5t-22 -10.5z" />
    <glyph glyph-name="uni00A0" unicode="&#xa0;" horiz-adv-x="184" 
 />
    <glyph glyph-name="exclamdown" unicode="&#xa1;" horiz-adv-x="203" 
d="M-70 -263q-22 0 -33.5 14.5t-5.5 35.5q8 26 25 69.5t44 110.5q17 42 35 84t33.5 77t27 60t14.5 31q3 7 6.5 11t9.5 4q10 0 10 -9q0 -5 -0.5 -6.5t-0.5 -3.5q-1 -6 -8 -37.5t-18 -75.5t-23.5 -95t-24 -97t-20 -81t-11.5 -47q-8 -31 -25 -38t-35 -7zM87 349q-13 13 -13 32
q0 23 17 41.5t42 18.5q23 0 34.5 -13.5t11.5 -32.5q0 -23 -16 -40.5t-43 -17.5q-20 0 -33 12z" />
    <glyph glyph-name="cent" unicode="&#xa2;" horiz-adv-x="524" 
d="M127 -46l36 100q-15 1 -30 6t-27 16t-19.5 28.5t-7.5 44.5q0 44 18.5 98.5t51 105t76.5 90t95 54.5l42 116h35l-39 -110q4 1 13 1q11 0 23 -2.5t21.5 -8t15.5 -14t6 -21.5q0 -15 -10.5 -26t-26.5 -11t-24 8t-8 20q0 7 2.5 13.5t2.5 11.5q0 9 -13 9q-7 0 -10 -1l-142 -398
q23 6 49.5 32.5t53.5 76.5q6 10 11 10q7 0 11.5 -5t0.5 -13q-9 -18 -21.5 -39t-29 -39t-37.5 -32t-48 -19l-36 -102h-35zM310 466q-30 -22 -59.5 -63.5t-52.5 -88.5t-37 -93t-14 -77q0 -21 6.5 -36.5t20.5 -21.5z" />
    <glyph glyph-name="sterling" unicode="&#xa3;" horiz-adv-x="518" 
d="M37 284l14 40h84q5 15 9.5 31.5t10.5 36t14 42.5t19 52q16 42 36.5 77.5t46.5 61.5t60 40.5t77 14.5q54 0 89.5 -31t35.5 -89q0 -22 -7 -43.5t-20 -38t-33 -27t-45 -10.5q-35 0 -55 21.5t-20 56.5q0 8 2.5 14t7.5 6t10 -12q1 -4 5 -11t11 -14t17.5 -12t25.5 -5
q27 0 47 21t20 58q0 40 -23.5 64t-67.5 24q-92 0 -139 -151q-15 -49 -28 -93t-25 -84h160l-11 -40h-161q-21 -60 -41.5 -106.5t-43.5 -82.5q45 -13 90.5 -24t90.5 -11q48 0 72.5 22.5t37.5 57.5q4 11 7 14t8 3t7.5 -3.5t2.5 -14.5q0 -32 -9 -60t-26.5 -50t-44 -34.5
t-62.5 -12.5q-29 0 -55.5 7.5t-51 18.5t-47.5 24.5t-45 25.5q-26 -38 -54.5 -57t-63.5 -19q-11 0 -23.5 3t-23 10.5t-17 19.5t-6.5 30q0 34 23 54.5t63 20.5q21 0 40.5 -4t30.5 -7q13 33 27.5 76t31.5 99h-85zM19 26q15 15 29 54q-14 5 -27 8.5t-24 3.5q-27 0 -36.5 -14
t-9.5 -28q0 -17 8 -28t25 -11q20 0 35 15z" />
    <glyph glyph-name="currency" unicode="&#xa4;" horiz-adv-x="577" 
d="M96 107l-48 48l67 66q-21 26 -31.5 58.5t-10.5 67.5q0 73 42 127l-67 65l48 48l66 -67q26 21 58.5 31.5t67.5 10.5q71 0 127 -41l65 66l48 -48l-67 -66q42 -53 42 -126q0 -71 -41 -126l66 -66l-48 -48l-66 67q-53 -42 -126 -42q-35 0 -67 10.5t-59 31.5zM186 240
q20 -20 46 -32t56 -12t56 12t46 32.5t31.5 48t11.5 58.5t-11.5 58.5t-31.5 48t-46 32.5t-56 12t-56 -12t-46 -32.5t-31.5 -48t-11.5 -58.5t11.5 -58.5t31.5 -48.5z" />
    <glyph glyph-name="yen" unicode="&#xa5;" horiz-adv-x="518" 
d="M44 201l11 32h133l25 76h-140l11 32h125l-51 205q-11 46 -29.5 66t-58.5 20q-12 0 -12 11t11 11q14 0 27 -0.5t28 -0.5t33.5 -0.5t43.5 -0.5q29 0 58.5 1t60.5 1q10 0 10 -11q0 -13 -10 -13q-11 0 -23.5 -0.5t-23.5 -3.5t-18.5 -8.5t-7.5 -14.5q0 -14 3.5 -33.5
t8.5 -45.5l36 -168l103 144q25 35 40 58.5t15 36.5q0 22 -18 29t-43 7q-9 0 -11.5 3t-2.5 8q0 12 12 12q16 0 37 -0.5t42 -0.5t39 -0.5t28 -0.5q15 0 24 0.5t16 0.5t14.5 0.5t20.5 0.5q12 0 12 -12q0 -7 -2.5 -9.5t-11.5 -4.5q-31 -5 -52.5 -14t-40 -24.5t-36 -37.5
t-39.5 -52l-116 -159h133l-11 -32h-143l-25 -76h150l-11 -32h-149l-28 -88q-5 -14 -7.5 -26t-2.5 -20q0 -25 21.5 -35t69.5 -10q8 0 11 -3.5t3 -8.5q0 -6 -3 -9t-13 -3q-40 0 -77.5 1t-77.5 1q-29 0 -59 -1.5t-61 -1.5q-14 0 -14 12q0 5 3.5 9.5t14.5 4.5q33 0 55.5 12.5
t33.5 44.5l40 121h-134z" />
    <glyph glyph-name="brokenbar" unicode="&#xa6;" horiz-adv-x="327" 
d="M-30 -159l134 392h51l-135 -392h-50zM189 480l117 337h51l-117 -337h-51z" />
    <glyph glyph-name="section" unicode="&#xa7;" horiz-adv-x="525" 
d="M355 152q-21 -20 -45 -38q6 -14 9.5 -27.5t3.5 -28.5q0 -38 -15.5 -68.5t-41.5 -51.5t-59.5 -32t-70.5 -11q-41 0 -70.5 8.5t-48.5 22t-27.5 28.5t-8.5 29q0 20 11 30t30 10q13 0 20.5 -4.5t12 -12t6.5 -16.5t5 -19q3 -9 7.5 -19t12.5 -17.5t20.5 -12.5t30.5 -5
q50 0 76.5 30t26.5 71q0 27 -12.5 51t-31.5 46.5t-41 44.5t-41 45.5t-31.5 48t-12.5 53.5t10 53.5t26.5 46.5t39 41.5t46.5 39.5q-7 14 -10.5 28.5t-3.5 31.5q0 38 16.5 68.5t44 51.5t64 32.5t76.5 11.5t68.5 -9.5t47 -23t27 -28.5t8.5 -27q0 -40 -39 -40q-13 0 -20.5 4.5
t-12.5 12t-8.5 17t-7.5 20.5q-7 19 -23.5 35.5t-48.5 16.5q-49 0 -77 -32t-28 -78q0 -24 12.5 -46t30.5 -43.5t40 -43.5t40 -45t30.5 -48.5t12.5 -53.5q0 -29 -10 -55t-27 -49t-39 -44zM249 192q25 -24 44 -51q32 29 45 56t13 62q0 30 -15.5 55.5t-37.5 50t-46.5 48.5
t-43.5 51q-26 -26 -42 -53t-16 -64q0 -30 15.5 -56t37.5 -50.5t46 -48.5z" />
    <glyph glyph-name="dieresis" unicode="&#xa8;" 
d="M333 545q-19 0 -29.5 11.5t-10.5 28.5q0 21 14 37t39 16q17 0 28.5 -11.5t11.5 -28.5q0 -20 -15 -36.5t-38 -16.5zM151 545q-19 0 -29.5 11.5t-10.5 28.5q0 21 14 37t39 16q17 0 28.5 -11.5t11.5 -28.5q0 -20 -15 -36.5t-38 -16.5z" />
    <glyph glyph-name="copyright" unicode="&#xa9;" horiz-adv-x="843" 
d="M566 158q-3 4 -5 4t-4 -1l-6 -3q-4 -3 -14.5 -9.5t-26.5 -12.5t-37.5 -11t-46.5 -5q-49 0 -91 14t-73 41t-49 67.5t-18 94.5q0 47 17 87.5t47.5 70.5t72 47.5t91.5 17.5q36 0 63.5 -8.5t58.5 -25.5q8 -5 13 -5q4 0 7 5l5 9q3 7 12 7q11 0 11 -10q1 -32 2 -62t3 -64
q0 -12 -13 -12q-11 0 -13 10q-3 12 -9.5 34.5t-22.5 45t-44 39t-73 16.5q-39 0 -67 -17.5t-46 -46t-26.5 -64.5t-8.5 -74q0 -35 9 -70t28 -63t48 -45.5t70 -17.5q48 0 75.5 20t42.5 43q11 18 16 35.5t8 28.5q2 8 6 9.5t9 1.5q4 0 8.5 -3.5t3.5 -12.5q0 -5 -0.5 -13.5
t-1 -17.5t-1 -17t-0.5 -12q0 -26 3 -56q1 -10 -11 -10q-7 0 -10 2.5t-5 5.5zM119 201q23 -59 65 -100t101.5 -63t132.5 -22q72 0 132 23t104 65t68.5 102t24.5 135q0 78 -24.5 139t-67.5 103t-102 63.5t-129 21.5t-130 -24t-104 -67.5t-69 -105t-25 -137.5q0 -74 23 -133z
M261 8q-68 27 -114 74t-69 111.5t-23 139.5q0 86 29 154t79 115.5t117 73t144 25.5q84 0 151.5 -25t115 -71.5t72.5 -112t25 -145.5q0 -82 -27 -149.5t-75.5 -115.5t-116 -74.5t-148.5 -26.5q-91 0 -160 27z" />
    <glyph glyph-name="ordfeminine" unicode="&#xaa;" horiz-adv-x="409" 
d="M270 449q-12 -19 -28 -38.5t-34.5 -35.5t-39.5 -26.5t-44 -10.5q-24 0 -41.5 11.5t-17.5 42.5q0 38 24.5 90.5t63.5 100.5t87.5 81.5t96.5 33.5q15 0 26 -6.5t16 -14.5q3 6 6.5 10t10.5 4q5 0 17.5 0.5t16.5 0.5q14 0 14 -6q0 -3 -3 -7q-28 -63 -60.5 -131t-60.5 -136
q-1 -2 -3 -9t-2 -14t5 -7q11 0 28.5 21t38.5 49q4 4 7 4q5 0 8 -4t1 -7q-13 -21 -31.5 -45.5t-47.5 -43.5q-9 -6 -23 -10.5t-28 -4.5q-10 0 -17.5 5.5t-7.5 19.5q0 22 7 38.5t19 42.5zM131 397q0 -23 21 -23q17 0 38.5 18t43 42.5t40 51t29.5 44.5q13 22 21.5 39.5
t18.5 40.5q12 28 12 45q0 8 -4.5 16t-19.5 8q-17 0 -38.5 -15t-43.5 -39.5t-43.5 -55.5t-38 -62.5t-26.5 -60.5t-10 -49z" />
    <glyph glyph-name="guillemotleft" unicode="&#xab;" horiz-adv-x="383" 
d="M113 66q2 -6 -1.5 -11.5t-12.5 -5.5t-15 13l-72 158q-2 3 -3.5 8.5t-1.5 7.5q0 11 13 21l171 133q4 3 8 3q8 0 12.5 -7t-2.5 -15l-129 -143zM263 66q2 -6 -1.5 -11.5t-12.5 -5.5t-15 13l-72 158q-2 3 -3.5 8.5t-1.5 7.5q0 11 13 21l171 133q4 3 8 3q8 0 12.5 -7t-2.5 -15
l-129 -143z" />
    <glyph glyph-name="logicalnot" unicode="&#xac;" horiz-adv-x="524" 
d="M79 304v42h366v-140h-43v98h-323z" />
    <glyph glyph-name="uni00AD" unicode="&#xad;" horiz-adv-x="342" 
d="M47 213v66h247v-66h-247z" />
    <glyph glyph-name="registered" unicode="&#xae;" horiz-adv-x="843" 
d="M346 193q0 -20 8.5 -27.5t26.5 -7.5q15 0 19 -2.5t4 -6.5q0 -2 -2 -5t-14 -3q-21 0 -38.5 0.5t-39.5 0.5q-23 0 -36 -0.5t-32 -0.5q-18 0 -18 8q0 9 22 9q18 0 24 9.5t6 27.5v300q0 21 -8.5 28t-25.5 7q-11 0 -14.5 3.5t-3.5 6.5q0 8 14 8h44.5t39.5 1q19 1 41.5 1.5
t46.5 0.5q26 0 53 -6t49.5 -19.5t36.5 -35.5t14 -53q0 -27 -11.5 -46.5t-26.5 -32.5t-31 -20t-25 -10q6 -5 12.5 -12t15.5 -18t20.5 -27.5t27.5 -40.5q17 -27 35.5 -49.5t48.5 -22.5q14 0 14 -9q0 -3 -2.5 -6t-9.5 -3q-10 0 -20 1t-30 1h-26t-33 -1l-66 103q-7 11 -17.5 25
t-24 26t-30.5 20t-38 8v-130zM346 342h35q16 0 35.5 4.5t35.5 15t27 28t11 43.5q0 53 -27.5 76.5t-75.5 23.5h-11q-20 0 -25 -12t-5 -28v-151zM119 201q23 -59 65 -100t101.5 -63t132.5 -22q72 0 132 23t104 65t68.5 102t24.5 135q0 78 -24.5 139t-67.5 103t-102 63.5
t-129 21.5t-130 -24t-104 -67.5t-69 -105t-25 -137.5q0 -74 23 -133zM261 8q-68 27 -114 74t-69 111.5t-23 139.5q0 86 29 154t79 115.5t117 73t144 25.5q84 0 151.5 -25t115 -71.5t72.5 -112t25 -145.5q0 -82 -27 -149.5t-75.5 -115.5t-116 -74.5t-148.5 -26.5
q-91 0 -160 27z" />
    <glyph glyph-name="macron" unicode="&#xaf;" 
d="M126 574q-5 0 -6 3t0 5l13 39q3 9 12 9h229q5 0 6 -4t-1 -8l-12 -35q-4 -9 -11 -9h-230z" />
    <glyph glyph-name="degree" unicode="&#xb0;" horiz-adv-x="280" 
d="M118 620q0 -28 19.5 -47t49.5 -19q26 0 44.5 19t18.5 47q0 27 -18.5 46t-44.5 19q-30 0 -49.5 -19t-19.5 -46zM146 527q-19 8 -32.5 21.5t-21.5 32t-8 39.5q0 42 29 70.5t74 28.5q20 0 37.5 -7.5t31 -21t21 -31.5t7.5 -39t-7.5 -39.5t-21 -32t-31 -21t-37.5 -7.5
q-22 0 -41 7z" />
    <glyph glyph-name="plusminus" unicode="&#xb1;" horiz-adv-x="518" 
d="M237 143v161h-161v42h161v161h45v-161h160v-42h-160v-161h-45zM76 2v42h366v-42h-366z" />
    <glyph glyph-name="twosuperior" unicode="&#xb2;" horiz-adv-x="350" 
d="M47 305q10 31 27 58.5t38.5 51.5t45.5 45t48 39q46 35 72.5 60.5t26.5 54.5q0 17 -11 27.5t-34 10.5q-18 0 -35 -7.5t-30.5 -16.5t-23 -18t-12.5 -12q-12 -12 -19 -12q-10 0 -10 10q0 7 8 15q10 10 23.5 21.5t32 22t41 17.5t50.5 7q33 0 57.5 -17t24.5 -50
q0 -22 -9.5 -39.5t-25.5 -32.5t-37.5 -29t-46.5 -29q-48 -29 -89.5 -59.5t-67.5 -74.5h145q19 0 31.5 6t20.5 23q2 5 4.5 7.5t7.5 2.5q9 0 9 -10q0 -4 -2.5 -11t-5.5 -13l-19 -40q-3 -8 -15 -8h-220z" />
    <glyph glyph-name="threesuperior" unicode="&#xb3;" horiz-adv-x="350" 
d="M298 536q-16 -10 -32 -19q18 -8 35.5 -26t17.5 -50q0 -28 -13.5 -54t-37.5 -46.5t-56.5 -32.5t-70.5 -12q-13 0 -29 2.5t-30.5 7.5t-24 14t-9.5 21q0 11 7 18.5t21 7.5q15 0 23 -9t13 -18t14.5 -17t26.5 -8q21 0 40 7.5t33.5 22t23 34.5t8.5 45q0 27 -13 44t-36 17
q-9 0 -18.5 -2t-16.5 -4q-4 -1 -7 -1.5t-6 -0.5q-10 0 -10 8q0 7 14 12q20 7 44 17t44.5 23.5t34 32t13.5 41.5q0 38 -43 38q-27 0 -51 -18t-41 -35q-5 -5 -8 -7t-9 -2t-8 3.5t-2 6.5q0 7 15 21q6 6 18 16.5t28.5 20t37 17t43.5 7.5q35 0 55 -17.5t20 -43.5q0 -18 -8 -32.5
t-21 -27t-29 -22.5z" />
    <glyph glyph-name="acute" unicode="&#xb4;" 
d="M211 487q-7 6 -2 16q21 38 48.5 80.5t51.5 80.5q5 8 13.5 11.5t16.5 3.5q11 0 19 -6t11.5 -15t1 -19.5t-11.5 -19.5q-13 -13 -29.5 -29t-34 -33t-35.5 -34t-33 -33q-8 -8 -16 -3z" />
    <glyph glyph-name="mu" unicode="&#xb5;" horiz-adv-x="515" 
d="M100 142q-6 -17 -9.5 -32t-3.5 -29q0 -22 12.5 -35.5t42.5 -13.5q21 0 42 9.5t38 22t29 24t16 16.5l104 302q4 12 11.5 19.5t15.5 7.5q18 0 26.5 0.5t19.5 0.5t7 -10q-3 -10 -11.5 -30.5t-16.5 -45.5l-89 -257q-10 -28 -10 -44q0 -20 13 -20q11 0 21.5 10t18.5 21
q9 10 14 10q3 0 5.5 -2t0.5 -7t-8.5 -16.5t-18.5 -23t-29.5 -20t-41.5 -8.5q-26 0 -39 11.5t-13 29.5q0 12 6 32q-8 -8 -21.5 -20.5t-32 -24t-41.5 -20t-50 -8.5q-47 0 -66.5 19.5t-20.5 45.5q-11 -30 -16.5 -62t-8.5 -62.5t-5 -56.5t-7 -44q-6 -22 -17 -34t-30 -12
q-17 0 -24 13t-7 27q0 28 12.5 63t30 74t37 80.5t33.5 82.5l98 284q3 10 11 16.5t16 6.5q16 1 26 1h21t8 -10l-12 -30t-16 -43z" />
    <glyph glyph-name="paragraph" unicode="&#xb6;" horiz-adv-x="544" 
d="M319 71q-16 -47 -32.5 -80.5t-37 -54.5t-48 -30.5t-65.5 -9.5q-19 0 -41.5 5.5t-42 16t-32.5 27t-13 38.5q0 17 10.5 27.5t27.5 10.5q21 0 30 -11t14 -30q6 -23 18.5 -40t41.5 -17q26 0 45 10t34 28.5t27.5 45.5t24.5 62l82 237h-82q-37 0 -65.5 11.5t-48 31t-29.5 46
t-10 57.5q0 55 24 100.5t64.5 78t94 50t111.5 17.5h175q18 0 18 -11q0 -14 -21 -14q-32 0 -53.5 -12.5t-35.5 -50.5z" />
    <glyph glyph-name="periodcentered" unicode="&#xb7;" horiz-adv-x="258" 
d="M120 279q-24 0 -37 15t-13 35q0 26 17.5 45.5t47.5 19.5q22 0 36 -14t14 -35q0 -25 -18.5 -45.5t-46.5 -20.5z" />
    <glyph glyph-name="cedilla" unicode="&#xb8;" 
d="M238 -67q6 1 11 1.5t11 0.5q26 0 45 -13.5t19 -46.5q0 -23 -10.5 -40t-27 -28t-38 -16t-43.5 -5q-10 0 -21 1.5t-20.5 5t-15.5 9t-6 14.5q0 8 5 13t13 5q10 0 18 -7t30 -7q27 0 43.5 11t16.5 35q0 20 -10.5 27t-24.5 7q-11 0 -22.5 -2.5t-19.5 -2.5q-10 0 -5 9l57 96h35z
" />
    <glyph glyph-name="onesuperior" unicode="&#xb9;" horiz-adv-x="350" 
d="M211 367q-6 -15 -6 -23q0 -7 6 -11t14 -6t16 -2.5t13 -0.5q8 0 10.5 -3t2.5 -6q0 -10 -14 -10q-31 0 -53 0.5t-36 0.5q-21 0 -37.5 -0.5t-42.5 -0.5q-7 0 -9 3t-2 5q0 12 19 12q29 0 42.5 11.5t21.5 31.5l88 230q1 3 1.5 9.5t-6.5 5.5q-10 -2 -24.5 -6t-21.5 -4
q-10 0 -10 9t12 12q16 4 28.5 8.5t31.5 14.5t27.5 15.5t16.5 10.5q10 6 16 6q7 0 8.5 -4.5t-0.5 -10.5z" />
    <glyph glyph-name="ordmasculine" unicode="&#xba;" horiz-adv-x="374" 
d="M113 358q-12 12 -19.5 31.5t-7.5 50.5q0 34 16 79t45.5 84.5t70.5 67t92 27.5q18 0 33.5 -4t27.5 -15t18.5 -30.5t6.5 -49.5q0 -35 -17 -80.5t-47 -85.5t-71 -67.5t-88 -27.5q-17 0 -32.5 4.5t-27.5 15.5zM143 408q0 -49 32 -49q19 0 39 16t39 41.5t36 57t29.5 62.5
t20 58t7.5 44q0 14 -5 27t-25 13q-18 0 -37.5 -13t-39 -34.5t-37 -50t-30.5 -58.5t-21 -59.5t-8 -54.5z" />
    <glyph glyph-name="guillemotright" unicode="&#xbb;" horiz-adv-x="383" 
d="M-32 52q-5 -3 -8 -3q-8 0 -12.5 7t2.5 15l129 143l-33 162q-2 6 1.5 11.5t12.5 5.5t15 -13l72 -158q2 -3 3.5 -8.5t1.5 -7.5q0 -11 -13 -21zM118 52q-5 -3 -8 -3q-8 0 -12.5 7t2.5 15l129 143l-33 162q-2 6 1.5 11.5t12.5 5.5t15 -13l72 -158q2 -3 3.5 -8.5t1.5 -7.5
q0 -11 -13 -21z" />
    <glyph glyph-name="questiondown" unicode="&#xbf;" horiz-adv-x="373" 
d="M-28 -227q-37 35 -37 92q0 39 17.5 70t44 56.5t57.5 47.5t57.5 43t44 43.5t17.5 48.5q0 14 -6 26.5t-22 20.5q-13 6 -20 9t-7 12q0 12 12 12q18 0 36 -6t33 -18t24 -29.5t9 -39.5q0 -35 -17.5 -63t-44 -52.5t-57 -46.5t-57 -46.5t-44 -52t-17.5 -61.5q0 -39 19 -59.5
t48 -20.5q21 0 34 9.5t24 27.5q14 22 22.5 29.5t25.5 7.5q11 0 21.5 -8t10.5 -22q0 -29 -34.5 -47.5t-91.5 -18.5q-66 0 -102 36zM171 349q-13 13 -13 32q0 23 17 41.5t42 18.5q22 0 34 -13.5t12 -32.5q0 -23 -16 -40.5t-43 -17.5q-20 0 -33 12z" />
    <glyph glyph-name="Agrave" unicode="&#xc0;" horiz-adv-x="657" 
d="M147 179l-21 -31.5t-20.5 -32.5t-15.5 -31.5t-6 -27.5q0 -17 10.5 -26.5t34.5 -9.5q9 0 12 -2.5t3 -8.5q0 -10 -14 -10h-46.5t-32 0.5t-23 0.5h-18.5q-31 0 -58 -1t-52 -1q-15 0 -15 11q0 8 4.5 10.5t17.5 2.5q17 0 38 6t45.5 23.5t53.5 47.5t62 78l330 481q7 11 17 14
l64 25q4 2 11 2t8 -5.5t1 -14.5l-45 -553q-1 -6 -1 -11.5v-11.5q0 -17 2.5 -32t9.5 -26t19 -18t30 -7q13 0 13 -11q0 -10 -14 -10q-48 0 -83.5 0.5t-54.5 0.5q-20 0 -46.5 -0.5t-71.5 -0.5q-12 0 -12 11q0 7 4 9.5t9 2.5q51 0 76 20t29 65l16 175h-200zM240 314h179l28 311z
M324 835q-14 11 -14 25q0 11 8.5 20.5t21.5 9.5q11 0 22 -8q6 -5 26 -25t42 -43t40 -42.5t21 -22.5q7 -10 3.5 -15t-14.5 0q-3 1 -14.5 8.5t-27.5 17.5t-34.5 22t-34.5 23t-28.5 19t-16.5 11z" />
    <glyph glyph-name="Aacute" unicode="&#xc1;" horiz-adv-x="657" 
d="M147 179l-21 -31.5t-20.5 -32.5t-15.5 -31.5t-6 -27.5q0 -17 10.5 -26.5t34.5 -9.5q9 0 12 -2.5t3 -8.5q0 -10 -14 -10h-46.5t-32 0.5t-23 0.5h-18.5q-31 0 -58 -1t-52 -1q-15 0 -15 11q0 8 4.5 10.5t17.5 2.5q17 0 38 6t45.5 23.5t53.5 47.5t62 78l330 481q7 11 17 14
l64 25q4 2 11 2t8 -5.5t1 -14.5l-45 -553q-1 -6 -1 -11.5v-11.5q0 -17 2.5 -32t9.5 -26t19 -18t30 -7q13 0 13 -11q0 -10 -14 -10q-48 0 -83.5 0.5t-54.5 0.5q-20 0 -46.5 -0.5t-71.5 -0.5q-12 0 -12 11q0 7 4 9.5t9 2.5q51 0 76 20t29 65l16 175h-200zM240 314h179l28 311z
M464 734q-11 -5 -14.5 0t3.5 15q3 3 21 22.5t40 42.5t42 43t26 25q11 8 22 8q13 0 21.5 -9.5t8.5 -20.5q0 -14 -14 -25q-4 -3 -16.5 -11t-28.5 -19t-34.5 -23t-34.5 -22t-27.5 -17.5t-14.5 -8.5z" />
    <glyph glyph-name="Acircumflex" unicode="&#xc2;" horiz-adv-x="657" 
d="M147 179l-21 -31.5t-20.5 -32.5t-15.5 -31.5t-6 -27.5q0 -17 10.5 -26.5t34.5 -9.5q9 0 12 -2.5t3 -8.5q0 -10 -14 -10h-46.5t-32 0.5t-23 0.5h-18.5q-31 0 -58 -1t-52 -1q-15 0 -15 11q0 8 4.5 10.5t17.5 2.5q17 0 38 6t45.5 23.5t53.5 47.5t62 78l330 481q7 11 17 14
l64 25q4 2 11 2t8 -5.5t1 -14.5l-45 -553q-1 -6 -1 -11.5v-11.5q0 -17 2.5 -32t9.5 -26t19 -18t30 -7q13 0 13 -11q0 -10 -14 -10q-48 0 -83.5 0.5t-54.5 0.5q-20 0 -46.5 -0.5t-71.5 -0.5q-12 0 -12 11q0 7 4 9.5t9 2.5q51 0 76 20t29 65l16 175h-200zM240 314h179l28 311z
M394 734q-8 -5 -13 -5q-6 0 -8.5 3t-2.5 6q0 5 8 13l112 113q8 9 17.5 15t19.5 6q12 0 18.5 -6.5t10.5 -15.5l54 -117q2 -4 2 -7q0 -6 -3.5 -8t-7.5 -2q-6 0 -12 6l-75 81z" />
    <glyph glyph-name="Atilde" unicode="&#xc3;" horiz-adv-x="657" 
d="M147 179l-21 -31.5t-20.5 -32.5t-15.5 -31.5t-6 -27.5q0 -17 10.5 -26.5t34.5 -9.5q9 0 12 -2.5t3 -8.5q0 -10 -14 -10h-46.5t-32 0.5t-23 0.5h-18.5q-31 0 -58 -1t-52 -1q-15 0 -15 11q0 8 4.5 10.5t17.5 2.5q17 0 38 6t45.5 23.5t53.5 47.5t62 78l330 481q7 11 17 14
l64 25q4 2 11 2t8 -5.5t1 -14.5l-45 -553q-1 -6 -1 -11.5v-11.5q0 -17 2.5 -32t9.5 -26t19 -18t30 -7q13 0 13 -11q0 -10 -14 -10q-48 0 -83.5 0.5t-54.5 0.5q-20 0 -46.5 -0.5t-71.5 -0.5q-12 0 -12 11q0 7 4 9.5t9 2.5q51 0 76 20t29 65l16 175h-200zM240 314h179l28 311z
M330 750q-9 0 -12 7.5t2 18.5q15 33 39 55t59 22q22 0 44 -9t42.5 -19.5t38.5 -19t33 -8.5q19 0 30 12t20 30q4 7 6.5 10.5t10.5 3.5q9 0 12 -5t1 -12q-5 -14 -12.5 -28.5t-18.5 -26.5t-27 -19.5t-38 -7.5q-23 0 -44.5 8.5t-42 19t-40 19.5t-37.5 9q-16 0 -25.5 -12
t-19.5 -30q-5 -10 -9 -14t-12 -4z" />
    <glyph glyph-name="Adieresis" unicode="&#xc4;" horiz-adv-x="657" 
d="M147 179l-21 -31.5t-20.5 -32.5t-15.5 -31.5t-6 -27.5q0 -17 10.5 -26.5t34.5 -9.5q9 0 12 -2.5t3 -8.5q0 -10 -14 -10h-46.5t-32 0.5t-23 0.5h-18.5q-31 0 -58 -1t-52 -1q-15 0 -15 11q0 8 4.5 10.5t17.5 2.5q17 0 38 6t45.5 23.5t53.5 47.5t62 78l330 481q7 11 17 14
l64 25q4 2 11 2t8 -5.5t1 -14.5l-45 -553q-1 -6 -1 -11.5v-11.5q0 -17 2.5 -32t9.5 -26t19 -18t30 -7q13 0 13 -11q0 -10 -14 -10q-48 0 -83.5 0.5t-54.5 0.5q-20 0 -46.5 -0.5t-71.5 -0.5q-12 0 -12 11q0 7 4 9.5t9 2.5q51 0 76 20t29 65l16 175h-200zM240 314h179l28 311z
M582 756q-19 0 -29.5 11.5t-10.5 28.5q0 21 14 37t39 16q17 0 28.5 -11.5t11.5 -28.5q0 -20 -15 -36.5t-38 -16.5zM400 756q-19 0 -29.5 11.5t-10.5 28.5q0 21 14 37t39 16q17 0 28.5 -11.5t11.5 -28.5q0 -20 -15 -36.5t-38 -16.5z" />
    <glyph glyph-name="Aring" unicode="&#xc5;" horiz-adv-x="657" 
d="M147 179l-21 -31.5t-20.5 -32.5t-15.5 -31.5t-6 -27.5q0 -17 10.5 -26.5t34.5 -9.5q9 0 12 -2.5t3 -8.5q0 -10 -14 -10h-46.5t-32 0.5t-23 0.5h-18.5q-31 0 -58 -1t-52 -1q-15 0 -15 11q0 8 4.5 10.5t17.5 2.5q17 0 38 6t45.5 23.5t53.5 47.5t62 78l330 481q7 11 17 14
l64 25q4 2 11 2t8 -5.5t1 -14.5l-45 -553q-1 -6 -1 -11.5v-11.5q0 -17 2.5 -32t9.5 -26t19 -18t30 -7q13 0 13 -11q0 -10 -14 -10q-48 0 -83.5 0.5t-54.5 0.5q-20 0 -46.5 -0.5t-71.5 -0.5q-12 0 -12 11q0 7 4 9.5t9 2.5q51 0 76 20t29 65l16 175h-200zM240 314h179l28 311z
M503 726q-35 0 -59 24t-24 59t24 59t59 24t59 -24t24 -59t-24 -59t-59 -24zM451 809q0 -23 14.5 -37.5t37.5 -14.5t37 14.5t14 37.5t-14 37t-37 14t-37.5 -14t-14.5 -37z" />
    <glyph glyph-name="AE" unicode="&#xc6;" horiz-adv-x="980" 
d="M295 0q-15 0 -15 11q0 7 4 10t15 3q33 0 53.5 16t35.5 61l79 233h-148l-120 -142q-39 -46 -63.5 -79.5t-24.5 -54.5q0 -17 16 -26.5t41 -9.5q9 0 12 -3t3 -9q0 -11 -13 -11q-56 0 -88.5 0.5t-51.5 0.5q-31 0 -61 -1t-55 -1q-14 0 -14 11q0 8 3.5 10.5t16.5 2.5
q17 0 37.5 5t45.5 20t55.5 42.5t66.5 71.5l372 454q7 8 9.5 15t2.5 13q0 14 -12.5 21.5t-26.5 8.5q-21 1 -21 13t13 12h472q15 0 16 -17l9 -80q1 -4 1.5 -11t0.5 -11q0 -11 -10 -11q-7 0 -12.5 5t-20.5 25l-45 60q-5 8 -11.5 11.5t-18.5 3.5h-174l-100 -307h40
q50 0 77.5 4.5t39.5 9.5q23 10 44.5 29t38.5 60q4 10 7.5 16t9.5 6t10.5 -4t2.5 -10q-9 -28 -22 -63.5t-24 -76.5q-7 -27 -12 -45.5t-8 -33t-5.5 -26.5t-5.5 -26q-2 -9 -6 -12t-7 -3q-13 0 -12 17q1 11 1.5 21.5t0.5 24.5q0 25 -10.5 40.5t-27.5 24.5t-38 12t-43 3h-63
l-68 -210q-4 -11 -8.5 -29t-4.5 -33q0 -18 13.5 -27t43.5 -9h211q11 0 17 3t11 10l99 120q7 8 10 10.5t8 2.5q7 0 8.5 -5t-0.5 -13l-36 -145q-2 -9 -9 -9h-557zM340 366h136l96 286z" />
    <glyph glyph-name="Ccedilla" unicode="&#xc7;" horiz-adv-x="621" 
d="M220 -67q6 1 11 1.5t11 0.5q26 0 46 -13.5t20 -46.5q0 -23 -10.5 -40t-27 -28t-38 -16t-43.5 -5q-9 0 -20 1.5t-20.5 4.5t-16 8.5t-6.5 13.5q0 16 18 16q10 0 18 -7t30 -7q27 0 45 13t18 37q0 21 -11 28.5t-25 7.5q-11 0 -22.5 -2.5t-19.5 -2.5q-10 0 -5 9l45 78
q-90 5 -141 59.5t-51 158.5q0 59 17 119.5t47.5 116.5t73.5 104.5t95.5 85t112.5 57t126 20.5q42 0 69.5 -9.5t54.5 -25.5q3 -2 5.5 -3t5.5 -1q4 0 8 3t6 7q5 7 8 9t6 2q6 0 9.5 -4.5t-1.5 -18.5q-5 -15 -12 -34.5t-14.5 -41t-15 -43.5t-13.5 -42q-4 -11 -6.5 -16.5
t-9.5 -5.5q-13 0 -11 17q2 22 3 36t1.5 22t0.5 12v7q0 22 -4 41.5t-13.5 34t-26.5 23t-44 8.5q-52 0 -100.5 -21.5t-90.5 -58t-77 -84.5t-60 -101t-38.5 -108.5t-13.5 -105.5q0 -35 6 -69t21.5 -60.5t44 -43t73.5 -16.5q31 0 59.5 10.5t52.5 27t44 36.5t34 39
q24 34 38.5 60.5t27.5 58.5q6 14 17 14q7 0 12.5 -6t1.5 -17q-11 -34 -20 -62t-17.5 -53.5t-16 -50t-14.5 -51.5q-3 -13 -14 -13q-10 0 -11 18q-1 13 -2 26.5t-3 25.5q-52 -56 -104.5 -74.5t-102.5 -19.5z" />
    <glyph glyph-name="Egrave" unicode="&#xc8;" horiz-adv-x="649" 
d="M-36 0q-15 0 -15 11q0 7 4 10t15 3q33 0 54 16t35 61l159 479q6 17 9.5 29.5t3.5 26.5q0 17 -14 27t-50 10q-21 0 -21 13q0 12 13 12h445q15 0 16 -17l9 -80q1 -4 1.5 -11t0.5 -11q0 -11 -10 -11q-7 0 -12.5 5t-20.5 25l-45 60q-5 8 -11.5 11.5t-18.5 3.5h-174l-100 -301
h40q50 0 77.5 4.5t39.5 9.5q23 10 44.5 29t38.5 60q4 10 7.5 16t9.5 6t10.5 -4t2.5 -10q-9 -25 -21 -60t-25 -73t-24 -74.5t-19 -63.5q-3 -9 -6.5 -12t-6.5 -3q-12 0 -12 14q0 8 0.5 18t0.5 31q0 25 -8 42t-22 27t-32.5 14t-40.5 4h-63l-74 -223q-4 -11 -8.5 -29t-4.5 -33
q0 -18 13.5 -27t43.5 -9h214q11 0 17 3t11 10l99 120q7 8 10 10.5t8 2.5q7 0 8.5 -5t-0.5 -13l-36 -145q-2 -9 -9 -9h-556zM277 835q-14 11 -14 25q0 11 8.5 20.5t21.5 9.5q11 0 22 -8q6 -5 26 -25t42 -43t40 -42.5t21 -22.5q7 -10 3.5 -15t-14.5 0q-3 1 -14.5 8.5
t-27.5 17.5t-34.5 22t-34.5 23t-28.5 19t-16.5 11z" />
    <glyph glyph-name="Eacute" unicode="&#xc9;" horiz-adv-x="649" 
d="M-36 0q-15 0 -15 11q0 7 4 10t15 3q33 0 54 16t35 61l159 479q6 17 9.5 29.5t3.5 26.5q0 17 -14 27t-50 10q-21 0 -21 13q0 12 13 12h445q15 0 16 -17l9 -80q1 -4 1.5 -11t0.5 -11q0 -11 -10 -11q-7 0 -12.5 5t-20.5 25l-45 60q-5 8 -11.5 11.5t-18.5 3.5h-174l-100 -301
h40q50 0 77.5 4.5t39.5 9.5q23 10 44.5 29t38.5 60q4 10 7.5 16t9.5 6t10.5 -4t2.5 -10q-9 -25 -21 -60t-25 -73t-24 -74.5t-19 -63.5q-3 -9 -6.5 -12t-6.5 -3q-12 0 -12 14q0 8 0.5 18t0.5 31q0 25 -8 42t-22 27t-32.5 14t-40.5 4h-63l-74 -223q-4 -11 -8.5 -29t-4.5 -33
q0 -18 13.5 -27t43.5 -9h214q11 0 17 3t11 10l99 120q7 8 10 10.5t8 2.5q7 0 8.5 -5t-0.5 -13l-36 -145q-2 -9 -9 -9h-556zM378 734q-11 -5 -14.5 0t3.5 15q3 3 21 22.5t40 42.5t42 43t26 25q11 8 22 8q13 0 21.5 -9.5t8.5 -20.5q0 -14 -14 -25q-4 -3 -16.5 -11t-28.5 -19
t-34.5 -23t-34.5 -22t-27.5 -17.5t-14.5 -8.5z" />
    <glyph glyph-name="Ecircumflex" unicode="&#xca;" horiz-adv-x="649" 
d="M-36 0q-15 0 -15 11q0 7 4 10t15 3q33 0 54 16t35 61l159 479q6 17 9.5 29.5t3.5 26.5q0 17 -14 27t-50 10q-21 0 -21 13q0 12 13 12h445q15 0 16 -17l9 -80q1 -4 1.5 -11t0.5 -11q0 -11 -10 -11q-7 0 -12.5 5t-20.5 25l-45 60q-5 8 -11.5 11.5t-18.5 3.5h-174l-100 -301
h40q50 0 77.5 4.5t39.5 9.5q23 10 44.5 29t38.5 60q4 10 7.5 16t9.5 6t10.5 -4t2.5 -10q-9 -25 -21 -60t-25 -73t-24 -74.5t-19 -63.5q-3 -9 -6.5 -12t-6.5 -3q-12 0 -12 14q0 8 0.5 18t0.5 31q0 25 -8 42t-22 27t-32.5 14t-40.5 4h-63l-74 -223q-4 -11 -8.5 -29t-4.5 -33
q0 -18 13.5 -27t43.5 -9h214q11 0 17 3t11 10l99 120q7 8 10 10.5t8 2.5q7 0 8.5 -5t-0.5 -13l-36 -145q-2 -9 -9 -9h-556zM318 734q-8 -5 -13 -5q-6 0 -8.5 3t-2.5 6q0 5 8 13l112 113q8 9 17.5 15t19.5 6q12 0 18.5 -6.5t10.5 -15.5l54 -117q2 -4 2 -7q0 -6 -3.5 -8
t-7.5 -2q-6 0 -12 6l-75 81z" />
    <glyph glyph-name="Edieresis" unicode="&#xcb;" horiz-adv-x="649" 
d="M-36 0q-15 0 -15 11q0 7 4 10t15 3q33 0 54 16t35 61l159 479q6 17 9.5 29.5t3.5 26.5q0 17 -14 27t-50 10q-21 0 -21 13q0 12 13 12h445q15 0 16 -17l9 -80q1 -4 1.5 -11t0.5 -11q0 -11 -10 -11q-7 0 -12.5 5t-20.5 25l-45 60q-5 8 -11.5 11.5t-18.5 3.5h-174l-100 -301
h40q50 0 77.5 4.5t39.5 9.5q23 10 44.5 29t38.5 60q4 10 7.5 16t9.5 6t10.5 -4t2.5 -10q-9 -25 -21 -60t-25 -73t-24 -74.5t-19 -63.5q-3 -9 -6.5 -12t-6.5 -3q-12 0 -12 14q0 8 0.5 18t0.5 31q0 25 -8 42t-22 27t-32.5 14t-40.5 4h-63l-74 -223q-4 -11 -8.5 -29t-4.5 -33
q0 -18 13.5 -27t43.5 -9h214q11 0 17 3t11 10l99 120q7 8 10 10.5t8 2.5q7 0 8.5 -5t-0.5 -13l-36 -145q-2 -9 -9 -9h-556zM500 756q-19 0 -29.5 11.5t-10.5 28.5q0 21 14 37t39 16q17 0 28.5 -11.5t11.5 -28.5q0 -20 -15 -36.5t-38 -16.5zM318 756q-19 0 -29.5 11.5
t-10.5 28.5q0 21 14 37t39 16q17 0 28.5 -11.5t11.5 -28.5q0 -20 -15 -36.5t-38 -16.5z" />
    <glyph glyph-name="Igrave" unicode="&#xcc;" horiz-adv-x="355" 
d="M152 113q-8 -25 -10.5 -38.5t-2.5 -21.5q0 -19 15 -26t46 -7q8 0 10.5 -3t2.5 -8q0 -6 -2.5 -8.5t-12.5 -2.5q-29 0 -55.5 1t-66.5 1q-27 0 -54.5 -1.5t-56.5 -1.5q-13 0 -13 12q0 5 3 8.5t14 3.5q32 0 51 15t29 43l169 499q5 14 8.5 30t3.5 33t-13.5 25t-37.5 8
q-14 0 -19 2.5t-5 10.5t4.5 9.5t9.5 1.5q28 0 57 -1t64 -1q26 0 51.5 1t57.5 1q11 0 14.5 -2.5t3.5 -8.5t-3.5 -9.5t-15.5 -3.5q-38 0 -53 -15t-25 -45zM163 835q-14 11 -14 25q0 11 8.5 20.5t21.5 9.5q11 0 22 -8q6 -5 26 -25t42 -43t40 -42.5t21 -22.5q7 -10 3.5 -15
t-14.5 0q-3 1 -14.5 8.5t-27.5 17.5t-34.5 22t-34.5 23t-28.5 19t-16.5 11z" />
    <glyph glyph-name="Iacute" unicode="&#xcd;" horiz-adv-x="355" 
d="M152 113q-8 -25 -10.5 -38.5t-2.5 -21.5q0 -19 15 -26t46 -7q8 0 10.5 -3t2.5 -8q0 -6 -2.5 -8.5t-12.5 -2.5q-29 0 -55.5 1t-66.5 1q-27 0 -54.5 -1.5t-56.5 -1.5q-13 0 -13 12q0 5 3 8.5t14 3.5q32 0 51 15t29 43l169 499q5 14 8.5 30t3.5 33t-13.5 25t-37.5 8
q-14 0 -19 2.5t-5 10.5t4.5 9.5t9.5 1.5q28 0 57 -1t64 -1q26 0 51.5 1t57.5 1q11 0 14.5 -2.5t3.5 -8.5t-3.5 -9.5t-15.5 -3.5q-38 0 -53 -15t-25 -45zM264 734q-11 -5 -14.5 0t3.5 15q3 3 21 22.5t40 42.5t42 43t26 25q11 8 22 8q13 0 21.5 -9.5t8.5 -20.5q0 -14 -14 -25
q-4 -3 -16.5 -11t-28.5 -19t-34.5 -23t-34.5 -22t-27.5 -17.5t-14.5 -8.5z" />
    <glyph glyph-name="Icircumflex" unicode="&#xce;" horiz-adv-x="355" 
d="M152 113q-8 -25 -10.5 -38.5t-2.5 -21.5q0 -19 15 -26t46 -7q8 0 10.5 -3t2.5 -8q0 -6 -2.5 -8.5t-12.5 -2.5q-29 0 -55.5 1t-66.5 1q-27 0 -54.5 -1.5t-56.5 -1.5q-13 0 -13 12q0 5 3 8.5t14 3.5q32 0 51 15t29 43l169 499q5 14 8.5 30t3.5 33t-13.5 25t-37.5 8
q-14 0 -19 2.5t-5 10.5t4.5 9.5t9.5 1.5q28 0 57 -1t64 -1q26 0 51.5 1t57.5 1q11 0 14.5 -2.5t3.5 -8.5t-3.5 -9.5t-15.5 -3.5q-38 0 -53 -15t-25 -45zM201 734q-8 -5 -13 -5q-6 0 -8.5 3t-2.5 6q0 5 8 13l112 113q8 9 17.5 15t19.5 6q12 0 18.5 -6.5t10.5 -15.5l54 -117
q2 -4 2 -7q0 -6 -3.5 -8t-7.5 -2q-6 0 -12 6l-75 81z" />
    <glyph glyph-name="Idieresis" unicode="&#xcf;" horiz-adv-x="355" 
d="M152 113q-8 -25 -10.5 -38.5t-2.5 -21.5q0 -19 15 -26t46 -7q8 0 10.5 -3t2.5 -8q0 -6 -2.5 -8.5t-12.5 -2.5q-29 0 -55.5 1t-66.5 1q-27 0 -54.5 -1.5t-56.5 -1.5q-13 0 -13 12q0 5 3 8.5t14 3.5q32 0 51 15t29 43l169 499q5 14 8.5 30t3.5 33t-13.5 25t-37.5 8
q-14 0 -19 2.5t-5 10.5t4.5 9.5t9.5 1.5q28 0 57 -1t64 -1q26 0 51.5 1t57.5 1q11 0 14.5 -2.5t3.5 -8.5t-3.5 -9.5t-15.5 -3.5q-38 0 -53 -15t-25 -45zM388 756q-19 0 -29.5 11.5t-10.5 28.5q0 21 14 37t39 16q17 0 28.5 -11.5t11.5 -28.5q0 -20 -15 -36.5t-38 -16.5z
M206 756q-19 0 -29.5 11.5t-10.5 28.5q0 21 14 37t39 16q17 0 28.5 -11.5t11.5 -28.5q0 -20 -15 -36.5t-38 -16.5z" />
    <glyph glyph-name="Eth" unicode="&#xd0;" horiz-adv-x="729" 
d="M82 338q-8 0 -11.5 4.5t-3.5 10.5q0 8 6 16.5t17 8.5h59l75 222q4 11 7 22.5t3 22.5q0 17 -15 23.5t-38 7.5q-10 0 -14.5 2t-4.5 10t4.5 9t9.5 1q32 0 63 -0.5t51 -0.5q14 0 33 0.5t58 0.5q52 0 106.5 -16t99 -52t73 -93.5t28.5 -140.5q0 -59 -16.5 -114t-45.5 -101.5
t-69.5 -82.5t-88.5 -58q-51 -23 -107 -32.5t-121 -9.5q-14 0 -33 0.5t-41 0.5q-24 1 -47 1h-43q-31 0 -58.5 -2t-54.5 -2q-13 0 -13 11q0 5 3 9.5t14 4.5q34 0 55 19t33 56l81 242h-54zM152 117q-8 -23 -9 -32t-1 -18q0 -10 2.5 -18t11.5 -13.5t26.5 -8.5t47.5 -3
q85 0 152.5 33t115 86t73 121t25.5 139q0 63 -14 112t-40 82q-32 42 -74.5 59.5t-82.5 17.5q-34 0 -46 -14t-20 -39l-81 -243h154q17 0 17 -14q0 -11 -7 -18.5t-16 -7.5h-161z" />
    <glyph glyph-name="Ntilde" unicode="&#xd1;" horiz-adv-x="727" 
d="M117 186q-9 -26 -15 -50t-6 -44q0 -16 3 -29t12 -22t25 -14t43 -5q9 0 11.5 -3t2.5 -9q0 -12 -13 -12q-40 0 -76 1t-76 1q-32 0 -55.5 -0.5t-49.5 -0.5q-14 0 -14 11q0 7 3 10.5t13 3.5q19 0 39 5t40.5 20.5t39.5 44.5t36 78l163 472q-11 13 -23.5 19.5t-28.5 9.5
q-13 2 -20 5t-7 10q0 5 3.5 8t14.5 3q10 0 37 -0.5t61 -0.5h52l174 -549l140 409q10 30 10 57q0 12 -2.5 23t-11 19t-23 12.5t-38.5 4.5q-14 0 -14 13q0 11 13 11q8 0 23 -0.5t31 -0.5t31.5 -0.5t25.5 -0.5q31 0 63.5 1t49.5 1q13 0 13 -11q0 -8 -2.5 -10.5t-12.5 -2.5
q-17 0 -33 -3.5t-31 -15t-29.5 -34t-27.5 -59.5l-194 -553q-5 -12 -13 -12q-6 0 -9 4.5t-6 12.5l-194 603zM350 750q-9 0 -12 7.5t2 18.5q15 33 39 55t59 22q22 0 44 -9t42.5 -19.5t38.5 -19t33 -8.5q19 0 30 12t20 30q4 7 6.5 10.5t10.5 3.5q9 0 12 -5t1 -12
q-5 -14 -12.5 -28.5t-18.5 -26.5t-27 -19.5t-38 -7.5q-23 0 -44.5 8.5t-42 19t-40 19.5t-37.5 9q-16 0 -25.5 -12t-19.5 -30q-5 -10 -9 -14t-12 -4z" />
    <glyph glyph-name="Ograve" unicode="&#xd2;" horiz-adv-x="645" 
d="M156 -2q-41 14 -70 44.5t-44.5 77t-15.5 111.5q0 52 13 108t37 108.5t57.5 99.5t75.5 82t90.5 55.5t102.5 20.5q112 0 164.5 -66t52.5 -182q0 -60 -14 -118.5t-39 -111t-59.5 -97.5t-75.5 -77.5t-88 -51t-96 -18.5q-50 0 -91 15zM155 45q19 -20 41 -28.5t43 -8.5
q46 0 85.5 27.5t72.5 72t58.5 100.5t43 112t26.5 106.5t9 84.5q0 77 -30.5 123.5t-93.5 46.5q-40 0 -77.5 -25t-70.5 -66t-60.5 -93.5t-47 -108t-30 -109.5t-10.5 -97q0 -50 11.5 -83.5t29.5 -53.5zM294 835q-14 11 -14 25q0 11 8.5 20.5t21.5 9.5q11 0 22 -8q6 -5 26 -25
t42 -43t40 -42.5t21 -22.5q7 -10 3.5 -15t-14.5 0q-3 1 -14.5 8.5t-27.5 17.5t-34.5 22t-34.5 23t-28.5 19t-16.5 11z" />
    <glyph glyph-name="Oacute" unicode="&#xd3;" horiz-adv-x="645" 
d="M156 -2q-41 14 -70 44.5t-44.5 77t-15.5 111.5q0 52 13 108t37 108.5t57.5 99.5t75.5 82t90.5 55.5t102.5 20.5q112 0 164.5 -66t52.5 -182q0 -60 -14 -118.5t-39 -111t-59.5 -97.5t-75.5 -77.5t-88 -51t-96 -18.5q-50 0 -91 15zM155 45q19 -20 41 -28.5t43 -8.5
q46 0 85.5 27.5t72.5 72t58.5 100.5t43 112t26.5 106.5t9 84.5q0 77 -30.5 123.5t-93.5 46.5q-40 0 -77.5 -25t-70.5 -66t-60.5 -93.5t-47 -108t-30 -109.5t-10.5 -97q0 -50 11.5 -83.5t29.5 -53.5zM437 734q-11 -5 -14.5 0t3.5 15q3 3 21 22.5t40 42.5t42 43t26 25
q11 8 22 8q13 0 21.5 -9.5t8.5 -20.5q0 -14 -14 -25q-4 -3 -16.5 -11t-28.5 -19t-34.5 -23t-34.5 -22t-27.5 -17.5t-14.5 -8.5z" />
    <glyph glyph-name="Ocircumflex" unicode="&#xd4;" horiz-adv-x="645" 
d="M156 -2q-41 14 -70 44.5t-44.5 77t-15.5 111.5q0 52 13 108t37 108.5t57.5 99.5t75.5 82t90.5 55.5t102.5 20.5q112 0 164.5 -66t52.5 -182q0 -60 -14 -118.5t-39 -111t-59.5 -97.5t-75.5 -77.5t-88 -51t-96 -18.5q-50 0 -91 15zM155 45q19 -20 41 -28.5t43 -8.5
q46 0 85.5 27.5t72.5 72t58.5 100.5t43 112t26.5 106.5t9 84.5q0 77 -30.5 123.5t-93.5 46.5q-40 0 -77.5 -25t-70.5 -66t-60.5 -93.5t-47 -108t-30 -109.5t-10.5 -97q0 -50 11.5 -83.5t29.5 -53.5zM349 734q-8 -5 -13 -5q-6 0 -8.5 3t-2.5 6q0 5 8 13l112 113q8 9 17.5 15
t19.5 6q12 0 18.5 -6.5t10.5 -15.5l54 -117q2 -4 2 -7q0 -6 -3.5 -8t-7.5 -2q-6 0 -12 6l-75 81z" />
    <glyph glyph-name="Otilde" unicode="&#xd5;" horiz-adv-x="645" 
d="M156 -2q-41 14 -70 44.5t-44.5 77t-15.5 111.5q0 52 13 108t37 108.5t57.5 99.5t75.5 82t90.5 55.5t102.5 20.5q112 0 164.5 -66t52.5 -182q0 -60 -14 -118.5t-39 -111t-59.5 -97.5t-75.5 -77.5t-88 -51t-96 -18.5q-50 0 -91 15zM155 45q19 -20 41 -28.5t43 -8.5
q46 0 85.5 27.5t72.5 72t58.5 100.5t43 112t26.5 106.5t9 84.5q0 77 -30.5 123.5t-93.5 46.5q-40 0 -77.5 -25t-70.5 -66t-60.5 -93.5t-47 -108t-30 -109.5t-10.5 -97q0 -50 11.5 -83.5t29.5 -53.5zM305 750q-9 0 -12 7.5t2 18.5q15 33 39 55t59 22q22 0 44 -9t42.5 -19.5
t38.5 -19t33 -8.5q19 0 30 12t20 30q4 7 6.5 10.5t10.5 3.5q9 0 12 -5t1 -12q-5 -14 -12.5 -28.5t-18.5 -26.5t-27 -19.5t-38 -7.5q-23 0 -44.5 8.5t-42 19t-40 19.5t-37.5 9q-16 0 -25.5 -12t-19.5 -30q-5 -10 -9 -14t-12 -4z" />
    <glyph glyph-name="Odieresis" unicode="&#xd6;" horiz-adv-x="645" 
d="M156 -2q-41 14 -70 44.5t-44.5 77t-15.5 111.5q0 52 13 108t37 108.5t57.5 99.5t75.5 82t90.5 55.5t102.5 20.5q112 0 164.5 -66t52.5 -182q0 -60 -14 -118.5t-39 -111t-59.5 -97.5t-75.5 -77.5t-88 -51t-96 -18.5q-50 0 -91 15zM155 45q19 -20 41 -28.5t43 -8.5
q46 0 85.5 27.5t72.5 72t58.5 100.5t43 112t26.5 106.5t9 84.5q0 77 -30.5 123.5t-93.5 46.5q-40 0 -77.5 -25t-70.5 -66t-60.5 -93.5t-47 -108t-30 -109.5t-10.5 -97q0 -50 11.5 -83.5t29.5 -53.5zM545 756q-19 0 -29.5 11.5t-10.5 28.5q0 21 14 37t39 16q17 0 28.5 -11.5
t11.5 -28.5q0 -20 -15 -36.5t-38 -16.5zM363 756q-19 0 -29.5 11.5t-10.5 28.5q0 21 14 37t39 16q17 0 28.5 -11.5t11.5 -28.5q0 -20 -15 -36.5t-38 -16.5z" />
    <glyph glyph-name="multiply" unicode="&#xd7;" horiz-adv-x="518" 
d="M114 210l114 114l-114 114l32 32l113 -114l114 113l29 -29l-113 -114l114 -113l-32 -32l-114 114l-114 -114z" />
    <glyph glyph-name="Oslash" unicode="&#xd8;" horiz-adv-x="645" 
d="M108 -60q-8 -13 -17 -13q-20 0 -20 16q0 4 4 12l37 64q-42 29 -64 81.5t-22 130.5q0 52 13 108t37 108.5t57.5 99.5t75.5 82t90.5 55.5t102.5 20.5q57 0 99 -18l32 54q5 8 8.5 11.5t9.5 3.5q10 0 16.5 -7.5t0.5 -18.5l-36 -61q45 -30 66 -84t21 -128q0 -60 -14 -118.5
t-39 -111t-59.5 -97.5t-75.5 -77.5t-88 -51t-96 -18.5q-59 0 -103 19zM164 36q17 -15 36.5 -21.5t38.5 -6.5q46 0 85.5 27.5t72.5 72t58.5 100.5t43 112t26.5 106.5t9 84.5q0 72 -26 116zM483 656q-30 25 -73 25q-40 0 -77.5 -25t-70.5 -66t-60.5 -93.5t-47 -108t-30 -109.5
t-10.5 -97q0 -38 7 -66.5t19 -48.5z" />
    <glyph glyph-name="Ugrave" unicode="&#xd9;" horiz-adv-x="689" 
d="M170 243q-8 -24 -12.5 -49t-4.5 -47q0 -28 7 -52t22.5 -41t40.5 -27t61 -10q51 0 88 20t60 57q12 19 22 38t18 42l121 335q10 27 16.5 55t6.5 48q0 35 -19 48.5t-56 13.5q-15 0 -19.5 3t-4.5 11t4.5 9t9.5 1q27 0 62.5 -1.5t70.5 -1.5q25 0 50 1.5t56 1.5q11 0 15 -2.5
t4 -8.5t-3.5 -9.5t-15.5 -3.5q-32 0 -59.5 -20t-43.5 -62l-166 -431q-17 -43 -37.5 -76t-48.5 -55.5t-65.5 -34.5t-86.5 -12q-39 0 -74 8t-61.5 27.5t-42 51.5t-15.5 81q0 29 6 60.5t19 71.5l98 297q5 14 8.5 30t3.5 33t-13.5 25t-36.5 8q-14 0 -19 2t-5 10t4.5 9t9.5 1
q27 0 55.5 -1.5t63.5 -1.5q26 0 52.5 1.5t58.5 1.5q11 0 14.5 -2.5t3.5 -8.5t-3.5 -8.5t-15.5 -2.5q-38 0 -53 -15t-25 -45zM330 835q-14 11 -14 25q0 11 8.5 20.5t21.5 9.5q11 0 22 -8q6 -5 26 -25t42 -43t40 -42.5t21 -22.5q7 -10 3.5 -15t-14.5 0q-3 1 -14.5 8.5
t-27.5 17.5t-34.5 22t-34.5 23t-28.5 19t-16.5 11z" />
    <glyph glyph-name="Uacute" unicode="&#xda;" horiz-adv-x="689" 
d="M170 243q-8 -24 -12.5 -49t-4.5 -47q0 -28 7 -52t22.5 -41t40.5 -27t61 -10q51 0 88 20t60 57q12 19 22 38t18 42l121 335q10 27 16.5 55t6.5 48q0 35 -19 48.5t-56 13.5q-15 0 -19.5 3t-4.5 11t4.5 9t9.5 1q27 0 62.5 -1.5t70.5 -1.5q25 0 50 1.5t56 1.5q11 0 15 -2.5
t4 -8.5t-3.5 -9.5t-15.5 -3.5q-32 0 -59.5 -20t-43.5 -62l-166 -431q-17 -43 -37.5 -76t-48.5 -55.5t-65.5 -34.5t-86.5 -12q-39 0 -74 8t-61.5 27.5t-42 51.5t-15.5 81q0 29 6 60.5t19 71.5l98 297q5 14 8.5 30t3.5 33t-13.5 25t-36.5 8q-14 0 -19 2t-5 10t4.5 9t9.5 1
q27 0 55.5 -1.5t63.5 -1.5q26 0 52.5 1.5t58.5 1.5q11 0 14.5 -2.5t3.5 -8.5t-3.5 -8.5t-15.5 -2.5q-38 0 -53 -15t-25 -45zM466 734q-11 -5 -14.5 0t3.5 15q3 3 21 22.5t40 42.5t42 43t26 25q11 8 22 8q13 0 21.5 -9.5t8.5 -20.5q0 -14 -14 -25q-4 -3 -16.5 -11t-28.5 -19
t-34.5 -23t-34.5 -22t-27.5 -17.5t-14.5 -8.5z" />
    <glyph glyph-name="Ucircumflex" unicode="&#xdb;" horiz-adv-x="689" 
d="M170 243q-8 -24 -12.5 -49t-4.5 -47q0 -28 7 -52t22.5 -41t40.5 -27t61 -10q51 0 88 20t60 57q12 19 22 38t18 42l121 335q10 27 16.5 55t6.5 48q0 35 -19 48.5t-56 13.5q-15 0 -19.5 3t-4.5 11t4.5 9t9.5 1q27 0 62.5 -1.5t70.5 -1.5q25 0 50 1.5t56 1.5q11 0 15 -2.5
t4 -8.5t-3.5 -9.5t-15.5 -3.5q-32 0 -59.5 -20t-43.5 -62l-166 -431q-17 -43 -37.5 -76t-48.5 -55.5t-65.5 -34.5t-86.5 -12q-39 0 -74 8t-61.5 27.5t-42 51.5t-15.5 81q0 29 6 60.5t19 71.5l98 297q5 14 8.5 30t3.5 33t-13.5 25t-36.5 8q-14 0 -19 2t-5 10t4.5 9t9.5 1
q27 0 55.5 -1.5t63.5 -1.5q26 0 52.5 1.5t58.5 1.5q11 0 14.5 -2.5t3.5 -8.5t-3.5 -8.5t-15.5 -2.5q-38 0 -53 -15t-25 -45zM388 734q-8 -5 -13 -5q-6 0 -8.5 3t-2.5 6q0 5 8 13l112 113q8 9 17.5 15t19.5 6q12 0 18.5 -6.5t10.5 -15.5l54 -117q2 -4 2 -7q0 -6 -3.5 -8
t-7.5 -2q-6 0 -12 6l-75 81z" />
    <glyph glyph-name="Udieresis" unicode="&#xdc;" horiz-adv-x="689" 
d="M170 243q-8 -24 -12.5 -49t-4.5 -47q0 -28 7 -52t22.5 -41t40.5 -27t61 -10q51 0 88 20t60 57q12 19 22 38t18 42l121 335q10 27 16.5 55t6.5 48q0 35 -19 48.5t-56 13.5q-15 0 -19.5 3t-4.5 11t4.5 9t9.5 1q27 0 62.5 -1.5t70.5 -1.5q25 0 50 1.5t56 1.5q11 0 15 -2.5
t4 -8.5t-3.5 -9.5t-15.5 -3.5q-32 0 -59.5 -20t-43.5 -62l-166 -431q-17 -43 -37.5 -76t-48.5 -55.5t-65.5 -34.5t-86.5 -12q-39 0 -74 8t-61.5 27.5t-42 51.5t-15.5 81q0 29 6 60.5t19 71.5l98 297q5 14 8.5 30t3.5 33t-13.5 25t-36.5 8q-14 0 -19 2t-5 10t4.5 9t9.5 1
q27 0 55.5 -1.5t63.5 -1.5q26 0 52.5 1.5t58.5 1.5q11 0 14.5 -2.5t3.5 -8.5t-3.5 -8.5t-15.5 -2.5q-38 0 -53 -15t-25 -45zM572 756q-19 0 -29.5 11.5t-10.5 28.5q0 21 14 37t39 16q17 0 28.5 -11.5t11.5 -28.5q0 -20 -15 -36.5t-38 -16.5zM390 756q-19 0 -29.5 11.5
t-10.5 28.5q0 21 14 37t39 16q17 0 28.5 -11.5t11.5 -28.5q0 -20 -15 -36.5t-38 -16.5z" />
    <glyph glyph-name="Yacute" unicode="&#xdd;" horiz-adv-x="688" 
d="M323 113q-5 -14 -7.5 -26t-2.5 -20q0 -25 21.5 -35t69.5 -10q8 0 11 -3.5t3 -8.5q0 -6 -3 -9t-13 -3q-40 0 -77.5 1t-77.5 1q-29 0 -59 -1.5t-61 -1.5q-14 0 -14 12q0 5 3.5 9.5t14.5 4.5q33 0 55.5 12.5t33.5 44.5l80 240l-96 270q-16 45 -36 65.5t-61 20.5
q-12 0 -12 11t11 11q29 0 60.5 -1t81.5 -1q29 0 58.5 1t60.5 1q10 0 10 -11q0 -13 -10 -13q-11 0 -24.5 -0.5t-25 -3.5t-19.5 -8.5t-8 -14.5q0 -14 6 -33.5l14 -45.5l68 -212l171 188q29 32 46.5 56.5t17.5 37.5q0 22 -20.5 29.5t-45.5 7.5q-9 0 -11.5 3t-2.5 8q0 12 12 12
q16 0 37 -0.5t42 -0.5t39 -0.5t28 -0.5q31 0 55 1t50 1q12 0 12 -12q0 -7 -2.5 -9.5t-11.5 -4.5q-31 -5 -58 -17t-52 -29t-47 -38.5t-43 -43.5l-203 -221zM468 734q-11 -5 -14.5 0t3.5 15q3 3 21 22.5t40 42.5t42 43t26 25q11 8 22 8q13 0 21.5 -9.5t8.5 -20.5
q0 -14 -14 -25q-4 -3 -16.5 -11t-28.5 -19t-34.5 -23t-34.5 -22t-27.5 -17.5t-14.5 -8.5z" />
    <glyph glyph-name="Thorn" unicode="&#xde;" horiz-adv-x="587" 
d="M154 119q-8 -23 -13 -41t-5 -32q0 -7 3 -11t11.5 -6.5t23.5 -3t38 -0.5q13 0 13 -13q0 -5 -2.5 -9.5t-13.5 -4.5q-30 0 -61 1t-68 1q-26 0 -52 -1t-55 -1q-12 0 -12 13q0 5 2.5 9.5t10.5 4.5q37 0 55.5 19.5t32.5 64.5l149 471q5 14 10 33.5t5 31.5q0 17 -12.5 23.5
t-42.5 7.5q-10 0 -14.5 2t-4.5 10t4 9t9 1q14 0 30.5 -0.5t32.5 -0.5t30.5 -0.5t24.5 -0.5q24 0 48.5 1t54.5 1q11 0 14.5 -2.5t3.5 -8.5t-3.5 -9.5t-15.5 -3.5q-38 0 -53.5 -14.5t-24.5 -45.5l-7 -24h43q59 0 102 -15t70.5 -40t40.5 -56.5t13 -64.5q0 -42 -17.5 -75.5
t-47 -58t-68.5 -39.5t-82 -20q-31 -3 -64.5 -4.5t-65.5 -1.5h-39zM192 239h48q44 0 87 10t77 33.5t55 60.5t21 91q0 25 -8.5 49t-25 42.5t-41 30t-55.5 11.5q-32 0 -46.5 -6.5t-21.5 -23.5z" />
    <glyph glyph-name="germandbls" unicode="&#xdf;" horiz-adv-x="495" 
d="M26 -19q-12 -36 -28.5 -66.5t-39 -52.5t-52 -34.5t-67.5 -12.5q-15 0 -30.5 4t-28.5 11.5t-21 18.5t-8 25t9.5 24t26.5 10q16 0 24 -9t15 -25q8 -19 16 -25t23 -6q18 0 31.5 11t24.5 28.5t19.5 38t14.5 39.5l173 533q12 38 32 76t50 68t71.5 49t98.5 19q34 0 58 -8.5
t39.5 -22.5t22.5 -31.5t7 -35.5q0 -30 -14.5 -53t-36.5 -42t-47.5 -35.5t-47.5 -34t-36.5 -38.5t-14.5 -49q0 -16 7 -32.5t21 -42.5q10 -18 21.5 -37.5t21.5 -39t16.5 -40.5t6.5 -42q0 -28 -10.5 -52t-29 -41t-45 -27t-57.5 -10q-57 0 -91 18.5t-34 47.5q0 15 10 24t24 9
q15 0 25 -8.5t21 -31.5q8 -17 22.5 -27.5t34.5 -10.5q13 0 26.5 3.5t24 11t17 20.5t6.5 33q0 19 -6.5 37.5t-16 35.5t-20.5 34.5t-21 35.5q-14 25 -25.5 50t-11.5 49q0 35 14 59.5t35.5 44t46.5 36t46.5 35t35.5 41t14 54.5q0 35 -17.5 60t-63.5 25q-30 0 -53 -11t-39.5 -28
t-27.5 -37.5t-18 -40.5z" />
    <glyph glyph-name="agrave" unicode="&#xe0;" horiz-adv-x="437" 
d="M202 130q-14 -21 -32.5 -45t-41 -45t-47.5 -35t-53 -14t-46.5 14.5t-18.5 52.5q0 32 13.5 72.5t37 83t54.5 83.5t66.5 73t73.5 51.5t74 19.5q17 0 30.5 -7.5t19.5 -18.5q4 8 8 12.5t12 4.5q5 0 18 0.5t18 0.5q16 0 16 -7q0 -3 -3 -9q-33 -78 -72 -163t-72 -170l-4 -12
t-3 -17q0 -9 7 -9q12 0 33 26t47 61q4 6 9 6t8 -4t1 -8q-19 -30 -40.5 -58t-55.5 -53q-10 -8 -26 -14.5t-33 -6.5q-11 0 -18 6.5t-7 19.5q0 28 9 50.5t23 55.5zM207 174q22 34 34 57q16 27 27 50t23 52q14 37 14 56q0 10 -6 20.5t-24 10.5q-20 0 -45.5 -19.5t-52 -50.5
t-52 -70.5t-45.5 -79.5t-32.5 -76.5t-12.5 -62.5q0 -29 25 -29q22 0 48.5 22.5t52 54.5t46.5 65zM226 590l-29 29q-9 9 -11.5 19.5t1 19.5t11.5 15t19 6q8 0 16.5 -3.5t13.5 -11.5q24 -38 51.5 -80.5t48.5 -80.5q5 -10 -2.5 -15.5t-15.5 2.5q-15 16 -33 33t-35.5 34
t-34.5 33z" />
    <glyph glyph-name="aacute" unicode="&#xe1;" horiz-adv-x="437" 
d="M202 130q-14 -21 -32.5 -45t-41 -45t-47.5 -35t-53 -14t-46.5 14.5t-18.5 52.5q0 32 13.5 72.5t37 83t54.5 83.5t66.5 73t73.5 51.5t74 19.5q17 0 30.5 -7.5t19.5 -18.5q4 8 8 12.5t12 4.5q5 0 18 0.5t18 0.5q16 0 16 -7q0 -3 -3 -9q-33 -78 -72 -163t-72 -170l-4 -12
t-3 -17q0 -9 7 -9q12 0 33 26t47 61q4 6 9 6t8 -4t1 -8q-19 -30 -40.5 -58t-55.5 -53q-10 -8 -26 -14.5t-33 -6.5q-11 0 -18 6.5t-7 19.5q0 28 9 50.5t23 55.5zM207 174q22 34 34 57q16 27 27 50t23 52q14 37 14 56q0 10 -6 20.5t-24 10.5q-20 0 -45.5 -19.5t-52 -50.5
t-52 -70.5t-45.5 -79.5t-32.5 -76.5t-12.5 -62.5q0 -29 25 -29q22 0 48.5 22.5t52 54.5t46.5 65zM306 487q-7 6 -2 16q21 38 48.5 80.5t51.5 80.5q5 8 13.5 11.5t16.5 3.5q11 0 19 -6t11.5 -15t1 -19.5t-11.5 -19.5q-13 -13 -29.5 -29t-34 -33t-35.5 -34t-33 -33
q-8 -8 -16 -3z" />
    <glyph glyph-name="acircumflex" unicode="&#xe2;" horiz-adv-x="437" 
d="M202 130q-14 -21 -32.5 -45t-41 -45t-47.5 -35t-53 -14t-46.5 14.5t-18.5 52.5q0 32 13.5 72.5t37 83t54.5 83.5t66.5 73t73.5 51.5t74 19.5q17 0 30.5 -7.5t19.5 -18.5q4 8 8 12.5t12 4.5q5 0 18 0.5t18 0.5q16 0 16 -7q0 -3 -3 -9q-33 -78 -72 -163t-72 -170l-4 -12
t-3 -17q0 -9 7 -9q12 0 33 26t47 61q4 6 9 6t8 -4t1 -8q-19 -30 -40.5 -58t-55.5 -53q-10 -8 -26 -14.5t-33 -6.5q-11 0 -18 6.5t-7 19.5q0 28 9 50.5t23 55.5zM207 174q22 34 34 57q16 27 27 50t23 52q14 37 14 56q0 10 -6 20.5t-24 10.5q-20 0 -45.5 -19.5t-52 -50.5
t-52 -70.5t-45.5 -79.5t-32.5 -76.5t-12.5 -62.5q0 -29 25 -29q22 0 48.5 22.5t52 54.5t46.5 65zM217 487q-11 -9 -19 -4.5t0 15.5l132 171q15 19 35 19q12 0 20 -5.5t10 -16.5l21 -175q-1 -11 -9 -12.5t-12 7.5l-48 120z" />
    <glyph glyph-name="atilde" unicode="&#xe3;" horiz-adv-x="437" 
d="M202 130q-14 -21 -32.5 -45t-41 -45t-47.5 -35t-53 -14t-46.5 14.5t-18.5 52.5q0 32 13.5 72.5t37 83t54.5 83.5t66.5 73t73.5 51.5t74 19.5q17 0 30.5 -7.5t19.5 -18.5q4 8 8 12.5t12 4.5q5 0 18 0.5t18 0.5q16 0 16 -7q0 -3 -3 -9q-33 -78 -72 -163t-72 -170l-4 -12
t-3 -17q0 -9 7 -9q12 0 33 26t47 61q4 6 9 6t8 -4t1 -8q-19 -30 -40.5 -58t-55.5 -53q-10 -8 -26 -14.5t-33 -6.5q-11 0 -18 6.5t-7 19.5q0 28 9 50.5t23 55.5zM207 174q22 34 34 57q16 27 27 50t23 52q14 37 14 56q0 10 -6 20.5t-24 10.5q-20 0 -45.5 -19.5t-52 -50.5
t-52 -70.5t-45.5 -79.5t-32.5 -76.5t-12.5 -62.5q0 -29 25 -29q22 0 48.5 22.5t52 54.5t46.5 65zM184 533q-9 0 -12 7.5t2 18.5q15 33 39 55t59 22q22 0 44 -9t42.5 -19.5t38.5 -19t33 -8.5q19 0 30 12t20 30q4 7 6.5 10.5t10.5 3.5q9 0 12 -5t1 -12q-5 -14 -12.5 -28.5
t-18.5 -26.5t-27 -19.5t-38 -7.5q-23 0 -44.5 8.5t-42 19t-40 19.5t-37.5 9q-16 0 -25.5 -12t-19.5 -30q-5 -10 -9 -14t-12 -4z" />
    <glyph glyph-name="adieresis" unicode="&#xe4;" horiz-adv-x="437" 
d="M202 130q-14 -21 -32.5 -45t-41 -45t-47.5 -35t-53 -14t-46.5 14.5t-18.5 52.5q0 32 13.5 72.5t37 83t54.5 83.5t66.5 73t73.5 51.5t74 19.5q17 0 30.5 -7.5t19.5 -18.5q4 8 8 12.5t12 4.5q5 0 18 0.5t18 0.5q16 0 16 -7q0 -3 -3 -9q-33 -78 -72 -163t-72 -170l-4 -12
t-3 -17q0 -9 7 -9q12 0 33 26t47 61q4 6 9 6t8 -4t1 -8q-19 -30 -40.5 -58t-55.5 -53q-10 -8 -26 -14.5t-33 -6.5q-11 0 -18 6.5t-7 19.5q0 28 9 50.5t23 55.5zM207 174q22 34 34 57q16 27 27 50t23 52q14 37 14 56q0 10 -6 20.5t-24 10.5q-20 0 -45.5 -19.5t-52 -50.5
t-52 -70.5t-45.5 -79.5t-32.5 -76.5t-12.5 -62.5q0 -29 25 -29q22 0 48.5 22.5t52 54.5t46.5 65zM420 545q-19 0 -29.5 11.5t-10.5 28.5q0 21 14 37t39 16q17 0 28.5 -11.5t11.5 -28.5q0 -20 -15 -36.5t-38 -16.5zM238 545q-19 0 -29.5 11.5t-10.5 28.5q0 21 14 37t39 16
q17 0 28.5 -11.5t11.5 -28.5q0 -20 -15 -36.5t-38 -16.5z" />
    <glyph glyph-name="aring" unicode="&#xe5;" horiz-adv-x="437" 
d="M202 130q-14 -21 -32.5 -45t-41 -45t-47.5 -35t-53 -14t-46.5 14.5t-18.5 52.5q0 32 13.5 72.5t37 83t54.5 83.5t66.5 73t73.5 51.5t74 19.5q17 0 30.5 -7.5t19.5 -18.5q4 8 8 12.5t12 4.5q5 0 18 0.5t18 0.5q16 0 16 -7q0 -3 -3 -9q-33 -78 -72 -163t-72 -170l-4 -12
t-3 -17q0 -9 7 -9q12 0 33 26t47 61q4 6 9 6t8 -4t1 -8q-19 -30 -40.5 -58t-55.5 -53q-10 -8 -26 -14.5t-33 -6.5q-11 0 -18 6.5t-7 19.5q0 28 9 50.5t23 55.5zM207 174q22 34 34 57q16 27 27 50t23 52q14 37 14 56q0 10 -6 20.5t-24 10.5q-20 0 -45.5 -19.5t-52 -50.5
t-52 -70.5t-45.5 -79.5t-32.5 -76.5t-12.5 -62.5q0 -29 25 -29q22 0 48.5 22.5t52 54.5t46.5 65zM311 567q13 -16 36 -16q20 0 33.5 16t13.5 41q0 26 -13 41.5t-33 15.5q-23 0 -36.5 -15.5t-13.5 -41.5q0 -25 13 -41zM287 548q-25 24 -25 60q0 34 25 58t61 24q33 0 57.5 -23
t24.5 -59q0 -17 -6.5 -32.5t-18 -26.5t-26.5 -17.5t-31 -6.5q-36 0 -61 23z" />
    <glyph glyph-name="ae" unicode="&#xe6;" horiz-adv-x="563" 
d="M204 77q0 25 6 54q-15 -21 -35.5 -45.5t-44.5 -45.5t-50 -35t-52 -14q-28 0 -46.5 14.5t-18.5 52.5q0 32 13.5 72.5t37 83t54.5 83.5t66.5 73t73.5 51.5t74 19.5q17 0 30 -8.5t20 -22.5q8 16 11 23.5t11 7.5q5 0 17.5 0.5t17.5 0.5q8 0 10 -0.5t2 -5.5q0 -1 -3 -9.5
t-5 -13.5q17 13 39 20.5t39 7.5q37 0 54.5 -14.5t17.5 -37.5q0 -28 -20 -55.5t-53.5 -54t-78.5 -51.5t-96 -49q-10 -32 -15 -57t-5 -46q0 -26 8.5 -39t30.5 -13q23 0 58 26.5t65 78.5q6 12 15 12q7 0 10 -5t-1 -12q-12 -23 -29 -46.5t-39 -43t-48 -31.5t-57 -12
q-13 0 -28 3.5t-27.5 13t-20.5 26.5t-8 43zM35 61q0 -29 25 -29q22 0 48.5 22.5t52 54.5t47 65.5t33.5 56.5q14 25 26.5 49t23.5 53q14 37 14 56q0 10 -6 20.5t-24 10.5q-20 0 -45.5 -19.5t-52 -50.5t-52 -70.5t-45.5 -79.5t-32.5 -76.5t-12.5 -62.5zM337 282
q-19 -39 -33 -78q29 16 61.5 38t60 47t45.5 51.5t18 52.5q0 14 -8 21t-19 7q-19 0 -40.5 -19.5t-43 -50t-41.5 -69.5z" />
    <glyph glyph-name="ccedilla" unicode="&#xe7;" horiz-adv-x="344" 
d="M35 -67q6 1 11 1.5t11 0.5q26 0 45 -13.5t19 -46.5q0 -23 -10.5 -40t-27 -28t-38 -16t-43.5 -5q-10 0 -21 1.5t-20.5 5t-15.5 9t-6 14.5q0 8 5 13t13 5q10 0 18 -7t30 -7q27 0 43.5 11t16.5 35q0 20 -10.5 27t-24.5 7q-11 0 -22.5 -2.5t-19.5 -2.5q-10 0 -5 9l54 91
q-24 5 -41.5 25t-17.5 65q0 33 10.5 72t29.5 79t45 76.5t57 65.5t66.5 46t72.5 17q14 0 27.5 -2.5t24.5 -8.5t18 -16t7 -26q0 -15 -12 -27.5t-31 -12.5q-18 0 -28 9t-10 23q0 8 3 16.5t3 14.5q0 9 -13 9q-21 0 -44 -18t-45.5 -47.5t-43 -66.5t-36 -74.5t-24.5 -73t-9 -60.5
q0 -28 10 -44.5t33 -16.5q29 0 61.5 23t67.5 72q6 8 12 8q8 0 11.5 -6t-1.5 -13q-12 -17 -28 -36.5t-37 -36t-47.5 -28t-58.5 -11.5z" />
    <glyph glyph-name="egrave" unicode="&#xe8;" horiz-adv-x="337" 
d="M165 228q-45 -25 -96 -49q-10 -32 -15 -57t-5 -46q0 -26 8.5 -39t30.5 -13q23 0 58 26.5t65 78.5q6 12 15 12q7 0 10 -5t-1 -12q-12 -23 -29 -46.5t-39 -43t-48 -31.5t-57 -12q-13 0 -28 3.5t-27.5 13t-20.5 26.5t-8 43q0 34 10.5 74t29 80.5t43.5 78t54.5 67t62.5 47
t67 17.5q37 0 54.5 -14.5t17.5 -37.5q0 -28 -20 -55.5t-53.5 -54t-78.5 -51.5zM111 282q-19 -39 -33 -78q29 16 61.5 38t60 47t45.5 51.5t18 52.5q0 14 -8 21t-19 7q-19 0 -40.5 -19.5t-43 -50t-41.5 -69.5zM163 590l-29 29q-9 9 -11.5 19.5t1 19.5t11.5 15t19 6
q8 0 16.5 -3.5t13.5 -11.5q24 -38 51.5 -80.5t48.5 -80.5q5 -10 -2.5 -15.5t-15.5 2.5q-15 16 -33 33t-35.5 34t-34.5 33z" />
    <glyph glyph-name="eacute" unicode="&#xe9;" horiz-adv-x="337" 
d="M165 228q-45 -25 -96 -49q-10 -32 -15 -57t-5 -46q0 -26 8.5 -39t30.5 -13q23 0 58 26.5t65 78.5q6 12 15 12q7 0 10 -5t-1 -12q-12 -23 -29 -46.5t-39 -43t-48 -31.5t-57 -12q-13 0 -28 3.5t-27.5 13t-20.5 26.5t-8 43q0 34 10.5 74t29 80.5t43.5 78t54.5 67t62.5 47
t67 17.5q37 0 54.5 -14.5t17.5 -37.5q0 -28 -20 -55.5t-53.5 -54t-78.5 -51.5zM111 282q-19 -39 -33 -78q29 16 61.5 38t60 47t45.5 51.5t18 52.5q0 14 -8 21t-19 7q-19 0 -40.5 -19.5t-43 -50t-41.5 -69.5zM253 487q-7 6 -2 16q21 38 48.5 80.5t51.5 80.5q5 8 13.5 11.5
t16.5 3.5q11 0 19 -6t11.5 -15t1 -19.5t-11.5 -19.5q-13 -13 -29.5 -29t-34 -33t-35.5 -34t-33 -33q-8 -8 -16 -3z" />
    <glyph glyph-name="ecircumflex" unicode="&#xea;" horiz-adv-x="337" 
d="M165 228q-45 -25 -96 -49q-10 -32 -15 -57t-5 -46q0 -26 8.5 -39t30.5 -13q23 0 58 26.5t65 78.5q6 12 15 12q7 0 10 -5t-1 -12q-12 -23 -29 -46.5t-39 -43t-48 -31.5t-57 -12q-13 0 -28 3.5t-27.5 13t-20.5 26.5t-8 43q0 34 10.5 74t29 80.5t43.5 78t54.5 67t62.5 47
t67 17.5q37 0 54.5 -14.5t17.5 -37.5q0 -28 -20 -55.5t-53.5 -54t-78.5 -51.5zM111 282q-19 -39 -33 -78q29 16 61.5 38t60 47t45.5 51.5t18 52.5q0 14 -8 21t-19 7q-19 0 -40.5 -19.5t-43 -50t-41.5 -69.5zM165 487q-11 -9 -19 -4.5t0 15.5l132 171q15 19 35 19
q12 0 20 -5.5t10 -16.5l21 -175q-1 -11 -9 -12.5t-12 7.5l-48 120z" />
    <glyph glyph-name="edieresis" unicode="&#xeb;" horiz-adv-x="337" 
d="M165 228q-45 -25 -96 -49q-10 -32 -15 -57t-5 -46q0 -26 8.5 -39t30.5 -13q23 0 58 26.5t65 78.5q6 12 15 12q7 0 10 -5t-1 -12q-12 -23 -29 -46.5t-39 -43t-48 -31.5t-57 -12q-13 0 -28 3.5t-27.5 13t-20.5 26.5t-8 43q0 34 10.5 74t29 80.5t43.5 78t54.5 67t62.5 47
t67 17.5q37 0 54.5 -14.5t17.5 -37.5q0 -28 -20 -55.5t-53.5 -54t-78.5 -51.5zM111 282q-19 -39 -33 -78q29 16 61.5 38t60 47t45.5 51.5t18 52.5q0 14 -8 21t-19 7q-19 0 -40.5 -19.5t-43 -50t-41.5 -69.5zM372 545q-19 0 -29.5 11.5t-10.5 28.5q0 21 14 37t39 16
q17 0 28.5 -11.5t11.5 -28.5q0 -20 -15 -36.5t-38 -16.5zM190 545q-19 0 -29.5 11.5t-10.5 28.5q0 21 14 37t39 16q17 0 28.5 -11.5t11.5 -28.5q0 -20 -15 -36.5t-38 -16.5z" />
    <glyph glyph-name="igrave" unicode="&#xec;" horiz-adv-x="250" 
d="M205 408q0 -14 -7 -29q-29 -77 -66.5 -154.5t-69.5 -152.5q-5 -10 -6 -18.5t8 -8.5q6 0 18 10t25.5 23.5t25.5 27.5t18 22q7 12 13 12t9.5 -5t-0.5 -10q-29 -42 -57 -67.5t-60 -45.5q-10 -6 -23.5 -10t-27.5 -4q-12 0 -20.5 8t-8.5 22q0 11 6 28q14 33 31.5 71t36.5 77.5
t37 79t34 76.5q3 7 5 12t2 10q0 10 -9 10q-6 0 -18.5 -10t-26.5 -26t-28.5 -35t-26.5 -38q-5 -7 -12 -7q-6 0 -9 4.5t0 9.5q21 35 53 71t65 59q29 21 57 21q11 0 21.5 -7.5t10.5 -25.5zM73 590l-29 29q-9 9 -11.5 19.5t1 19.5t11.5 15t19 6q8 0 16.5 -3.5t13.5 -11.5
q24 -38 51.5 -80.5t48.5 -80.5q5 -10 -2.5 -15.5t-15.5 2.5q-15 16 -33 33t-35.5 34t-34.5 33z" />
    <glyph glyph-name="iacute" unicode="&#xed;" horiz-adv-x="250" 
d="M205 408q0 -14 -7 -29q-29 -77 -66.5 -154.5t-69.5 -152.5q-5 -10 -6 -18.5t8 -8.5q6 0 18 10t25.5 23.5t25.5 27.5t18 22q7 12 13 12t9.5 -5t-0.5 -10q-29 -42 -57 -67.5t-60 -45.5q-10 -6 -23.5 -10t-27.5 -4q-12 0 -20.5 8t-8.5 22q0 11 6 28q14 33 31.5 71t36.5 77.5
t37 79t34 76.5q3 7 5 12t2 10q0 10 -9 10q-6 0 -18.5 -10t-26.5 -26t-28.5 -35t-26.5 -38q-5 -7 -12 -7q-6 0 -9 4.5t0 9.5q21 35 53 71t65 59q29 21 57 21q11 0 21.5 -7.5t10.5 -25.5zM168 487q-7 6 -2 16q21 38 48.5 80.5t51.5 80.5q5 8 13.5 11.5t16.5 3.5q11 0 19 -6
t11.5 -15t1 -19.5t-11.5 -19.5q-13 -13 -29.5 -29t-34 -33t-35.5 -34t-33 -33q-8 -8 -16 -3z" />
    <glyph glyph-name="icircumflex" unicode="&#xee;" horiz-adv-x="250" 
d="M205 408q0 -14 -7 -29q-29 -77 -66.5 -154.5t-69.5 -152.5q-5 -10 -6 -18.5t8 -8.5q6 0 18 10t25.5 23.5t25.5 27.5t18 22q7 12 13 12t9.5 -5t-0.5 -10q-29 -42 -57 -67.5t-60 -45.5q-10 -6 -23.5 -10t-27.5 -4q-12 0 -20.5 8t-8.5 22q0 11 6 28q14 33 31.5 71t36.5 77.5
t37 79t34 76.5q3 7 5 12t2 10q0 10 -9 10q-6 0 -18.5 -10t-26.5 -26t-28.5 -35t-26.5 -38q-5 -7 -12 -7q-6 0 -9 4.5t0 9.5q21 35 53 71t65 59q29 21 57 21q11 0 21.5 -7.5t10.5 -25.5zM80 487q-11 -9 -19 -4.5t0 15.5l132 171q15 19 35 19q12 0 20 -5.5t10 -16.5l21 -175
q-1 -11 -9 -12.5t-12 7.5l-48 120z" />
    <glyph glyph-name="idieresis" unicode="&#xef;" horiz-adv-x="250" 
d="M205 408q0 -14 -7 -29q-29 -77 -66.5 -154.5t-69.5 -152.5q-5 -10 -6 -18.5t8 -8.5q6 0 18 10t25.5 23.5t25.5 27.5t18 22q7 12 13 12t9.5 -5t-0.5 -10q-29 -42 -57 -67.5t-60 -45.5q-10 -6 -23.5 -10t-27.5 -4q-12 0 -20.5 8t-8.5 22q0 11 6 28q14 33 31.5 71t36.5 77.5
t37 79t34 76.5q3 7 5 12t2 10q0 10 -9 10q-6 0 -18.5 -10t-26.5 -26t-28.5 -35t-26.5 -38q-5 -7 -12 -7q-6 0 -9 4.5t0 9.5q21 35 53 71t65 59q29 21 57 21q11 0 21.5 -7.5t10.5 -25.5zM266 545q-19 0 -29.5 11.5t-10.5 28.5q0 21 14 37t39 16q17 0 28.5 -11.5t11.5 -28.5
q0 -20 -15 -36.5t-38 -16.5zM84 545q-19 0 -29.5 11.5t-10.5 28.5q0 21 14 37t39 16q17 0 28.5 -11.5t11.5 -28.5q0 -20 -15 -36.5t-38 -16.5z" />
    <glyph glyph-name="eth" unicode="&#xf0;" horiz-adv-x="381" 
d="M146 470q-5 -3 -10 -3q-7 0 -12 5t-5 12q0 9 11 15l99 63q-36 56 -101 95q-8 5 -9.5 8t-1.5 6q0 10 13 10q7 0 16 -3.5t16 -7.5q66 -35 106 -83l97 62q7 5 13 5q7 0 11.5 -5t4.5 -11q0 -8 -8 -14l-98 -63q4 -6 7 -12q42 -72 42 -164q0 -34 -4.5 -67.5t-15.5 -72.5
t-32.5 -83.5t-53 -82.5t-71.5 -63t-88 -25q-18 0 -34.5 5.5t-30 20t-21.5 39t-8 63.5q0 43 18 94t50.5 95t77.5 73.5t100 29.5q17 0 31 -5q15 -5 26 -13q-4 76 -36 141zM42 28q9 -16 29 -16q22 0 45.5 18t46 47.5t42 65.5t34 72.5t23 68.5t8.5 53q0 17 -6.5 33.5t-29.5 16.5
q-32 0 -67 -31.5t-65 -78.5t-49.5 -102t-19.5 -102q0 -29 9 -45z" />
    <glyph glyph-name="ntilde" unicode="&#xf1;" horiz-adv-x="451" 
d="M137 244q26 38 55 78.5t71 82.5q22 21 43 28.5t42 7.5q19 0 32 -10t13 -32q0 -14 -5 -31q-24 -78 -58.5 -150.5t-66.5 -147.5q-5 -10 -6.5 -18.5t7.5 -8.5q7 0 20 12t26.5 27.5t25.5 30t16 20.5q5 5 7 7.5t5 2.5q4 0 8.5 -4t-0.5 -11q-23 -35 -52 -65.5t-58 -49.5
q-14 -8 -27 -11.5t-23 -3.5q-34 0 -34 30q0 11 6 28q29 69 63 140t64 146q10 22 10 42q0 18 -16 18q-10 0 -18 -5.5t-17 -13.5q-11 -10 -31.5 -35t-42.5 -54t-42.5 -58t-30.5 -47q-26 -45 -47 -88t-41 -91q-2 -4 -4.5 -6.5t-8.5 -3.5q-11 -1 -22.5 -1.5t-16.5 -0.5
q-15 0 -15 7q0 1 2 9q34 78 73 169t71 176q4 12 4 22q0 12 -10 12q-5 0 -15.5 -10t-23 -26t-26 -35.5t-25.5 -38.5q-5 -6 -10 -6q-7 0 -9.5 5t0.5 10q8 13 19.5 30t25 35t29.5 35.5t33 29.5q11 8 24 13.5t27 5.5q11 0 20 -5.5t9 -19.5q0 -16 -5.5 -38.5t-14 -46t-17.5 -46
t-16 -39.5zM131 533q-9 0 -12 7.5t2 18.5q15 33 39 55t59 22q22 0 44 -9t42.5 -19.5t38.5 -19t33 -8.5q19 0 30 12t20 30q4 7 6.5 10.5t10.5 3.5q9 0 12 -5t1 -12q-5 -14 -12.5 -28.5t-18.5 -26.5t-27 -19.5t-38 -7.5q-23 0 -44.5 8.5t-42 19t-40 19.5t-37.5 9
q-16 0 -25.5 -12t-19.5 -30q-5 -10 -9 -14t-12 -4z" />
    <glyph glyph-name="ograve" unicode="&#xf2;" horiz-adv-x="381" 
d="M37 -3q-16 5 -29.5 19.5t-21.5 39t-8 63.5q0 29 9 64t25 70.5t39 69.5t52 60t62.5 42t70.5 16q19 0 36 -5t29.5 -19t19.5 -38t7 -62q0 -29 -9 -64.5t-25.5 -72t-40 -70.5t-52 -60.5t-61 -42.5t-68.5 -16q-18 0 -35 6zM42 28q9 -16 29 -16q22 0 46.5 20.5t47.5 53.5
t43.5 73.5t36.5 80.5t25 74.5t9 55.5q0 17 -6.5 33.5t-29.5 16.5q-21 0 -44.5 -17t-47 -45t-45 -64.5t-38 -75t-26 -76.5t-9.5 -69q0 -29 9 -45zM158 590l-29 29q-9 9 -11.5 19.5t1 19.5t11.5 15t19 6q8 0 16.5 -3.5t13.5 -11.5q24 -38 51.5 -80.5t48.5 -80.5
q5 -10 -2.5 -15.5t-15.5 2.5q-15 16 -33 33t-35.5 34t-34.5 33z" />
    <glyph glyph-name="oacute" unicode="&#xf3;" horiz-adv-x="381" 
d="M37 -3q-16 5 -29.5 19.5t-21.5 39t-8 63.5q0 29 9 64t25 70.5t39 69.5t52 60t62.5 42t70.5 16q19 0 36 -5t29.5 -19t19.5 -38t7 -62q0 -29 -9 -64.5t-25.5 -72t-40 -70.5t-52 -60.5t-61 -42.5t-68.5 -16q-18 0 -35 6zM42 28q9 -16 29 -16q22 0 46.5 20.5t47.5 53.5
t43.5 73.5t36.5 80.5t25 74.5t9 55.5q0 17 -6.5 33.5t-29.5 16.5q-21 0 -44.5 -17t-47 -45t-45 -64.5t-38 -75t-26 -76.5t-9.5 -69q0 -29 9 -45zM249 487q-7 6 -2 16q21 38 48.5 80.5t51.5 80.5q5 8 13.5 11.5t16.5 3.5q11 0 19 -6t11.5 -15t1 -19.5t-11.5 -19.5
q-13 -13 -29.5 -29t-34 -33t-35.5 -34t-33 -33q-8 -8 -16 -3z" />
    <glyph glyph-name="ocircumflex" unicode="&#xf4;" horiz-adv-x="381" 
d="M37 -3q-16 5 -29.5 19.5t-21.5 39t-8 63.5q0 29 9 64t25 70.5t39 69.5t52 60t62.5 42t70.5 16q19 0 36 -5t29.5 -19t19.5 -38t7 -62q0 -29 -9 -64.5t-25.5 -72t-40 -70.5t-52 -60.5t-61 -42.5t-68.5 -16q-18 0 -35 6zM42 28q9 -16 29 -16q22 0 46.5 20.5t47.5 53.5
t43.5 73.5t36.5 80.5t25 74.5t9 55.5q0 17 -6.5 33.5t-29.5 16.5q-21 0 -44.5 -17t-47 -45t-45 -64.5t-38 -75t-26 -76.5t-9.5 -69q0 -29 9 -45zM170 487q-11 -9 -19 -4.5t0 15.5l132 171q15 19 35 19q12 0 20 -5.5t10 -16.5l21 -175q-1 -11 -9 -12.5t-12 7.5l-48 120z" />
    <glyph glyph-name="otilde" unicode="&#xf5;" horiz-adv-x="381" 
d="M37 -3q-16 5 -29.5 19.5t-21.5 39t-8 63.5q0 29 9 64t25 70.5t39 69.5t52 60t62.5 42t70.5 16q19 0 36 -5t29.5 -19t19.5 -38t7 -62q0 -29 -9 -64.5t-25.5 -72t-40 -70.5t-52 -60.5t-61 -42.5t-68.5 -16q-18 0 -35 6zM42 28q9 -16 29 -16q22 0 46.5 20.5t47.5 53.5
t43.5 73.5t36.5 80.5t25 74.5t9 55.5q0 17 -6.5 33.5t-29.5 16.5q-21 0 -44.5 -17t-47 -45t-45 -64.5t-38 -75t-26 -76.5t-9.5 -69q0 -29 9 -45zM131 533q-9 0 -12 7.5t2 18.5q15 33 39 55t59 22q22 0 44 -9t42.5 -19.5t38.5 -19t33 -8.5q19 0 30 12t20 30q4 7 6.5 10.5
t10.5 3.5q9 0 12 -5t1 -12q-5 -14 -12.5 -28.5t-18.5 -26.5t-27 -19.5t-38 -7.5q-23 0 -44.5 8.5t-42 19t-40 19.5t-37.5 9q-16 0 -25.5 -12t-19.5 -30q-5 -10 -9 -14t-12 -4z" />
    <glyph glyph-name="odieresis" unicode="&#xf6;" horiz-adv-x="381" 
d="M37 -3q-16 5 -29.5 19.5t-21.5 39t-8 63.5q0 29 9 64t25 70.5t39 69.5t52 60t62.5 42t70.5 16q19 0 36 -5t29.5 -19t19.5 -38t7 -62q0 -29 -9 -64.5t-25.5 -72t-40 -70.5t-52 -60.5t-61 -42.5t-68.5 -16q-18 0 -35 6zM42 28q9 -16 29 -16q22 0 46.5 20.5t47.5 53.5
t43.5 73.5t36.5 80.5t25 74.5t9 55.5q0 17 -6.5 33.5t-29.5 16.5q-21 0 -44.5 -17t-47 -45t-45 -64.5t-38 -75t-26 -76.5t-9.5 -69q0 -29 9 -45zM378 545q-19 0 -29.5 11.5t-10.5 28.5q0 21 14 37t39 16q17 0 28.5 -11.5t11.5 -28.5q0 -20 -15 -36.5t-38 -16.5zM196 545
q-19 0 -29.5 11.5t-10.5 28.5q0 21 14 37t39 16q17 0 28.5 -11.5t11.5 -28.5q0 -20 -15 -36.5t-38 -16.5z" />
    <glyph glyph-name="divide" unicode="&#xf7;" horiz-adv-x="518" 
d="M217 407q-13 13 -13 33t13.5 33t33.5 13t33 -13t13 -33t-13 -33t-33 -13t-34 13zM76 304v42h366v-42h-366zM217 176q-13 13 -13 33t13.5 33t33.5 13t33 -13t13 -33t-13 -33t-33 -13t-34 13z" />
    <glyph glyph-name="oslash" unicode="&#xf8;" horiz-adv-x="381" 
d="M-21 -39q-5 -7 -8.5 -9t-7.5 -2q-5 0 -10 4t-5 9q0 4 1.5 7.5t3.5 5.5l42 58q-8 14 -12.5 35t-4.5 50t9 64t25 70.5t39 69.5t52 60t62.5 42t70.5 16q27 0 47 -10l28 38q9 13 16 13q11 0 14.5 -7.5t-1.5 -14.5l-35 -48q11 -14 17 -37t6 -58q0 -29 -9 -64.5t-25.5 -72
t-40 -70.5t-52 -60.5t-61 -42.5t-68.5 -16q-16 0 -31 4t-27 14zM37 41q8 -29 34 -29q22 0 46.5 20.5t47.5 53.5t43.5 73.5t36.5 80.5t25 74.5t9 55.5v5zM268 410q-10 10 -25 10q-20 0 -43 -16t-45.5 -42.5t-43.5 -60.5t-37.5 -71t-27.5 -74t-13 -69z" />
    <glyph glyph-name="ugrave" unicode="&#xf9;" horiz-adv-x="453" 
d="M246 186q-26 -38 -54 -78.5t-73 -80.5q-23 -20 -42 -26.5t-37 -6.5q-19 0 -32 10t-13 32q0 8 2 17.5t5 17.5q27 72 56 146t55 148q4 10 4 18.5t-5 8.5q-7 0 -21 -14t-29 -32t-28 -35t-17 -23q-5 -5 -7 -7.5t-5 -2.5q-4 0 -8.5 4t0.5 11q12 18 26 36.5t30 36t31.5 32.5
t30.5 24q14 8 26.5 11.5t22.5 3.5q30 0 30 -30q0 -6 -1.5 -14.5t-4.5 -16.5q-24 -71 -52.5 -141t-58.5 -145q-10 -22 -10 -42q0 -18 14 -18q8 0 15.5 5.5t16.5 13.5q13 12 34 37t43 54t41.5 58t30.5 47q26 45 46 86t40 89q2 4 4.5 6.5t8.5 3.5q11 1 22.5 1.5t16.5 0.5
q15 0 15 -7q0 -1 -2 -9q-17 -39 -35.5 -82t-37 -88t-37 -89.5t-34.5 -85.5q-6 -14 -6 -22q0 -11 9 -11q5 0 14.5 8t21 21.5t24 30t24.5 34.5q4 6 10 6q7 0 9.5 -5t-0.5 -10q-16 -26 -42 -57.5t-60 -54.5q-11 -8 -24.5 -13.5t-31.5 -5.5q-11 0 -19 6.5t-8 20.5q0 16 7 37.5
t16.5 44t20 44.5t17.5 39zM194 590l-29 29q-9 9 -11.5 19.5t1 19.5t11.5 15t19 6q8 0 16.5 -3.5t13.5 -11.5q24 -38 51.5 -80.5t48.5 -80.5q5 -10 -2.5 -15.5t-15.5 2.5q-15 16 -33 33t-35.5 34t-34.5 33z" />
    <glyph glyph-name="uacute" unicode="&#xfa;" horiz-adv-x="453" 
d="M246 186q-26 -38 -54 -78.5t-73 -80.5q-23 -20 -42 -26.5t-37 -6.5q-19 0 -32 10t-13 32q0 8 2 17.5t5 17.5q27 72 56 146t55 148q4 10 4 18.5t-5 8.5q-7 0 -21 -14t-29 -32t-28 -35t-17 -23q-5 -5 -7 -7.5t-5 -2.5q-4 0 -8.5 4t0.5 11q12 18 26 36.5t30 36t31.5 32.5
t30.5 24q14 8 26.5 11.5t22.5 3.5q30 0 30 -30q0 -6 -1.5 -14.5t-4.5 -16.5q-24 -71 -52.5 -141t-58.5 -145q-10 -22 -10 -42q0 -18 14 -18q8 0 15.5 5.5t16.5 13.5q13 12 34 37t43 54t41.5 58t30.5 47q26 45 46 86t40 89q2 4 4.5 6.5t8.5 3.5q11 1 22.5 1.5t16.5 0.5
q15 0 15 -7q0 -1 -2 -9q-17 -39 -35.5 -82t-37 -88t-37 -89.5t-34.5 -85.5q-6 -14 -6 -22q0 -11 9 -11q5 0 14.5 8t21 21.5t24 30t24.5 34.5q4 6 10 6q7 0 9.5 -5t-0.5 -10q-16 -26 -42 -57.5t-60 -54.5q-11 -8 -24.5 -13.5t-31.5 -5.5q-11 0 -19 6.5t-8 20.5q0 16 7 37.5
t16.5 44t20 44.5t17.5 39zM274 487q-7 6 -2 16q21 38 48.5 80.5t51.5 80.5q5 8 13.5 11.5t16.5 3.5q11 0 19 -6t11.5 -15t1 -19.5t-11.5 -19.5q-13 -13 -29.5 -29t-34 -33t-35.5 -34t-33 -33q-8 -8 -16 -3z" />
    <glyph glyph-name="ucircumflex" unicode="&#xfb;" horiz-adv-x="453" 
d="M246 186q-26 -38 -54 -78.5t-73 -80.5q-23 -20 -42 -26.5t-37 -6.5q-19 0 -32 10t-13 32q0 8 2 17.5t5 17.5q27 72 56 146t55 148q4 10 4 18.5t-5 8.5q-7 0 -21 -14t-29 -32t-28 -35t-17 -23q-5 -5 -7 -7.5t-5 -2.5q-4 0 -8.5 4t0.5 11q12 18 26 36.5t30 36t31.5 32.5
t30.5 24q14 8 26.5 11.5t22.5 3.5q30 0 30 -30q0 -6 -1.5 -14.5t-4.5 -16.5q-24 -71 -52.5 -141t-58.5 -145q-10 -22 -10 -42q0 -18 14 -18q8 0 15.5 5.5t16.5 13.5q13 12 34 37t43 54t41.5 58t30.5 47q26 45 46 86t40 89q2 4 4.5 6.5t8.5 3.5q11 1 22.5 1.5t16.5 0.5
q15 0 15 -7q0 -1 -2 -9q-17 -39 -35.5 -82t-37 -88t-37 -89.5t-34.5 -85.5q-6 -14 -6 -22q0 -11 9 -11q5 0 14.5 8t21 21.5t24 30t24.5 34.5q4 6 10 6q7 0 9.5 -5t-0.5 -10q-16 -26 -42 -57.5t-60 -54.5q-11 -8 -24.5 -13.5t-31.5 -5.5q-11 0 -19 6.5t-8 20.5q0 16 7 37.5
t16.5 44t20 44.5t17.5 39zM207 487q-11 -9 -19 -4.5t0 15.5l132 171q15 19 35 19q12 0 20 -5.5t10 -16.5l21 -175q-1 -11 -9 -12.5t-12 7.5l-48 120z" />
    <glyph glyph-name="udieresis" unicode="&#xfc;" horiz-adv-x="453" 
d="M246 186q-26 -38 -54 -78.5t-73 -80.5q-23 -20 -42 -26.5t-37 -6.5q-19 0 -32 10t-13 32q0 8 2 17.5t5 17.5q27 72 56 146t55 148q4 10 4 18.5t-5 8.5q-7 0 -21 -14t-29 -32t-28 -35t-17 -23q-5 -5 -7 -7.5t-5 -2.5q-4 0 -8.5 4t0.5 11q12 18 26 36.5t30 36t31.5 32.5
t30.5 24q14 8 26.5 11.5t22.5 3.5q30 0 30 -30q0 -6 -1.5 -14.5t-4.5 -16.5q-24 -71 -52.5 -141t-58.5 -145q-10 -22 -10 -42q0 -18 14 -18q8 0 15.5 5.5t16.5 13.5q13 12 34 37t43 54t41.5 58t30.5 47q26 45 46 86t40 89q2 4 4.5 6.5t8.5 3.5q11 1 22.5 1.5t16.5 0.5
q15 0 15 -7q0 -1 -2 -9q-17 -39 -35.5 -82t-37 -88t-37 -89.5t-34.5 -85.5q-6 -14 -6 -22q0 -11 9 -11q5 0 14.5 8t21 21.5t24 30t24.5 34.5q4 6 10 6q7 0 9.5 -5t-0.5 -10q-16 -26 -42 -57.5t-60 -54.5q-11 -8 -24.5 -13.5t-31.5 -5.5q-11 0 -19 6.5t-8 20.5q0 16 7 37.5
t16.5 44t20 44.5t17.5 39zM404 545q-19 0 -29.5 11.5t-10.5 28.5q0 21 14 37t39 16q17 0 28.5 -11.5t11.5 -28.5q0 -20 -15 -36.5t-38 -16.5zM222 545q-19 0 -29.5 11.5t-10.5 28.5q0 21 14 37t39 16q17 0 28.5 -11.5t11.5 -28.5q0 -20 -15 -36.5t-38 -16.5z" />
    <glyph glyph-name="yacute" unicode="&#xfd;" horiz-adv-x="393" 
d="M212 49q9 17 15 33t14 33q16 36 26 63t16 47.5t8 36t2 27.5q0 19 -3 34t-6 28.5t-6 25.5t-3 25q0 43 42 43q20 0 29 -14t9 -37q0 -26 -14 -79t-38.5 -117.5t-58.5 -132.5t-73.5 -123.5t-83.5 -91t-89 -35.5q-42 0 -58.5 15.5t-16.5 33.5q0 20 12.5 30t27.5 10t24 -8
t15.5 -17t13.5 -17t19 -8q11 0 25.5 7t29 20.5t26.5 32.5t18 43q5 23 6.5 49.5t1.5 57.5q0 64 -8 129.5t-15 120.5q-6 45 -14.5 60.5t-18.5 15.5q-7 0 -17 -13t-20.5 -32t-20 -41t-15.5 -41q-2 -5 -4 -8t-8 -3q-13 0 -10 17q7 27 20 57.5t30.5 56t37.5 42t41 16.5
q44 0 59 -82q14 -72 20.5 -151t5.5 -156zM232 487q-7 6 -2 16q21 38 48.5 80.5t51.5 80.5q5 8 13.5 11.5t16.5 3.5q11 0 19 -6t11.5 -15t1 -19.5t-11.5 -19.5q-13 -13 -29.5 -29t-34 -33t-35.5 -34t-33 -33q-8 -8 -16 -3z" />
    <glyph glyph-name="thorn" unicode="&#xfe;" horiz-adv-x="383" 
d="M-30 -105q-5 -13 -5 -22q0 -20 18 -28q11 -5 24.5 -5.5t27.5 -0.5q8 0 8 -9q0 -5 -3 -8.5t-10 -3.5q-28 0 -56.5 1t-56.5 1q-12 0 -27 -0.5t-29.5 -1t-26 -1t-17.5 -0.5q-13 0 -13 10q0 5 3.5 9t9.5 4q31 0 49.5 13.5t26.5 33.5l288 726q2 5 4 12.5t2 13.5q0 8 -3 13
t-14 8q-13 4 -23 5t-23 3q-8 1 -6.5 11.5t13.5 10.5q26 -1 64.5 -1.5t74.5 1.5q8 1 10.5 -1.5t-1.5 -12.5q-18 -45 -32.5 -79t-26 -62t-21.5 -53l-20 -50q7 2 20 0q65 -6 95.5 -43t30.5 -103q0 -47 -18.5 -99t-51 -95.5t-77.5 -72t-98 -28.5q-44 0 -69 14zM31 64
q-5 -13 -5 -22q0 -17 17 -22.5t33 -5.5q37 0 70 27.5t57.5 69t39 89.5t14.5 90q0 20 -3.5 41.5t-12.5 39.5t-23 30t-35 12q-13 0 -18.5 -8t-9.5 -19z" />
    <glyph glyph-name="ydieresis" unicode="&#xff;" horiz-adv-x="393" 
d="M212 49q9 17 15 33t14 33q16 36 26 63t16 47.5t8 36t2 27.5q0 19 -3 34t-6 28.5t-6 25.5t-3 25q0 43 42 43q20 0 29 -14t9 -37q0 -26 -14 -79t-38.5 -117.5t-58.5 -132.5t-73.5 -123.5t-83.5 -91t-89 -35.5q-42 0 -58.5 15.5t-16.5 33.5q0 20 12.5 30t27.5 10t24 -8
t15.5 -17t13.5 -17t19 -8q11 0 25.5 7t29 20.5t26.5 32.5t18 43q5 23 6.5 49.5t1.5 57.5q0 64 -8 129.5t-15 120.5q-6 45 -14.5 60.5t-18.5 15.5q-7 0 -17 -13t-20.5 -32t-20 -41t-15.5 -41q-2 -5 -4 -8t-8 -3q-13 0 -10 17q7 27 20 57.5t30.5 56t37.5 42t41 16.5
q44 0 59 -82q14 -72 20.5 -151t5.5 -156zM333 545q-19 0 -29.5 11.5t-10.5 28.5q0 21 14 37t39 16q17 0 28.5 -11.5t11.5 -28.5q0 -20 -15 -36.5t-38 -16.5zM151 545q-19 0 -29.5 11.5t-10.5 28.5q0 21 14 37t39 16q17 0 28.5 -11.5t11.5 -28.5q0 -20 -15 -36.5t-38 -16.5z
" />
    <glyph glyph-name="Amacron" unicode="&#x100;" horiz-adv-x="657" 
d="M147 179l-21 -31.5t-20.5 -32.5t-15.5 -31.5t-6 -27.5q0 -17 10.5 -26.5t34.5 -9.5q9 0 12 -2.5t3 -8.5q0 -10 -14 -10h-46.5t-32 0.5t-23 0.5h-18.5q-31 0 -58 -1t-52 -1q-15 0 -15 11q0 8 4.5 10.5t17.5 2.5q17 0 38 6t45.5 23.5t53.5 47.5t62 78l330 481q7 11 17 14
l64 25q4 2 11 2t8 -5.5t1 -14.5l-45 -553q-1 -6 -1 -11.5v-11.5q0 -17 2.5 -32t9.5 -26t19 -18t30 -7q13 0 13 -11q0 -10 -14 -10q-48 0 -83.5 0.5t-54.5 0.5q-20 0 -46.5 -0.5t-71.5 -0.5q-12 0 -12 11q0 7 4 9.5t9 2.5q51 0 76 20t29 65l16 175h-200zM240 314h179l28 311z
M379 773q-5 0 -6 3t0 5l13 39q3 9 12 9h229q5 0 6 -4t-1 -8l-12 -35q-4 -9 -11 -9h-230z" />
    <glyph glyph-name="amacron" unicode="&#x101;" horiz-adv-x="437" 
d="M202 130q-14 -21 -32.5 -45t-41 -45t-47.5 -35t-53 -14t-46.5 14.5t-18.5 52.5q0 32 13.5 72.5t37 83t54.5 83.5t66.5 73t73.5 51.5t74 19.5q17 0 30.5 -7.5t19.5 -18.5q4 8 8 12.5t12 4.5q5 0 18 0.5t18 0.5q16 0 16 -7q0 -3 -3 -9q-33 -78 -72 -163t-72 -170l-4 -12
t-3 -17q0 -9 7 -9q12 0 33 26t47 61q4 6 9 6t8 -4t1 -8q-19 -30 -40.5 -58t-55.5 -53q-10 -8 -26 -14.5t-33 -6.5q-11 0 -18 6.5t-7 19.5q0 28 9 50.5t23 55.5zM207 174q22 34 34 57q16 27 27 50t23 52q14 37 14 56q0 10 -6 20.5t-24 10.5q-20 0 -45.5 -19.5t-52 -50.5
t-52 -70.5t-45.5 -79.5t-32.5 -76.5t-12.5 -62.5q0 -29 25 -29q22 0 48.5 22.5t52 54.5t46.5 65zM221 564q-5 0 -6 3t0 5l13 39q3 9 12 9h229q5 0 6 -4t-1 -8l-12 -35q-4 -9 -11 -9h-230z" />
    <glyph glyph-name="Abreve" unicode="&#x102;" horiz-adv-x="657" 
d="M147 179l-21 -31.5t-20.5 -32.5t-15.5 -31.5t-6 -27.5q0 -17 10.5 -26.5t34.5 -9.5q9 0 12 -2.5t3 -8.5q0 -10 -14 -10h-46.5t-32 0.5t-23 0.5h-18.5q-31 0 -58 -1t-52 -1q-15 0 -15 11q0 8 4.5 10.5t17.5 2.5q17 0 38 6t45.5 23.5t53.5 47.5t62 78l330 481q7 11 17 14
l64 25q4 2 11 2t8 -5.5t1 -14.5l-45 -553q-1 -6 -1 -11.5v-11.5q0 -17 2.5 -32t9.5 -26t19 -18t30 -7q13 0 13 -11q0 -10 -14 -10q-48 0 -83.5 0.5t-54.5 0.5q-20 0 -46.5 -0.5t-71.5 -0.5q-12 0 -12 11q0 7 4 9.5t9 2.5q51 0 76 20t29 65l16 175h-200zM240 314h179l28 311z
M420 776q-16 16 -25 42.5t-5 66.5q1 7 4.5 13.5t13.5 6.5q15 0 15 -14q1 -50 25.5 -69.5t59.5 -19.5q33 0 69 19.5t66 70.5q5 8 8 10.5t10 2.5q10 0 12 -6.5t-1 -13.5q-18 -42 -40.5 -68.5t-45.5 -42t-45 -21t-39 -5.5q-22 0 -43.5 6.5t-38.5 21.5z" />
    <glyph glyph-name="abreve" unicode="&#x103;" horiz-adv-x="437" 
d="M202 130q-14 -21 -32.5 -45t-41 -45t-47.5 -35t-53 -14t-46.5 14.5t-18.5 52.5q0 32 13.5 72.5t37 83t54.5 83.5t66.5 73t73.5 51.5t74 19.5q17 0 30.5 -7.5t19.5 -18.5q4 8 8 12.5t12 4.5q5 0 18 0.5t18 0.5q16 0 16 -7q0 -3 -3 -9q-33 -78 -72 -163t-72 -170l-4 -12
t-3 -17q0 -9 7 -9q12 0 33 26t47 61q4 6 9 6t8 -4t1 -8q-19 -30 -40.5 -58t-55.5 -53q-10 -8 -26 -14.5t-33 -6.5q-11 0 -18 6.5t-7 19.5q0 28 9 50.5t23 55.5zM207 174q22 34 34 57q16 27 27 50t23 52q14 37 14 56q0 10 -6 20.5t-24 10.5q-20 0 -45.5 -19.5t-52 -50.5
t-52 -70.5t-45.5 -79.5t-32.5 -76.5t-12.5 -62.5q0 -29 25 -29q22 0 48.5 22.5t52 54.5t46.5 65zM247 545q-16 16 -25 42.5t-5 66.5q1 7 4.5 13.5t13.5 6.5q15 0 15 -14q1 -50 25.5 -69.5t59.5 -19.5q33 0 69 19.5t66 70.5q5 8 8 10.5t10 2.5q10 0 12 -6.5t-1 -13.5
q-18 -42 -40.5 -68.5t-45.5 -42t-45 -21t-39 -5.5q-22 0 -43.5 6.5t-38.5 21.5z" />
    <glyph glyph-name="Aogonek" unicode="&#x104;" horiz-adv-x="657" 
d="M147 179l-21 -31.5t-20.5 -32.5t-15.5 -31.5t-6 -27.5q0 -17 10.5 -26.5t34.5 -9.5q9 0 12 -2.5t3 -8.5q0 -10 -14 -10h-46.5t-32 0.5t-23 0.5h-18.5q-31 0 -58 -1t-52 -1q-15 0 -15 11q0 8 4.5 10.5t17.5 2.5q17 0 38 6t45.5 23.5t53.5 47.5t62 78l330 481q7 11 17 14
l64 25q4 2 11 2t8 -5.5t1 -14.5l-45 -553q-1 -6 -1 -11.5v-11.5q0 -17 2.5 -32t9.5 -26t19 -18t30 -7q13 0 13 -11q0 -10 -14 -10h-48t-40 1q-14 -12 -28 -27t-25 -32t-18 -36t-7 -38t9.5 -30.5t28.5 -11.5q15 0 28.5 6.5t30.5 25.5q8 10 14.5 5t2.5 -13q-5 -9 -14 -20.5
t-23 -22t-33 -17.5t-43 -7q-32 0 -52 17.5t-20 49.5q0 24 9.5 45t25.5 40t36 35t41 31h-13q-20 0 -46.5 -0.5t-71.5 -0.5q-12 0 -12 11q0 7 4 9.5t9 2.5q51 0 76 20t29 65l16 175h-200zM240 314h179l28 311z" />
    <glyph glyph-name="aogonek" unicode="&#x105;" horiz-adv-x="437" 
d="M202 130q-14 -21 -32.5 -45t-41 -45t-47.5 -35t-53 -14t-46.5 14.5t-18.5 52.5q0 32 13.5 72.5t37 83t54.5 83.5t66.5 73t73.5 51.5t74 19.5q17 0 30.5 -7.5t19.5 -18.5q4 8 8 12.5t12 4.5q5 0 18 0.5t18 0.5q16 0 16 -7q0 -3 -3 -9q-33 -78 -72 -163t-72 -170l-4 -12
t-3 -17q0 -9 7 -9q12 0 33 26t47 61q4 6 9 6t8 -4t1 -8q-19 -30 -40.5 -58.5t-54.5 -54.5q-17 -13 -34.5 -29t-31.5 -35t-23.5 -40t-9.5 -43q0 -19 9.5 -30.5t28.5 -11.5q15 0 28.5 6.5t30.5 25.5q8 10 14.5 5t2.5 -13q-5 -9 -14 -20.5t-23 -22t-33 -17.5t-43 -7
q-32 0 -52 17.5t-20 49.5q0 23 9 43.5t23.5 38.5t33.5 34t39 30q-8 2 -14 8.5t-6 17.5q0 28 9 50.5t23 55.5zM207 174q22 34 34 57q16 27 27 50t23 52q14 37 14 56q0 10 -6 20.5t-24 10.5q-20 0 -45.5 -19.5t-52 -50.5t-52 -70.5t-45.5 -79.5t-32.5 -76.5t-12.5 -62.5
q0 -29 25 -29q22 0 48.5 22.5t52 54.5t46.5 65z" />
    <glyph glyph-name="Cacute" unicode="&#x106;" horiz-adv-x="621" 
d="M460 51q-1 14 -3 26q-28 -30 -56 -48.5t-55.5 -28.5t-55 -13.5t-54.5 -3.5q-98 0 -154.5 55t-56.5 164q0 59 17 119.5t47.5 116.5t73.5 104.5t95.5 85t112.5 57t126 20.5q42 0 69.5 -9.5t54.5 -25.5q3 -2 5.5 -3t5.5 -1q4 0 8 3t6 7q5 7 8 9t6 2q6 0 9.5 -4.5t-1.5 -18.5
q-5 -15 -12 -34.5t-14.5 -41t-15 -43.5t-13.5 -42q-4 -11 -6.5 -16.5t-9.5 -5.5q-13 0 -11 17q2 22 3 36t1.5 22t0.5 12v7q0 22 -4 41.5t-13.5 34t-26.5 23t-44 8.5q-52 0 -100.5 -21.5t-90.5 -58t-77 -84.5t-60 -101t-38.5 -108.5t-13.5 -105.5q0 -35 6 -69t21.5 -60.5
t44 -43t73.5 -16.5q31 0 59.5 10.5t52.5 27t44 36.5t34 39q24 34 38.5 60.5t27.5 58.5q6 14 17 14q7 0 12.5 -6t1.5 -17q-11 -34 -20 -62t-17.5 -53.5t-16 -50t-14.5 -51.5q-3 -13 -14 -13q-10 0 -11 18zM482 734q-11 -5 -14.5 0t3.5 15q3 3 21 22.5t40 42.5t42 43t26 25
q11 8 22 8q13 0 21.5 -9.5t8.5 -20.5q0 -14 -14 -25q-4 -3 -16.5 -11t-28.5 -19t-34.5 -23t-34.5 -22t-27.5 -17.5t-14.5 -8.5z" />
    <glyph glyph-name="cacute" unicode="&#x107;" horiz-adv-x="344" 
d="M7 9q-13 11 -21 29t-8 47q0 33 10.5 72t29.5 79t45 76.5t57 65.5t66.5 46t72.5 17q14 0 27.5 -2.5t24.5 -8.5t18 -16t7 -26q0 -15 -12 -27.5t-31 -12.5q-18 0 -28 9t-10 23q0 8 3 16.5t3 14.5q0 9 -13 9q-21 0 -44 -18t-45.5 -47.5t-43 -66.5t-36 -74.5t-24.5 -73
t-9 -60.5q0 -28 10 -44.5t33 -16.5q29 0 61.5 23t67.5 72q6 8 12 8q8 0 11.5 -6t-1.5 -13q-12 -17 -28 -37t-37 -36.5t-47.5 -27.5t-58.5 -11q-17 0 -33 4t-29 14zM273 487q-7 6 -2 16q21 38 48.5 80.5t51.5 80.5q5 8 13.5 11.5t16.5 3.5q11 0 19 -6t11.5 -15t1 -19.5
t-11.5 -19.5q-13 -13 -29.5 -29t-34 -33t-35.5 -34t-33 -33q-8 -8 -16 -3z" />
    <glyph glyph-name="Ccircumflex" unicode="&#x108;" horiz-adv-x="621" 
d="M460 51q-1 14 -3 26q-28 -30 -56 -48.5t-55.5 -28.5t-55 -13.5t-54.5 -3.5q-98 0 -154.5 55t-56.5 164q0 59 17 119.5t47.5 116.5t73.5 104.5t95.5 85t112.5 57t126 20.5q42 0 69.5 -9.5t54.5 -25.5q3 -2 5.5 -3t5.5 -1q4 0 8 3t6 7q5 7 8 9t6 2q6 0 9.5 -4.5t-1.5 -18.5
q-5 -15 -12 -34.5t-14.5 -41t-15 -43.5t-13.5 -42q-4 -11 -6.5 -16.5t-9.5 -5.5q-13 0 -11 17q2 22 3 36t1.5 22t0.5 12v7q0 22 -4 41.5t-13.5 34t-26.5 23t-44 8.5q-52 0 -100.5 -21.5t-90.5 -58t-77 -84.5t-60 -101t-38.5 -108.5t-13.5 -105.5q0 -35 6 -69t21.5 -60.5
t44 -43t73.5 -16.5q31 0 59.5 10.5t52.5 27t44 36.5t34 39q24 34 38.5 60.5t27.5 58.5q6 14 17 14q7 0 12.5 -6t1.5 -17q-11 -34 -20 -62t-17.5 -53.5t-16 -50t-14.5 -51.5q-3 -13 -14 -13q-10 0 -11 18zM414 734q-8 -5 -13 -5q-6 0 -8.5 3t-2.5 6q0 5 8 13l112 113
q8 9 17.5 15t19.5 6q12 0 18.5 -6.5t10.5 -15.5l54 -117q2 -4 2 -7q0 -6 -3.5 -8t-7.5 -2q-6 0 -12 6l-75 81z" />
    <glyph glyph-name="ccircumflex" unicode="&#x109;" horiz-adv-x="344" 
d="M7 9q-13 11 -21 29t-8 47q0 33 10.5 72t29.5 79t45 76.5t57 65.5t66.5 46t72.5 17q14 0 27.5 -2.5t24.5 -8.5t18 -16t7 -26q0 -15 -12 -27.5t-31 -12.5q-18 0 -28 9t-10 23q0 8 3 16.5t3 14.5q0 9 -13 9q-21 0 -44 -18t-45.5 -47.5t-43 -66.5t-36 -74.5t-24.5 -73
t-9 -60.5q0 -28 10 -44.5t33 -16.5q29 0 61.5 23t67.5 72q6 8 12 8q8 0 11.5 -6t-1.5 -13q-12 -17 -28 -37t-37 -36.5t-47.5 -27.5t-58.5 -11q-17 0 -33 4t-29 14zM181 487q-11 -9 -19 -4.5t0 15.5l132 171q15 19 35 19q12 0 20 -5.5t10 -16.5l21 -175q-1 -11 -9 -12.5
t-12 7.5l-48 120z" />
    <glyph glyph-name="Cdotaccent" unicode="&#x10a;" horiz-adv-x="621" 
d="M460 51q-1 14 -3 26q-28 -30 -56 -48.5t-55.5 -28.5t-55 -13.5t-54.5 -3.5q-98 0 -154.5 55t-56.5 164q0 59 17 119.5t47.5 116.5t73.5 104.5t95.5 85t112.5 57t126 20.5q42 0 69.5 -9.5t54.5 -25.5q3 -2 5.5 -3t5.5 -1q4 0 8 3t6 7q5 7 8 9t6 2q6 0 9.5 -4.5t-1.5 -18.5
q-5 -15 -12 -34.5t-14.5 -41t-15 -43.5t-13.5 -42q-4 -11 -6.5 -16.5t-9.5 -5.5q-13 0 -11 17q2 22 3 36t1.5 22t0.5 12v7q0 22 -4 41.5t-13.5 34t-26.5 23t-44 8.5q-52 0 -100.5 -21.5t-90.5 -58t-77 -84.5t-60 -101t-38.5 -108.5t-13.5 -105.5q0 -35 6 -69t21.5 -60.5
t44 -43t73.5 -16.5q31 0 59.5 10.5t52.5 27t44 36.5t34 39q24 34 38.5 60.5t27.5 58.5q6 14 17 14q7 0 12.5 -6t1.5 -17q-11 -34 -20 -62t-17.5 -53.5t-16 -50t-14.5 -51.5q-3 -13 -14 -13q-10 0 -11 18zM520 753q-24 0 -37 15t-13 35q0 26 17.5 45.5t47.5 19.5q22 0 36 -14
t14 -35q0 -25 -18.5 -45.5t-46.5 -20.5z" />
    <glyph glyph-name="cdotaccent" unicode="&#x10b;" horiz-adv-x="344" 
d="M7 9q-13 11 -21 29t-8 47q0 33 10.5 72t29.5 79t45 76.5t57 65.5t66.5 46t72.5 17q14 0 27.5 -2.5t24.5 -8.5t18 -16t7 -26q0 -15 -12 -27.5t-31 -12.5q-18 0 -28 9t-10 23q0 8 3 16.5t3 14.5q0 9 -13 9q-21 0 -44 -18t-45.5 -47.5t-43 -66.5t-36 -74.5t-24.5 -73
t-9 -60.5q0 -28 10 -44.5t33 -16.5q29 0 61.5 23t67.5 72q6 8 12 8q8 0 11.5 -6t-1.5 -13q-12 -17 -28 -37t-37 -36.5t-47.5 -27.5t-58.5 -11q-17 0 -33 4t-29 14zM281 520q-22 0 -33.5 13.5t-11.5 31.5q0 23 16 41t43 18q20 0 32.5 -12.5t12.5 -31.5q0 -23 -16.5 -41.5
t-42.5 -18.5z" />
    <glyph glyph-name="Ccaron" unicode="&#x10c;" horiz-adv-x="621" 
d="M460 51q-1 14 -3 26q-28 -30 -56 -48.5t-55.5 -28.5t-55 -13.5t-54.5 -3.5q-98 0 -154.5 55t-56.5 164q0 59 17 119.5t47.5 116.5t73.5 104.5t95.5 85t112.5 57t126 20.5q42 0 69.5 -9.5t54.5 -25.5q3 -2 5.5 -3t5.5 -1q4 0 8 3t6 7q5 7 8 9t6 2q6 0 9.5 -4.5t-1.5 -18.5
q-5 -15 -12 -34.5t-14.5 -41t-15 -43.5t-13.5 -42q-4 -11 -6.5 -16.5t-9.5 -5.5q-13 0 -11 17q2 22 3 36t1.5 22t0.5 12v7q0 22 -4 41.5t-13.5 34t-26.5 23t-44 8.5q-52 0 -100.5 -21.5t-90.5 -58t-77 -84.5t-60 -101t-38.5 -108.5t-13.5 -105.5q0 -35 6 -69t21.5 -60.5
t44 -43t73.5 -16.5q31 0 59.5 10.5t52.5 27t44 36.5t34 39q24 34 38.5 60.5t27.5 58.5q6 14 17 14q7 0 12.5 -6t1.5 -17q-11 -34 -20 -62t-17.5 -53.5t-16 -50t-14.5 -51.5q-3 -13 -14 -13q-10 0 -11 18zM418 873q-2 4 -2 7q0 6 3.5 8t7.5 2q6 0 12 -6l75 -81l120 82
q8 5 13 5q6 0 8.5 -3t2.5 -6q0 -5 -8 -13l-112 -113q-8 -9 -17.5 -15t-19.5 -6q-12 0 -18.5 6.5t-10.5 15.5z" />
    <glyph glyph-name="ccaron" unicode="&#x10d;" horiz-adv-x="344" 
d="M7 9q-13 11 -21 29t-8 47q0 33 10.5 72t29.5 79t45 76.5t57 65.5t66.5 46t72.5 17q14 0 27.5 -2.5t24.5 -8.5t18 -16t7 -26q0 -15 -12 -27.5t-31 -12.5q-18 0 -28 9t-10 23q0 8 3 16.5t3 14.5q0 9 -13 9q-21 0 -44 -18t-45.5 -47.5t-43 -66.5t-36 -74.5t-24.5 -73
t-9 -60.5q0 -28 10 -44.5t33 -16.5q29 0 61.5 23t67.5 72q6 8 12 8q8 0 11.5 -6t-1.5 -13q-12 -17 -28 -37t-37 -36.5t-47.5 -27.5t-58.5 -11q-17 0 -33 4t-29 14zM308 491q-15 -19 -35 -19q-12 0 -20 5.5t-10 16.5l-21 175q1 11 9 12.5t12 -7.5l48 -120l130 119
q11 9 19 4.5t0 -15.5z" />
    <glyph glyph-name="Dcaron" unicode="&#x10e;" horiz-adv-x="729" 
d="M152 117q-8 -23 -9 -32t-1 -18q0 -10 2.5 -18t11.5 -13.5t26.5 -8.5t47.5 -3q85 0 152 33t114 86t72 121t25 139q0 63 -13.5 112t-39.5 82q-32 42 -73.5 59.5t-81.5 17.5q-34 0 -46 -14t-20 -39zM224 600q4 11 7 22.5t3 22.5q0 17 -15 23.5t-38 7.5q-10 0 -14.5 2
t-4.5 10t4.5 9t9.5 1q32 0 63 -0.5t51 -0.5q14 0 33 0.5t58 0.5q52 0 106.5 -16t99.5 -52t73.5 -93.5t28.5 -140.5q0 -59 -16.5 -114t-46 -101.5t-70 -82.5t-88.5 -58q-51 -23 -107 -32.5t-121 -9.5q-14 0 -33 0.5t-41 0.5q-24 1 -47 1h-43q-31 0 -58.5 -2t-54.5 -2
q-13 0 -13 11q0 5 3 9.5t14 4.5q34 0 55 19t33 56zM337 873q-2 4 -2 7q0 6 3.5 8t7.5 2q6 0 12 -6l75 -81l120 82q8 5 13 5q6 0 8.5 -3t2.5 -6q0 -5 -8 -13l-112 -113q-8 -9 -17.5 -15t-19.5 -6q-12 0 -18.5 6.5t-10.5 15.5z" />
    <glyph glyph-name="dcaron" unicode="&#x10f;" horiz-adv-x="501" 
d="M202 130q-14 -21 -32.5 -45t-40 -45t-46.5 -35t-53 -14q-31 0 -49 14.5t-18 52.5q0 30 13.5 70.5t36.5 83t54 83.5t66.5 73.5t74 52.5t76.5 20q15 0 29.5 -2t22.5 -4l80 185q2 5 4 12t2 13q0 17 -17 22q-13 5 -21.5 5.5t-21.5 2.5q-8 1 -7.5 8t11.5 7q26 -1 62.5 -1.5
t72.5 1.5q8 1 11 -1.5t-2 -12.5q-26 -65 -55 -133.5t-55 -125.5q-35 -77 -72.5 -162.5t-70.5 -170.5l-4 -12t-3 -17q0 -9 7 -9q12 0 33 26t47 61q4 6 9 6t8 -4t1 -8q-19 -30 -40.5 -58t-55.5 -53q-10 -8 -26 -14.5t-33 -6.5q-11 0 -18 6.5t-7 19.5q0 28 9 50.5t23 55.5z
M207 174q22 34 34 57q16 27 27 50t23 52q14 37 14 56q0 10 -5 20.5t-23 10.5q-20 0 -46 -19.5t-53 -50.5t-52.5 -70t-45.5 -78.5t-32.5 -76t-12.5 -62.5q0 -31 25 -31q22 0 48.5 22.5t52 54.5t46.5 65zM532 471q-10 0 -10 11q0 6 9 30.5t21 53.5t23 56t16 38q8 19 19.5 25
t23.5 6q18 0 27.5 -11t4.5 -23q-6 -13 -23 -40t-36.5 -55t-36.5 -51t-21 -29q-4 -5 -7.5 -8t-9.5 -3z" />
    <glyph glyph-name="Dcroat" unicode="&#x110;" horiz-adv-x="729" 
d="M82 338q-8 0 -11.5 4.5t-3.5 10.5q0 8 6 16.5t17 8.5h59l75 222q4 11 7 22.5t3 22.5q0 17 -15 23.5t-38 7.5q-10 0 -14.5 2t-4.5 10t4.5 9t9.5 1q32 0 63 -0.5t51 -0.5q14 0 33 0.5t58 0.5q52 0 106.5 -16t99 -52t73 -93.5t28.5 -140.5q0 -59 -16.5 -114t-45.5 -101.5
t-69.5 -82.5t-88.5 -58q-51 -23 -107 -32.5t-121 -9.5q-14 0 -33 0.5t-41 0.5q-24 1 -47 1h-43q-31 0 -58.5 -2t-54.5 -2q-13 0 -13 11q0 5 3 9.5t14 4.5q34 0 55 19t33 56l81 242h-54zM152 117q-8 -23 -9 -32t-1 -18q0 -10 2.5 -18t11.5 -13.5t26.5 -8.5t47.5 -3
q85 0 152.5 33t115 86t73 121t25.5 139q0 63 -14 112t-40 82q-32 42 -74.5 59.5t-82.5 17.5q-34 0 -46 -14t-20 -39l-81 -243h154q17 0 17 -14q0 -11 -7 -18.5t-16 -7.5h-161z" />
    <glyph glyph-name="dcroat" unicode="&#x111;" horiz-adv-x="436" 
d="M202 130q-14 -21 -32.5 -45t-40 -45t-46.5 -35t-53 -14q-31 0 -49 14.5t-18 52.5q0 30 13.5 70.5t36.5 83t54 83.5t66.5 73.5t74 52.5t76.5 20q15 0 29.5 -2t22.5 -4l40 94h-136q-8 0 -11.5 4.5t-3.5 10.5q0 8 6 16.5t17 8.5h146l22 51q2 5 4 12t2 13q0 17 -17 22
q-13 5 -21.5 5.5t-21.5 2.5q-8 1 -7.5 8t11.5 7q26 -1 62.5 -1.5t72.5 1.5q8 1 11 -1.5t-2 -12.5l-44 -107h69q17 0 17 -14q0 -11 -7 -18.5t-16 -7.5h-80l-49 -112q-35 -77 -72.5 -162.5t-70.5 -170.5l-4 -12t-3 -17q0 -9 7 -9q12 0 33 26t47 61q4 6 9 6t8 -4t1 -8
q-19 -30 -40.5 -58t-55.5 -53q-10 -8 -26 -14.5t-33 -6.5q-11 0 -18 6.5t-7 19.5q0 28 9 50.5t23 55.5zM207 174q22 34 34 57q16 27 27 50t23 52q14 37 14 56q0 10 -5 20.5t-23 10.5q-20 0 -46 -19.5t-53 -50.5t-52.5 -70t-45.5 -78.5t-32.5 -76t-12.5 -62.5q0 -31 25 -31
q22 0 48.5 22.5t52 54.5t46.5 65z" />
    <glyph glyph-name="Emacron" unicode="&#x112;" horiz-adv-x="649" 
d="M-36 0q-15 0 -15 11q0 7 4 10t15 3q33 0 54 16t35 61l159 479q6 17 9.5 29.5t3.5 26.5q0 17 -14 27t-50 10q-21 0 -21 13q0 12 13 12h445q15 0 16 -17l9 -80q1 -4 1.5 -11t0.5 -11q0 -11 -10 -11q-7 0 -12.5 5t-20.5 25l-45 60q-5 8 -11.5 11.5t-18.5 3.5h-174l-100 -301
h40q50 0 77.5 4.5t39.5 9.5q23 10 44.5 29t38.5 60q4 10 7.5 16t9.5 6t10.5 -4t2.5 -10q-9 -25 -21 -60t-25 -73t-24 -74.5t-19 -63.5q-3 -9 -6.5 -12t-6.5 -3q-12 0 -12 14q0 8 0.5 18t0.5 31q0 25 -8 42t-22 27t-32.5 14t-40.5 4h-63l-74 -223q-4 -11 -8.5 -29t-4.5 -33
q0 -18 13.5 -27t43.5 -9h214q11 0 17 3t11 10l99 120q7 8 10 10.5t8 2.5q7 0 8.5 -5t-0.5 -13l-36 -145q-2 -9 -9 -9h-556zM292 773q-5 0 -6 3t0 5l13 39q3 9 12 9h229q5 0 6 -4t-1 -8l-12 -35q-4 -9 -11 -9h-230z" />
    <glyph glyph-name="emacron" unicode="&#x113;" horiz-adv-x="337" 
d="M165 228q-45 -25 -96 -49q-10 -32 -15 -57t-5 -46q0 -26 8.5 -39t30.5 -13q23 0 58 26.5t65 78.5q6 12 15 12q7 0 10 -5t-1 -12q-12 -23 -29 -46.5t-39 -43t-48 -31.5t-57 -12q-13 0 -28 3.5t-27.5 13t-20.5 26.5t-8 43q0 34 10.5 74t29 80.5t43.5 78t54.5 67t62.5 47
t67 17.5q37 0 54.5 -14.5t17.5 -37.5q0 -28 -20 -55.5t-53.5 -54t-78.5 -51.5zM111 282q-19 -39 -33 -78q29 16 61.5 38t60 47t45.5 51.5t18 52.5q0 14 -8 21t-19 7q-19 0 -40.5 -19.5t-43 -50t-41.5 -69.5zM175 564q-5 0 -6 3t0 5l13 39q3 9 12 9h229q5 0 6 -4t-1 -8
l-12 -35q-4 -9 -11 -9h-230z" />
    <glyph glyph-name="Ebreve" unicode="&#x114;" horiz-adv-x="649" 
d="M-36 0q-15 0 -15 11q0 7 4 10t15 3q33 0 54 16t35 61l159 479q6 17 9.5 29.5t3.5 26.5q0 17 -14 27t-50 10q-21 0 -21 13q0 12 13 12h445q15 0 16 -17l9 -80q1 -4 1.5 -11t0.5 -11q0 -11 -10 -11q-7 0 -12.5 5t-20.5 25l-45 60q-5 8 -11.5 11.5t-18.5 3.5h-174l-100 -301
h40q50 0 77.5 4.5t39.5 9.5q23 10 44.5 29t38.5 60q4 10 7.5 16t9.5 6t10.5 -4t2.5 -10q-9 -25 -21 -60t-25 -73t-24 -74.5t-19 -63.5q-3 -9 -6.5 -12t-6.5 -3q-12 0 -12 14q0 8 0.5 18t0.5 31q0 25 -8 42t-22 27t-32.5 14t-40.5 4h-63l-74 -223q-4 -11 -8.5 -29t-4.5 -33
q0 -18 13.5 -27t43.5 -9h214q11 0 17 3t11 10l99 120q7 8 10 10.5t8 2.5q7 0 8.5 -5t-0.5 -13l-36 -145q-2 -9 -9 -9h-556zM325 776q-16 16 -25 42.5t-5 66.5q1 7 4.5 13.5t13.5 6.5q15 0 15 -14q1 -50 25.5 -69.5t59.5 -19.5q33 0 69 19.5t66 70.5q5 8 8 10.5t10 2.5
q10 0 12 -6.5t-1 -13.5q-18 -42 -40.5 -68.5t-45.5 -42t-45 -21t-39 -5.5q-22 0 -43.5 6.5t-38.5 21.5z" />
    <glyph glyph-name="ebreve" unicode="&#x115;" horiz-adv-x="337" 
d="M165 228q-45 -25 -96 -49q-10 -32 -15 -57t-5 -46q0 -26 8.5 -39t30.5 -13q23 0 58 26.5t65 78.5q6 12 15 12q7 0 10 -5t-1 -12q-12 -23 -29 -46.5t-39 -43t-48 -31.5t-57 -12q-13 0 -28 3.5t-27.5 13t-20.5 26.5t-8 43q0 34 10.5 74t29 80.5t43.5 78t54.5 67t62.5 47
t67 17.5q37 0 54.5 -14.5t17.5 -37.5q0 -28 -20 -55.5t-53.5 -54t-78.5 -51.5zM111 282q-19 -39 -33 -78q29 16 61.5 38t60 47t45.5 51.5t18 52.5q0 14 -8 21t-19 7q-19 0 -40.5 -19.5t-43 -50t-41.5 -69.5zM199 545q-16 16 -25 42.5t-5 66.5q1 7 4.5 13.5t13.5 6.5
q15 0 15 -14q1 -50 25.5 -69.5t59.5 -19.5q33 0 69 19.5t66 70.5q5 8 8 10.5t10 2.5q10 0 12 -6.5t-1 -13.5q-18 -42 -40.5 -68.5t-45.5 -42t-45 -21t-39 -5.5q-22 0 -43.5 6.5t-38.5 21.5z" />
    <glyph glyph-name="Edotaccent" unicode="&#x116;" horiz-adv-x="649" 
d="M-36 0q-15 0 -15 11q0 7 4 10t15 3q33 0 54 16t35 61l159 479q6 17 9.5 29.5t3.5 26.5q0 17 -14 27t-50 10q-21 0 -21 13q0 12 13 12h445q15 0 16 -17l9 -80q1 -4 1.5 -11t0.5 -11q0 -11 -10 -11q-7 0 -12.5 5t-20.5 25l-45 60q-5 8 -11.5 11.5t-18.5 3.5h-174l-100 -301
h40q50 0 77.5 4.5t39.5 9.5q23 10 44.5 29t38.5 60q4 10 7.5 16t9.5 6t10.5 -4t2.5 -10q-9 -25 -21 -60t-25 -73t-24 -74.5t-19 -63.5q-3 -9 -6.5 -12t-6.5 -3q-12 0 -12 14q0 8 0.5 18t0.5 31q0 25 -8 42t-22 27t-32.5 14t-40.5 4h-63l-74 -223q-4 -11 -8.5 -29t-4.5 -33
q0 -18 13.5 -27t43.5 -9h214q11 0 17 3t11 10l99 120q7 8 10 10.5t8 2.5q7 0 8.5 -5t-0.5 -13l-36 -145q-2 -9 -9 -9h-556zM418 753q-24 0 -37 15t-13 35q0 26 17.5 45.5t47.5 19.5q22 0 36 -14t14 -35q0 -25 -18.5 -45.5t-46.5 -20.5z" />
    <glyph glyph-name="edotaccent" unicode="&#x117;" horiz-adv-x="337" 
d="M165 228q-45 -25 -96 -49q-10 -32 -15 -57t-5 -46q0 -26 8.5 -39t30.5 -13q23 0 58 26.5t65 78.5q6 12 15 12q7 0 10 -5t-1 -12q-12 -23 -29 -46.5t-39 -43t-48 -31.5t-57 -12q-13 0 -28 3.5t-27.5 13t-20.5 26.5t-8 43q0 34 10.5 74t29 80.5t43.5 78t54.5 67t62.5 47
t67 17.5q37 0 54.5 -14.5t17.5 -37.5q0 -28 -20 -55.5t-53.5 -54t-78.5 -51.5zM111 282q-19 -39 -33 -78q29 16 61.5 38t60 47t45.5 51.5t18 52.5q0 14 -8 21t-19 7q-19 0 -40.5 -19.5t-43 -50t-41.5 -69.5zM280 520q-22 0 -33.5 13.5t-11.5 31.5q0 23 16 41t43 18
q20 0 32.5 -12.5t12.5 -31.5q0 -23 -16.5 -41.5t-42.5 -18.5z" />
    <glyph glyph-name="Eogonek" unicode="&#x118;" horiz-adv-x="649" 
d="M-36 0q-15 0 -15 11q0 7 4 10t15 3q33 0 54 16t35 61l159 479q6 17 9.5 29.5t3.5 26.5q0 17 -14 27t-50 10q-21 0 -21 13q0 12 13 12h445q15 0 16 -17l9 -80q1 -4 1.5 -11t0.5 -11q0 -11 -10 -11q-7 0 -12.5 5t-20.5 25l-45 60q-5 8 -11.5 11.5t-18.5 3.5h-174l-100 -301
h40q50 0 77.5 4.5t39.5 9.5q23 10 44.5 29t38.5 60q4 10 7.5 16t9.5 6t10.5 -4t2.5 -10q-9 -25 -21 -60t-25 -73t-24 -74.5t-19 -63.5q-3 -9 -6.5 -12t-6.5 -3q-12 0 -12 14q0 8 0.5 18t0.5 31q0 25 -8 42t-22 27t-32.5 14t-40.5 4h-63l-74 -223q-4 -11 -8.5 -29t-4.5 -33
q0 -18 13.5 -27t43.5 -9h214q11 0 17 3t11 10l99 120q7 8 10 10.5t8 2.5q7 0 8.5 -5t-0.5 -13l-36 -145q-2 -9 -9 -9h-78q-14 -12 -27.5 -27t-25 -32t-18.5 -35.5t-7 -38.5q0 -19 9.5 -30.5t28.5 -11.5q15 0 28.5 6.5t30.5 25.5q8 10 14.5 5t2.5 -13q-5 -9 -14 -20.5
t-23 -22t-33 -17.5t-43 -7q-32 0 -52 17.5t-20 49.5q0 24 9.5 45t25.5 40t36 35t41 31h-441z" />
    <glyph glyph-name="eogonek" unicode="&#x119;" horiz-adv-x="337" 
d="M35 -38q18 16 38 30q-4 -1 -11 -1q-13 0 -28 3.5t-27.5 13t-20.5 26.5t-8 43q0 34 10.5 74t29 80.5t43.5 78t54.5 67t62.5 47t67 17.5q37 0 54.5 -14.5t17.5 -37.5q0 -28 -20 -55.5t-53.5 -54t-78.5 -51.5t-96 -49q-10 -32 -15 -57t-5 -46q0 -26 8.5 -39t30.5 -13
q23 0 58 26.5t65 78.5q6 12 15 12q7 0 10 -5t-1 -12q-16 -30 -39.5 -59.5t-54.5 -51.5q-15 -11 -32.5 -26.5t-31.5 -34.5t-23.5 -41t-9.5 -44q0 -19 9.5 -30.5t28.5 -11.5q15 0 28.5 6.5t30.5 25.5q8 10 14.5 5t2.5 -13q-5 -9 -14 -20.5t-23 -22t-33 -17.5t-43 -7
q-32 0 -52 17.5t-20 49.5q0 22 8.5 42t22 37.5t31.5 33.5zM111 282q-19 -39 -33 -78q29 16 61.5 38t60 47t45.5 51.5t18 52.5q0 14 -8 21t-19 7q-19 0 -40.5 -19.5t-43 -50t-41.5 -69.5z" />
    <glyph glyph-name="Ecaron" unicode="&#x11a;" horiz-adv-x="649" 
d="M-36 0q-15 0 -15 11q0 7 4 10t15 3q33 0 54 16t35 61l159 479q6 17 9.5 29.5t3.5 26.5q0 17 -14 27t-50 10q-21 0 -21 13q0 12 13 12h445q15 0 16 -17l9 -80q1 -4 1.5 -11t0.5 -11q0 -11 -10 -11q-7 0 -12.5 5t-20.5 25l-45 60q-5 8 -11.5 11.5t-18.5 3.5h-174l-100 -301
h40q50 0 77.5 4.5t39.5 9.5q23 10 44.5 29t38.5 60q4 10 7.5 16t9.5 6t10.5 -4t2.5 -10q-9 -25 -21 -60t-25 -73t-24 -74.5t-19 -63.5q-3 -9 -6.5 -12t-6.5 -3q-12 0 -12 14q0 8 0.5 18t0.5 31q0 25 -8 42t-22 27t-32.5 14t-40.5 4h-63l-74 -223q-4 -11 -8.5 -29t-4.5 -33
q0 -18 13.5 -27t43.5 -9h214q11 0 17 3t11 10l99 120q7 8 10 10.5t8 2.5q7 0 8.5 -5t-0.5 -13l-36 -145q-2 -9 -9 -9h-556zM327 873q-2 4 -2 7q0 6 3.5 8t7.5 2q6 0 12 -6l75 -81l120 82q8 5 13 5q6 0 8.5 -3t2.5 -6q0 -5 -8 -13l-112 -113q-8 -9 -17.5 -15t-19.5 -6
q-12 0 -18.5 6.5t-10.5 15.5z" />
    <glyph glyph-name="ecaron" unicode="&#x11b;" horiz-adv-x="337" 
d="M165 228q-45 -25 -96 -49q-10 -32 -15 -57t-5 -46q0 -26 8.5 -39t30.5 -13q23 0 58 26.5t65 78.5q6 12 15 12q7 0 10 -5t-1 -12q-12 -23 -29 -46.5t-39 -43t-48 -31.5t-57 -12q-13 0 -28 3.5t-27.5 13t-20.5 26.5t-8 43q0 34 10.5 74t29 80.5t43.5 78t54.5 67t62.5 47
t67 17.5q37 0 54.5 -14.5t17.5 -37.5q0 -28 -20 -55.5t-53.5 -54t-78.5 -51.5zM111 282q-19 -39 -33 -78q29 16 61.5 38t60 47t45.5 51.5t18 52.5q0 14 -8 21t-19 7q-19 0 -40.5 -19.5t-43 -50t-41.5 -69.5zM291 491q-15 -19 -35 -19q-12 0 -20 5.5t-10 16.5l-21 175
q1 11 9 12.5t12 -7.5l48 -120l130 119q11 9 19 4.5t0 -15.5z" />
    <glyph glyph-name="Gcircumflex" unicode="&#x11c;" horiz-adv-x="664" 
d="M502 47q-8 -5 -27 -16t-47.5 -21.5t-65 -18.5t-78.5 -8q-58 0 -105 15.5t-80 46.5t-51 77.5t-18 108.5q0 110 39.5 198t102.5 149.5t141 94t155 32.5q27 0 50.5 -5t42.5 -12.5t33.5 -15.5t23.5 -14q14 -8 21 -8q5 0 10.5 6t8.5 11q5 8 11 8q11 0 11 -12q0 -6 -2 -14
l-40 -175q-2 -6 -5 -11t-9 -5q-7 0 -10.5 4.5t-3.5 17.5q0 33 -5.5 68.5t-21 65t-43 48t-71.5 18.5q-71 0 -133 -38.5t-108 -101t-72.5 -142t-26.5 -160.5q0 -37 6 -78t23 -75t47.5 -56t79.5 -22q46 0 66.5 9.5t31.5 18.5q17 12 36 41.5t37 83.5q5 14 10 34.5t5 37.5
q0 4 -1 9.5t-6 9.5t-15.5 7t-29.5 3q-18 0 -23 2t-5 10t5 10t13 2q33 0 63.5 -1t50.5 -1q26 0 56.5 1.5t52.5 1.5q13 0 13 -11q0 -6 -3.5 -9t-15.5 -3q-27 0 -44.5 -17.5t-33.5 -64.5zM389 734q-8 -5 -13 -5q-6 0 -8.5 3t-2.5 6q0 5 8 13l112 113q8 9 17.5 15t19.5 6
q12 0 18.5 -6.5t10.5 -15.5l54 -117q2 -4 2 -7q0 -6 -3.5 -8t-7.5 -2q-6 0 -12 6l-75 81z" />
    <glyph glyph-name="gcircumflex" unicode="&#x11d;" horiz-adv-x="393" 
d="M-27 -29q21 10 40 19q-23 8 -34 19.5t-11 29.5q0 14 8 29t20.5 29t26.5 27.5t26 24.5q-17 13 -28.5 32.5t-11.5 55.5q0 37 14 73.5t40 65.5t62 47t80 18q23 0 45 -9.5t34 -31.5q23 19 46 32.5t45 13.5q15 0 25 -8t10 -22q0 -15 -10 -24.5t-26 -9.5t-28.5 5t-26.5 5
q-13 0 -25 -8q4 -13 4 -29q0 -38 -15 -77t-42 -70.5t-65.5 -51.5t-84.5 -20q-10 0 -19 3q-17 -16 -30.5 -31.5t-13.5 -31.5q0 -18 22.5 -28.5t81.5 -25.5q63 -16 94.5 -35.5t31.5 -58.5q0 -37 -19 -61t-48 -38t-63.5 -19.5t-66.5 -5.5q-26 0 -55.5 3.5t-55 12t-42.5 23.5
t-17 39q0 20 12 36.5t30 29.5t40 23zM73 168q7 -11 24 -11q28 0 54 24t45.5 58.5t31 72t11.5 64.5q0 20 -8 33.5t-26 13.5q-29 0 -54.5 -25.5t-44 -61.5t-29 -74.5t-10.5 -64.5q0 -18 6 -29zM41 -19q-12 -6 -27.5 -14.5t-28.5 -20.5t-22 -26.5t-9 -32.5q0 -19 11 -30.5
t28.5 -18t38.5 -8.5t42 -2q69 0 100.5 20.5t31.5 47.5q0 25 -18.5 37.5t-54.5 23.5zM135 487q-11 -9 -19 -4.5t0 15.5l132 171q15 19 35 19q12 0 20 -5.5t10 -16.5l21 -175q-1 -11 -9 -12.5t-12 7.5l-48 120z" />
    <glyph glyph-name="Gbreve" unicode="&#x11e;" horiz-adv-x="664" 
d="M502 47q-8 -5 -27 -16t-47.5 -21.5t-65 -18.5t-78.5 -8q-58 0 -105 15.5t-80 46.5t-51 77.5t-18 108.5q0 110 39.5 198t102.5 149.5t141 94t155 32.5q27 0 50.5 -5t42.5 -12.5t33.5 -15.5t23.5 -14q14 -8 21 -8q5 0 10.5 6t8.5 11q5 8 11 8q11 0 11 -12q0 -6 -2 -14
l-40 -175q-2 -6 -5 -11t-9 -5q-7 0 -10.5 4.5t-3.5 17.5q0 33 -5.5 68.5t-21 65t-43 48t-71.5 18.5q-71 0 -133 -38.5t-108 -101t-72.5 -142t-26.5 -160.5q0 -37 6 -78t23 -75t47.5 -56t79.5 -22q46 0 66.5 9.5t31.5 18.5q17 12 36 41.5t37 83.5q5 14 10 34.5t5 37.5
q0 4 -1 9.5t-6 9.5t-15.5 7t-29.5 3q-18 0 -23 2t-5 10t5 10t13 2q33 0 63.5 -1t50.5 -1q26 0 56.5 1.5t52.5 1.5q13 0 13 -11q0 -6 -3.5 -9t-15.5 -3q-27 0 -44.5 -17.5t-33.5 -64.5zM417 776q-16 16 -25 42.5t-5 66.5q1 7 4.5 13.5t13.5 6.5q15 0 15 -14q1 -50 25.5 -69.5
t59.5 -19.5q33 0 69 19.5t66 70.5q5 8 8 10.5t10 2.5q10 0 12 -6.5t-1 -13.5q-18 -42 -40.5 -68.5t-45.5 -42t-45 -21t-39 -5.5q-22 0 -43.5 6.5t-38.5 21.5z" />
    <glyph glyph-name="gbreve" unicode="&#x11f;" horiz-adv-x="393" 
d="M-27 -29q21 10 40 19q-23 8 -34 19.5t-11 29.5q0 14 8 29t20.5 29t26.5 27.5t26 24.5q-17 13 -28.5 32.5t-11.5 55.5q0 37 14 73.5t40 65.5t62 47t80 18q23 0 45 -9.5t34 -31.5q23 19 46 32.5t45 13.5q15 0 25 -8t10 -22q0 -15 -10 -24.5t-26 -9.5t-28.5 5t-26.5 5
q-13 0 -25 -8q4 -13 4 -29q0 -38 -15 -77t-42 -70.5t-65.5 -51.5t-84.5 -20q-10 0 -19 3q-17 -16 -30.5 -31.5t-13.5 -31.5q0 -18 22.5 -28.5t81.5 -25.5q63 -16 94.5 -35.5t31.5 -58.5q0 -37 -19 -61t-48 -38t-63.5 -19.5t-66.5 -5.5q-26 0 -55.5 3.5t-55 12t-42.5 23.5
t-17 39q0 20 12 36.5t30 29.5t40 23zM73 168q7 -11 24 -11q28 0 54 24t45.5 58.5t31 72t11.5 64.5q0 20 -8 33.5t-26 13.5q-29 0 -54.5 -25.5t-44 -61.5t-29 -74.5t-10.5 -64.5q0 -18 6 -29zM41 -19q-12 -6 -27.5 -14.5t-28.5 -20.5t-22 -26.5t-9 -32.5q0 -19 11 -30.5
t28.5 -18t38.5 -8.5t42 -2q69 0 100.5 20.5t31.5 47.5q0 25 -18.5 37.5t-54.5 23.5zM163 545q-16 16 -25 42.5t-5 66.5q1 7 4.5 13.5t13.5 6.5q15 0 15 -14q1 -50 25.5 -69.5t59.5 -19.5q33 0 69 19.5t66 70.5q5 8 8 10.5t10 2.5q10 0 12 -6.5t-1 -13.5q-18 -42 -40.5 -68.5
t-45.5 -42t-45 -21t-39 -5.5q-22 0 -43.5 6.5t-38.5 21.5z" />
    <glyph glyph-name="Gdotaccent" unicode="&#x120;" horiz-adv-x="664" 
d="M502 47q-8 -5 -27 -16t-47.5 -21.5t-65 -18.5t-78.5 -8q-58 0 -105 15.5t-80 46.5t-51 77.5t-18 108.5q0 110 39.5 198t102.5 149.5t141 94t155 32.5q27 0 50.5 -5t42.5 -12.5t33.5 -15.5t23.5 -14q14 -8 21 -8q5 0 10.5 6t8.5 11q5 8 11 8q11 0 11 -12q0 -6 -2 -14
l-40 -175q-2 -6 -5 -11t-9 -5q-7 0 -10.5 4.5t-3.5 17.5q0 33 -5.5 68.5t-21 65t-43 48t-71.5 18.5q-71 0 -133 -38.5t-108 -101t-72.5 -142t-26.5 -160.5q0 -37 6 -78t23 -75t47.5 -56t79.5 -22q46 0 66.5 9.5t31.5 18.5q17 12 36 41.5t37 83.5q5 14 10 34.5t5 37.5
q0 4 -1 9.5t-6 9.5t-15.5 7t-29.5 3q-18 0 -23 2t-5 10t5 10t13 2q33 0 63.5 -1t50.5 -1q26 0 56.5 1.5t52.5 1.5q13 0 13 -11q0 -6 -3.5 -9t-15.5 -3q-27 0 -44.5 -17.5t-33.5 -64.5zM489 753q-24 0 -37 15t-13 35q0 26 17.5 45.5t47.5 19.5q22 0 36 -14t14 -35
q0 -25 -18.5 -45.5t-46.5 -20.5z" />
    <glyph glyph-name="gdotaccent" unicode="&#x121;" horiz-adv-x="393" 
d="M-27 -29q21 10 40 19q-23 8 -34 19.5t-11 29.5q0 14 8 29t20.5 29t26.5 27.5t26 24.5q-17 13 -28.5 32.5t-11.5 55.5q0 37 14 73.5t40 65.5t62 47t80 18q23 0 45 -9.5t34 -31.5q23 19 46 32.5t45 13.5q15 0 25 -8t10 -22q0 -15 -10 -24.5t-26 -9.5t-28.5 5t-26.5 5
q-13 0 -25 -8q4 -13 4 -29q0 -38 -15 -77t-42 -70.5t-65.5 -51.5t-84.5 -20q-10 0 -19 3q-17 -16 -30.5 -31.5t-13.5 -31.5q0 -18 22.5 -28.5t81.5 -25.5q63 -16 94.5 -35.5t31.5 -58.5q0 -37 -19 -61t-48 -38t-63.5 -19.5t-66.5 -5.5q-26 0 -55.5 3.5t-55 12t-42.5 23.5
t-17 39q0 20 12 36.5t30 29.5t40 23zM73 168q7 -11 24 -11q28 0 54 24t45.5 58.5t31 72t11.5 64.5q0 20 -8 33.5t-26 13.5q-29 0 -54.5 -25.5t-44 -61.5t-29 -74.5t-10.5 -64.5q0 -18 6 -29zM41 -19q-12 -6 -27.5 -14.5t-28.5 -20.5t-22 -26.5t-9 -32.5q0 -19 11 -30.5
t28.5 -18t38.5 -8.5t42 -2q69 0 100.5 20.5t31.5 47.5q0 25 -18.5 37.5t-54.5 23.5zM234 520q-22 0 -33.5 13.5t-11.5 31.5q0 23 16 41t43 18q20 0 32.5 -12.5t12.5 -31.5q0 -23 -16.5 -41.5t-42.5 -18.5z" />
    <glyph glyph-name="Gcommaaccent" unicode="&#x122;" horiz-adv-x="664" 
d="M502 47q-8 -5 -27 -16t-47.5 -21.5t-65 -18.5t-78.5 -8q-58 0 -105 15.5t-80 46.5t-51 77.5t-18 108.5q0 110 39.5 198t102.5 149.5t141 94t155 32.5q27 0 50.5 -5t42.5 -12.5t33.5 -15.5t23.5 -14q14 -8 21 -8q5 0 10.5 6t8.5 11q5 8 11 8q11 0 11 -12q0 -6 -2 -14
l-40 -175q-2 -6 -5 -11t-9 -5q-7 0 -10.5 4.5t-3.5 17.5q0 33 -5.5 68.5t-21 65t-43 48t-71.5 18.5q-71 0 -133 -38.5t-108 -101t-72.5 -142t-26.5 -160.5q0 -37 6 -78t23 -75t47.5 -56t79.5 -22q46 0 66.5 9.5t31.5 18.5q17 12 36 41.5t37 83.5q5 14 10 34.5t5 37.5
q0 4 -1 9.5t-6 9.5t-15.5 7t-29.5 3q-18 0 -23 2t-5 10t5 10t13 2q33 0 63.5 -1t50.5 -1q26 0 56.5 1.5t52.5 1.5q13 0 13 -11q0 -6 -3.5 -9t-15.5 -3q-27 0 -44.5 -17.5t-33.5 -64.5zM198 -251q-5 0 -6.5 3t-1.5 5q0 4 5.5 9t10.5 10q17 14 29.5 30.5t12.5 36.5q0 11 -5 14
t-9 3q-19 0 -32 10t-13 32t14 34.5t34 12.5q25 0 38.5 -18.5t13.5 -42.5q0 -46 -19 -74.5t-49 -53.5q-9 -8 -13.5 -9.5t-9.5 -1.5z" />
    <glyph glyph-name="gcommaaccent" unicode="&#x123;" horiz-adv-x="393" 
d="M-27 -29q21 10 40 19q-23 8 -34 19.5t-11 29.5q0 14 8 29t20.5 29t26.5 27.5t26 24.5q-17 13 -28.5 32.5t-11.5 55.5q0 37 14 73.5t40 65.5t62 47t80 18q23 0 45 -9.5t34 -31.5q23 19 46 32.5t45 13.5q15 0 25 -8t10 -22q0 -15 -10 -24.5t-26 -9.5t-28.5 5t-26.5 5
q-13 0 -25 -8q4 -13 4 -29q0 -38 -15 -77t-42 -70.5t-65.5 -51.5t-84.5 -20q-10 0 -19 3q-17 -16 -30.5 -31.5t-13.5 -31.5q0 -18 22.5 -28.5t81.5 -25.5q63 -16 94.5 -35.5t31.5 -58.5q0 -37 -19 -61t-48 -38t-63.5 -19.5t-66.5 -5.5q-26 0 -55.5 3.5t-55 12t-42.5 23.5
t-17 39q0 20 12 36.5t30 29.5t40 23zM73 168q7 -11 24 -11q28 0 54 24t45.5 58.5t31 72t11.5 64.5q0 20 -8 33.5t-26 13.5q-29 0 -54.5 -25.5t-44 -61.5t-29 -74.5t-10.5 -64.5q0 -18 6 -29zM41 -19q-12 -6 -27.5 -14.5t-28.5 -20.5t-22 -26.5t-9 -32.5q0 -19 11 -30.5
t28.5 -18t38.5 -8.5t42 -2q69 0 100.5 20.5t31.5 47.5q0 25 -18.5 37.5t-54.5 23.5zM241 486q-23 0 -35.5 16.5t-12.5 39.5q0 41 23 72.5t52 55.5q8 6 12 8t9 2t6 -2.5t1 -4.5q0 -4 -3.5 -7.5l-5.5 -5.5q-15 -14 -32.5 -33t-21.5 -36q-1 -4 -1 -9q0 -10 3.5 -13.5t8.5 -3.5
q16 0 27.5 -9t11.5 -29t-12.5 -30.5t-29.5 -10.5z" />
    <glyph glyph-name="Hcircumflex" unicode="&#x124;" horiz-adv-x="748" 
d="M152 113q-8 -25 -10 -38.5t-2 -21.5q0 -19 14.5 -26t45.5 -7q8 0 10 -3t2 -8q0 -6 -2 -8.5t-12 -2.5q-29 0 -55.5 1t-66.5 1q-27 0 -54 -1.5t-56 -1.5q-14 0 -14 12q0 5 3.5 8.5t14.5 3.5q59 0 79 58l168 499q11 32 11 63q0 33 -50 33q-14 0 -18.5 3t-4.5 11t4.5 9t9.5 1
q28 0 57 -1t64 -1q26 0 52 1t58 1q17 0 17 -11q0 -6 -4 -9.5t-15 -3.5q-38 0 -53 -15t-25 -45l-83 -244h301l73 213q5 13 9 28t4 31q0 32 -52 32q-14 0 -18.5 2.5t-4.5 9.5q0 8 5.5 10t13.5 2q34 0 65 -1t50 -1q26 0 53.5 1.5t60.5 1.5q11 0 14.5 -2.5t3.5 -9.5
q0 -5 -4 -8.5t-16 -3.5q-62 0 -81 -58l-164 -488q-7 -20 -10.5 -36.5t-3.5 -27.5q0 -17 12.5 -30t44.5 -13q8 0 10.5 -3t2.5 -8q0 -6 -2.5 -8.5t-12.5 -2.5q-28 0 -55 1t-66 1q-40 0 -63 -1t-48 -1q-13 0 -13 11q0 5 3 8.5t14 3.5q34 0 52 16t34 63l78 233h-301zM385 734
q-8 -5 -13 -5q-6 0 -8.5 3t-2.5 6q0 5 8 13l112 113q8 9 17.5 15t19.5 6q12 0 18.5 -6.5t10.5 -15.5l54 -117q2 -4 2 -7q0 -6 -3.5 -8t-7.5 -2q-6 0 -12 6l-75 81z" />
    <glyph glyph-name="hcircumflex" unicode="&#x125;" horiz-adv-x="438" 
d="M133 269q32 43 60 77.5t61 64.5q22 20 41 25t38 5q20 0 34 -10.5t14 -30.5t-6 -35q-15 -42 -30 -79t-30 -72.5t-30.5 -70.5t-32.5 -73q-5 -10 -6 -16.5t8 -6.5q6 0 19.5 12t27.5 27.5t26 30t16 19.5l7.5 9t7.5 3q8 0 8.5 -6t-2.5 -11q-26 -34 -55 -66.5t-64 -54.5
q-20 -12 -45 -12q-32 0 -32 30q0 13 7 28q28 69 60.5 141t63.5 147q4 10 6.5 20.5t2.5 19.5q0 8 -2.5 14t-10.5 6q-18 0 -35 -16q-11 -10 -32 -33t-44 -51t-44 -56.5t-33 -50.5q-26 -48 -48.5 -93.5t-43.5 -93.5q-2 -4 -4 -6.5t-9 -3.5q-10 -1 -22 -1.5t-16 -0.5
q-16 0 -16 7q0 3 3 9l253 600q2 5 4 12t2 13q0 17 -17 22q-13 4 -23.5 5t-22.5 3q-8 1 -6.5 11t11.5 10q26 -1 64.5 -1.5t74.5 1.5q8 1 10.5 -1.5t-1.5 -12.5t-17 -42t-31 -74.5t-38.5 -90t-38.5 -89t-31 -71.5t-16 -37zM174 734q-8 -5 -13 -5q-6 0 -8.5 3t-2.5 6q0 5 8 13
l112 113q8 9 17.5 15t19.5 6q12 0 18.5 -6.5t10.5 -15.5l54 -117q2 -4 2 -7q0 -6 -3.5 -8t-7.5 -2q-6 0 -12 6l-75 81z" />
    <glyph glyph-name="Hbar" unicode="&#x126;" horiz-adv-x="748" 
d="M152 113q-8 -25 -10 -38.5t-2 -21.5q0 -19 14.5 -26t45.5 -7q8 0 10 -3t2 -8q0 -6 -2 -8.5t-12 -2.5q-29 0 -55.5 1t-66.5 1q-27 0 -54 -1.5t-56 -1.5q-14 0 -14 12q0 5 3.5 8.5t14.5 3.5q59 0 79 58l145 430h-66q-8 0 -11.5 4.5t-3.5 10.5q0 8 6 16.5t17 8.5h71l10 29
q11 32 11 63q0 33 -50 33q-14 0 -18.5 3t-4.5 11t4.5 9t9.5 1q28 0 57 -1t64 -1q26 0 52 1t58 1q17 0 17 -11q0 -6 -4 -9.5t-15 -3.5q-38 0 -53 -15t-25 -45l-22 -65h301l12 34q5 13 9 28t4 31q0 32 -52 32q-14 0 -18.5 2.5t-4.5 9.5q0 8 5.5 10t13.5 2q34 0 65 -1t50 -1
q26 0 53.5 1.5t60.5 1.5q11 0 14.5 -2.5t3.5 -9.5q0 -5 -4 -8.5t-16 -3.5q-62 0 -81 -58l-23 -68h76q17 0 17 -14q0 -11 -7 -18.5t-16 -7.5h-84l-127 -380q-7 -20 -10.5 -36.5t-3.5 -27.5q0 -17 12.5 -30t44.5 -13q8 0 10.5 -3t2.5 -8q0 -6 -2.5 -8.5t-12.5 -2.5
q-28 0 -55 1t-66 1q-40 0 -63 -1t-48 -1q-13 0 -13 11q0 5 3 8.5t14 3.5q34 0 52 16t34 63l78 233h-301zM237 370h301l47 139h-301z" />
    <glyph glyph-name="hbar" unicode="&#x127;" horiz-adv-x="438" 
d="M133 269q32 43 60 77.5t61 64.5q22 20 41 25t38 5q20 0 34 -10.5t14 -30.5t-6 -35q-15 -42 -30 -79t-30 -72.5t-30.5 -70.5t-32.5 -73q-5 -10 -6 -16.5t8 -6.5q6 0 19.5 12t27.5 27.5t26 30t16 19.5l7.5 9t7.5 3q8 0 8.5 -6t-2.5 -11q-26 -34 -55 -66.5t-64 -54.5
q-20 -12 -45 -12q-32 0 -32 30q0 13 7 28q28 69 60.5 141t63.5 147q4 10 6.5 20.5t2.5 19.5q0 8 -2.5 14t-10.5 6q-18 0 -35 -16q-11 -10 -32 -33t-44 -51t-44 -56.5t-33 -50.5q-26 -48 -48.5 -93.5t-43.5 -93.5q-2 -4 -4 -6.5t-9 -3.5q-10 -1 -22 -1.5t-16 -0.5
q-16 0 -16 7q0 3 3 9l217 515h-43q-8 0 -11.5 4.5t-3.5 10.5q0 8 6 16.5t17 8.5h52l19 45q2 5 4 12t2 13q0 17 -17 22q-13 4 -23.5 5t-22.5 3q-8 1 -6.5 11t11.5 10q26 -1 64.5 -1.5t74.5 1.5q8 1 10.5 -1.5t-1.5 -12.5t-15.5 -39t-28.5 -68h164q17 0 17 -14q0 -11 -7 -18.5
t-16 -7.5h-175q-18 -41 -36.5 -83.5t-34 -79t-26.5 -62t-14 -32.5z" />
    <glyph glyph-name="Itilde" unicode="&#x128;" horiz-adv-x="355" 
d="M152 113q-8 -25 -10.5 -38.5t-2.5 -21.5q0 -19 15 -26t46 -7q8 0 10.5 -3t2.5 -8q0 -6 -2.5 -8.5t-12.5 -2.5q-29 0 -55.5 1t-66.5 1q-27 0 -54.5 -1.5t-56.5 -1.5q-13 0 -13 12q0 5 3 8.5t14 3.5q32 0 51 15t29 43l169 499q5 14 8.5 30t3.5 33t-13.5 25t-37.5 8
q-14 0 -19 2.5t-5 10.5t4.5 9.5t9.5 1.5q28 0 57 -1t64 -1q26 0 51.5 1t57.5 1q11 0 14.5 -2.5t3.5 -8.5t-3.5 -9.5t-15.5 -3.5q-38 0 -53 -15t-25 -45zM153 750q-9 0 -12 7.5t2 18.5q15 33 39 55t59 22q22 0 44 -9t42.5 -19.5t38.5 -19t33 -8.5q19 0 30 12t20 30
q4 7 6.5 10.5t10.5 3.5q9 0 12 -5t1 -12q-5 -14 -12.5 -28.5t-18.5 -26.5t-27 -19.5t-38 -7.5q-23 0 -44.5 8.5t-42 19t-40 19.5t-37.5 9q-16 0 -25.5 -12t-19.5 -30q-5 -10 -9 -14t-12 -4z" />
    <glyph glyph-name="itilde" unicode="&#x129;" horiz-adv-x="250" 
d="M205 408q0 -14 -7 -29q-29 -77 -66.5 -154.5t-69.5 -152.5q-5 -10 -6 -18.5t8 -8.5q6 0 18 10t25.5 23.5t25.5 27.5t18 22q7 12 13 12t9.5 -5t-0.5 -10q-29 -42 -57 -67.5t-60 -45.5q-10 -6 -23.5 -10t-27.5 -4q-12 0 -20.5 8t-8.5 22q0 11 6 28q14 33 31.5 71t36.5 77.5
t37 79t34 76.5q3 7 5 12t2 10q0 10 -9 10q-6 0 -18.5 -10t-26.5 -26t-28.5 -35t-26.5 -38q-5 -7 -12 -7q-6 0 -9 4.5t0 9.5q21 35 53 71t65 59q29 21 57 21q11 0 21.5 -7.5t10.5 -25.5zM33 533q-9 0 -12 7.5t2 18.5q15 33 39 55t59 22q22 0 44 -9t42.5 -19.5t38.5 -19
t33 -8.5q19 0 30 12t20 30q4 7 6.5 10.5t10.5 3.5q9 0 12 -5t1 -12q-5 -14 -12.5 -28.5t-18.5 -26.5t-27 -19.5t-38 -7.5q-23 0 -44.5 8.5t-42 19t-40 19.5t-37.5 9q-16 0 -25.5 -12t-19.5 -30q-5 -10 -9 -14t-12 -4z" />
    <glyph glyph-name="Imacron" unicode="&#x12a;" horiz-adv-x="355" 
d="M152 113q-8 -25 -10.5 -38.5t-2.5 -21.5q0 -19 15 -26t46 -7q8 0 10.5 -3t2.5 -8q0 -6 -2.5 -8.5t-12.5 -2.5q-29 0 -55.5 1t-66.5 1q-27 0 -54.5 -1.5t-56.5 -1.5q-13 0 -13 12q0 5 3 8.5t14 3.5q32 0 51 15t29 43l169 499q5 14 8.5 30t3.5 33t-13.5 25t-37.5 8
q-14 0 -19 2.5t-5 10.5t4.5 9.5t9.5 1.5q28 0 57 -1t64 -1q26 0 51.5 1t57.5 1q11 0 14.5 -2.5t3.5 -8.5t-3.5 -9.5t-15.5 -3.5q-38 0 -53 -15t-25 -45zM185 773q-5 0 -6 3t0 5l13 39q3 9 12 9h229q5 0 6 -4t-1 -8l-12 -35q-4 -9 -11 -9h-230z" />
    <glyph glyph-name="imacron" unicode="&#x12b;" horiz-adv-x="250" 
d="M205 408q0 -14 -7 -29q-29 -77 -66.5 -154.5t-69.5 -152.5q-5 -10 -6 -18.5t8 -8.5q6 0 18 10t25.5 23.5t25.5 27.5t18 22q7 12 13 12t9.5 -5t-0.5 -10q-29 -42 -57 -67.5t-60 -45.5q-10 -6 -23.5 -10t-27.5 -4q-12 0 -20.5 8t-8.5 22q0 11 6 28q14 33 31.5 71t36.5 77.5
t37 79t34 76.5q3 7 5 12t2 10q0 10 -9 10q-6 0 -18.5 -10t-26.5 -26t-28.5 -35t-26.5 -38q-5 -7 -12 -7q-6 0 -9 4.5t0 9.5q21 35 53 71t65 59q29 21 57 21q11 0 21.5 -7.5t10.5 -25.5zM71 564q-5 0 -6 3t0 5l13 39q3 9 12 9h229q5 0 6 -4t-1 -8l-12 -35q-4 -9 -11 -9h-230z
" />
    <glyph glyph-name="Ibreve" unicode="&#x12c;" horiz-adv-x="355" 
d="M152 113q-8 -25 -10.5 -38.5t-2.5 -21.5q0 -19 15 -26t46 -7q8 0 10.5 -3t2.5 -8q0 -6 -2.5 -8.5t-12.5 -2.5q-29 0 -55.5 1t-66.5 1q-27 0 -54.5 -1.5t-56.5 -1.5q-13 0 -13 12q0 5 3 8.5t14 3.5q32 0 51 15t29 43l169 499q5 14 8.5 30t3.5 33t-13.5 25t-37.5 8
q-14 0 -19 2.5t-5 10.5t4.5 9.5t9.5 1.5q28 0 57 -1t64 -1q26 0 51.5 1t57.5 1q11 0 14.5 -2.5t3.5 -8.5t-3.5 -9.5t-15.5 -3.5q-38 0 -53 -15t-25 -45zM220 776q-16 16 -25 42.5t-5 66.5q1 7 4.5 13.5t13.5 6.5q15 0 15 -14q1 -50 25.5 -69.5t59.5 -19.5q33 0 69 19.5
t66 70.5q5 8 8 10.5t10 2.5q10 0 12 -6.5t-1 -13.5q-18 -42 -40.5 -68.5t-45.5 -42t-45 -21t-39 -5.5q-22 0 -43.5 6.5t-38.5 21.5z" />
    <glyph glyph-name="ibreve" unicode="&#x12d;" horiz-adv-x="250" 
d="M205 408q0 -14 -7 -29q-29 -77 -66.5 -154.5t-69.5 -152.5q-5 -10 -6 -18.5t8 -8.5q6 0 18 10t25.5 23.5t25.5 27.5t18 22q7 12 13 12t9.5 -5t-0.5 -10q-29 -42 -57 -67.5t-60 -45.5q-10 -6 -23.5 -10t-27.5 -4q-12 0 -20.5 8t-8.5 22q0 11 6 28q14 33 31.5 71t36.5 77.5
t37 79t34 76.5q3 7 5 12t2 10q0 10 -9 10q-6 0 -18.5 -10t-26.5 -26t-28.5 -35t-26.5 -38q-5 -7 -12 -7q-6 0 -9 4.5t0 9.5q21 35 53 71t65 59q29 21 57 21q11 0 21.5 -7.5t10.5 -25.5zM112 545q-16 16 -25 42.5t-5 66.5q1 7 4.5 13.5t13.5 6.5q15 0 15 -14
q1 -50 25.5 -69.5t59.5 -19.5q33 0 69 19.5t66 70.5q5 8 8 10.5t10 2.5q10 0 12 -6.5t-1 -13.5q-18 -42 -40.5 -68.5t-45.5 -42t-45 -21t-39 -5.5q-22 0 -43.5 6.5t-38.5 21.5z" />
    <glyph glyph-name="Iogonek" unicode="&#x12e;" horiz-adv-x="355" 
d="M152 113q-8 -25 -10.5 -38.5t-2.5 -21.5q0 -19 15 -26t46 -7q8 0 10.5 -3t2.5 -8q0 -6 -2.5 -8.5t-12.5 -2.5q-23 0 -44.5 1t-49.5 1q-14 -12 -27.5 -27t-25 -32t-18.5 -35.5t-7 -38.5q0 -19 9.5 -30.5t28.5 -11.5q15 0 28.5 6.5t30.5 25.5q8 10 14.5 5t2.5 -13
q-5 -9 -14 -20.5t-23 -22t-33 -17.5t-43 -7q-32 0 -52 17.5t-20 49.5q0 24 9.5 45t25.5 40t36 35t41 31q-25 0 -50.5 -1.5t-51.5 -1.5q-13 0 -13 12q0 5 3 8.5t14 3.5q32 0 51 15t29 43l169 499q5 14 8.5 30t3.5 33t-13.5 25t-37.5 8q-14 0 -19 2.5t-5 10.5t4.5 9.5t9.5 1.5
q28 0 57 -1t64 -1q26 0 51.5 1t57.5 1q11 0 14.5 -2.5t3.5 -8.5t-3.5 -9.5t-15.5 -3.5q-38 0 -53 -15t-25 -45z" />
    <glyph glyph-name="iogonek" unicode="&#x12f;" horiz-adv-x="250" 
d="M-40 -33q19 16 40 31q-10 2 -17 9.5t-7 20.5q0 11 6 28q14 33 31.5 71t36.5 77.5t37 79t34 76.5q3 7 5 12t2 10q0 10 -9 10q-6 0 -18.5 -10t-26.5 -26t-28.5 -35t-26.5 -38q-5 -7 -12 -7q-6 0 -9 4.5t0 9.5q21 35 53 71t65 59q29 21 57 21q11 0 21.5 -7.5t10.5 -25.5
q0 -14 -7 -29q-29 -77 -66.5 -154.5t-69.5 -152.5q-5 -10 -6 -18.5t8 -8.5q6 0 18 10t25.5 23.5t25.5 27.5t18 22q7 12 13 12t9.5 -5t-0.5 -10q-29 -42 -55 -68t-56 -48q-17 -12 -34.5 -27.5t-32 -33.5t-24 -38.5t-9.5 -42.5q0 -19 9.5 -30.5t28.5 -11.5q15 0 28.5 6.5
t30.5 25.5q8 10 14.5 5t2.5 -13q-5 -9 -14 -20.5t-23 -22t-33 -17.5t-43 -7q-32 0 -52 17.5t-20 49.5q0 24 9.5 44.5t24.5 39t35 34.5zM211 608q-20 0 -34 14t-14 34t14 34.5t34 14.5t34.5 -14.5t14.5 -34.5t-14.5 -34t-34.5 -14z" />
    <glyph glyph-name="Idotaccent" unicode="&#x130;" horiz-adv-x="355" 
d="M152 113q-8 -25 -10.5 -38.5t-2.5 -21.5q0 -19 15 -26t46 -7q8 0 10.5 -3t2.5 -8q0 -6 -2.5 -8.5t-12.5 -2.5q-29 0 -55.5 1t-66.5 1q-27 0 -54.5 -1.5t-56.5 -1.5q-13 0 -13 12q0 5 3 8.5t14 3.5q32 0 51 15t29 43l169 499q5 14 8.5 30t3.5 33t-13.5 25t-37.5 8
q-14 0 -19 2.5t-5 10.5t4.5 9.5t9.5 1.5q28 0 57 -1t64 -1q26 0 51.5 1t57.5 1q11 0 14.5 -2.5t3.5 -8.5t-3.5 -9.5t-15.5 -3.5q-38 0 -53 -15t-25 -45zM310 753q-24 0 -37 15t-13 35q0 26 17.5 45.5t47.5 19.5q22 0 36 -14t14 -35q0 -25 -18.5 -45.5t-46.5 -20.5z" />
    <glyph glyph-name="dotlessi" unicode="&#x131;" horiz-adv-x="250" 
d="M205 408q0 -14 -7 -29q-29 -77 -66.5 -154.5t-69.5 -152.5q-5 -10 -6 -18.5t8 -8.5q6 0 18 10t25.5 23.5t25.5 27.5t18 22q7 12 13 12t9.5 -5t-0.5 -10q-29 -42 -57 -67.5t-60 -45.5q-10 -6 -23.5 -10t-27.5 -4q-12 0 -20.5 8t-8.5 22q0 11 6 28q14 33 31.5 71t36.5 77.5
t37 79t34 76.5q3 7 5 12t2 10q0 10 -9 10q-6 0 -18.5 -10t-26.5 -26t-28.5 -35t-26.5 -38q-5 -7 -12 -7q-6 0 -9 4.5t0 9.5q21 35 53 71t65 59q29 21 57 21q11 0 21.5 -7.5t10.5 -25.5z" />
    <glyph glyph-name="IJ" unicode="&#x132;" horiz-adv-x="756" 
d="M152 113q-8 -25 -10.5 -38.5t-2.5 -21.5q0 -19 15 -26t46 -7q8 0 10.5 -3t2.5 -8q0 -6 -2.5 -8.5t-12.5 -2.5q-29 0 -55.5 1t-66.5 1q-27 0 -54.5 -1.5t-56.5 -1.5q-13 0 -13 12q0 5 3 8.5t14 3.5q32 0 51 15t29 43l169 499q5 14 8.5 30t3.5 33t-13.5 25t-37.5 8
q-14 0 -19 2.5t-5 10.5t4.5 9.5t9.5 1.5q28 0 57 -1t64 -1q26 0 51.5 1t57.5 1q11 0 14.5 -2.5t3.5 -8.5t-3.5 -9.5t-15.5 -3.5q-38 0 -53 -15t-25 -45zM590 161q-12 -37 -27.5 -70t-38.5 -57.5t-55 -39t-78 -14.5q-60 0 -87 27t-27 64q0 32 16 49t42 17q20 0 32.5 -11
t12.5 -31q0 -15 -7.5 -24t-16 -15t-16 -11t-7.5 -12q0 -16 15.5 -21.5t33.5 -5.5q40 0 60.5 27.5t34.5 70.5l159 474q5 14 9 30t4 33t-14 25t-37 8q-14 0 -19 2t-5 10t4.5 10t8.5 2q28 0 57 -1.5t64 -1.5q26 0 52 1.5t58 1.5q11 0 14.5 -3.5t3.5 -9.5t-3 -8.5t-16 -2.5
q-38 0 -53 -15t-25 -45z" />
    <glyph glyph-name="ij" unicode="&#x133;" horiz-adv-x="477" 
d="M205 408q0 -14 -7 -29q-29 -77 -66.5 -154.5t-69.5 -152.5q-5 -10 -6 -18.5t8 -8.5q6 0 18 10t25.5 23.5t25.5 27.5t18 22q7 12 13 12t9.5 -5t-0.5 -10q-29 -42 -57 -67.5t-60 -45.5q-10 -6 -23.5 -10t-27.5 -4q-12 0 -20.5 8t-8.5 22q0 11 6 28q14 33 31.5 71t36.5 77.5
t37 79t34 76.5q3 7 5 12t2 10q0 10 -9 10q-6 0 -18.5 -10t-26.5 -26t-28.5 -35t-26.5 -38q-5 -7 -12 -7q-6 0 -9 4.5t0 9.5q21 35 53 71t65 59q29 21 57 21q11 0 21.5 -7.5t10.5 -25.5zM211 608q-20 0 -34 14t-14 34t14 34.5t34 14.5t34.5 -14.5t14.5 -34.5t-14.5 -34
t-34.5 -14zM36 -172q-21 13 -21 38q0 23 13.5 34t27.5 11q16 0 26.5 -8t10.5 -26q0 -4 -1 -10.5t-1 -13t2.5 -11t9.5 -4.5q12 0 24.5 10.5t23.5 27t20.5 35t17.5 35.5t21.5 49.5t30 72.5t34.5 84.5t35 86.5q11 28 24 58t27 63q3 7 5 12t2 10q0 10 -9 10q-6 0 -18.5 -10
t-26.5 -26t-28.5 -35t-26.5 -38q-5 -7 -12 -7q-6 0 -9 4.5t0 9.5q21 35 53 71t65 59q29 21 57 21q11 0 21.5 -7.5t10.5 -25.5q0 -14 -7 -29q-8 -20 -13.5 -35t-11 -28t-11 -25.5t-11.5 -28.5q-17 -42 -36.5 -89t-38.5 -90.5t-35 -79.5t-26 -55q-32 -62 -75 -97.5t-88 -35.5
q-35 0 -56 13zM415 622q-14 14 -14 34t14.5 34.5t34.5 14.5t34.5 -14.5t14.5 -34.5t-14.5 -34t-34.5 -14t-35 14z" />
    <glyph glyph-name="Jcircumflex" unicode="&#x134;" horiz-adv-x="429" 
d="M263 161q-12 -37 -27.5 -70t-38.5 -57.5t-55 -39t-78 -14.5q-60 0 -87 27t-27 64q0 32 16 49t42 17q20 0 32.5 -11t12.5 -31q0 -15 -7.5 -24t-16 -15t-16 -11t-7.5 -12q0 -16 15.5 -21.5t33.5 -5.5q40 0 60.5 27.5t34.5 70.5l159 474q5 14 9 30t4 33t-14 25t-37 8
q-14 0 -19 2t-5 10t4.5 10t8.5 2q28 0 57 -1.5t64 -1.5q26 0 52 1.5t58 1.5q11 0 14.5 -3.5t3.5 -9.5t-3 -8.5t-16 -2.5q-38 0 -53 -15t-25 -45zM289 734q-8 -5 -13 -5q-6 0 -8.5 3t-2.5 6q0 5 8 13l112 113q8 9 17.5 15t19.5 6q12 0 18.5 -6.5t10.5 -15.5l54 -117
q2 -4 2 -7q0 -6 -3.5 -8t-7.5 -2q-6 0 -12 6l-75 81z" />
    <glyph glyph-name="jcircumflex" unicode="&#x135;" horiz-adv-x="233" 
d="M-208 -172q-21 13 -21 38q0 23 13.5 34t27.5 11q16 0 26.5 -8t10.5 -26q0 -4 -1 -10.5t-1 -13t2.5 -11t9.5 -4.5q12 0 24.5 10.5t23.5 27t20.5 35t17.5 35.5t21.5 49.5t30 72.5t34.5 84.5t35 86.5q11 28 24 58t27 63q3 7 5 12t2 10q0 10 -9 10q-6 0 -18.5 -10t-26.5 -26
t-28.5 -35t-26.5 -38q-5 -7 -12 -7q-6 0 -9 4.5t0 9.5q21 35 53 71t65 59q29 21 57 21q11 0 21.5 -7.5t10.5 -25.5q0 -14 -7 -29q-8 -20 -13.5 -35t-11 -28t-11 -25.5t-11.5 -28.5q-17 -42 -36.5 -89t-38.5 -90.5t-35 -79.5t-26 -55q-32 -62 -75 -97.5t-88 -35.5
q-35 0 -56 13zM85 487q-11 -9 -19 -4.5t0 15.5l132 171q15 19 35 19q12 0 20 -5.5t10 -16.5l21 -175q-1 -11 -9 -12.5t-12 7.5l-48 120z" />
    <glyph glyph-name="Kcommaaccent" unicode="&#x136;" horiz-adv-x="657" 
d="M154 113q-8 -25 -10 -38.5t-2 -21.5q0 -19 15 -26t44 -7q8 0 10.5 -3t2.5 -8q0 -6 -2.5 -8.5t-11.5 -2.5q-28 0 -55.5 1t-66.5 1q-27 0 -54.5 -1.5t-56.5 -1.5q-14 0 -14 12q0 5 3.5 8.5t14.5 3.5q31 0 50.5 15.5t28.5 42.5l166 507q4 13 6.5 27t2.5 28q0 33 -50 33
q-14 0 -18.5 3t-4.5 11t4.5 9t9.5 1q28 0 56.5 -1.5t63.5 -1.5q26 0 52 1.5t58 1.5q11 0 14.5 -2.5t3.5 -8.5t-4 -9.5t-16 -3.5q-38 0 -53 -15.5t-25 -44.5l-87 -257l266 238q20 19 33 34t13 23q0 9 -9.5 14t-32.5 7q-14 2 -20 3.5t-6 9.5t6 10t11 2q26 0 57 -1.5t65 -1.5
q17 0 37 1.5t34 1.5q11 0 15 -2.5t4 -8.5t-4 -9t-17 -5q-15 -2 -42.5 -13t-65.5 -43q-27 -23 -58 -49.5t-64 -54.5t-66 -57.5t-64 -58.5l145 -268q13 -24 25 -43.5t26 -34t31.5 -22.5t40.5 -8q8 0 11 -3.5t3 -8.5q0 -6 -3 -8.5t-13 -2.5q-30 0 -64 1t-73 1q-27 0 -54.5 -1.5
t-56.5 -1.5q-14 0 -14 12q0 5 3 8.5t14 3.5q58 0 58 29q0 8 -4.5 19t-9.5 21l-136 244l-36 -34zM208 -251q-5 0 -6.5 3t-1.5 5q0 4 5.5 9t10.5 10q17 14 29.5 30.5t12.5 36.5q0 11 -5 14t-9 3q-19 0 -32 10t-13 32t14 34.5t34 12.5q25 0 38.5 -18.5t13.5 -42.5
q0 -46 -19 -74.5t-49 -53.5q-9 -8 -13.5 -9.5t-9.5 -1.5z" />
    <glyph glyph-name="kcommaaccent" unicode="&#x137;" horiz-adv-x="417" 
d="M167 344q11 12 27.5 29t38 32t47 25.5t54.5 10.5q25 0 42.5 -13.5t17.5 -42.5q0 -36 -23.5 -66t-63.5 -55q-29 -17 -64 -29t-67 -18q4 -21 14.5 -54.5t22.5 -65.5q10 -26 16 -34t14 -8q6 0 15.5 6t19 15t17.5 18.5t13 15.5t7.5 8t5.5 2q5 0 8.5 -4.5t-0.5 -10.5
q-8 -13 -22.5 -31t-32.5 -35t-37 -29t-36 -12q-18 0 -26 8t-13 22q-16 42 -31 86t-29 87q-21 -48 -42 -95.5t-41 -95.5q-2 -4 -4.5 -6.5t-8.5 -3.5q-11 -1 -24.5 -1h-17.5q-8 0 -12 0.5t-4 5.5q0 3 3 9l246 600q2 5 4 12t2 13q0 8 -3 13.5t-14 8.5q-13 4 -23 5t-23 3
q-8 1 -6 11t13 10q26 -1 64.5 -1.5t73.5 1.5q8 1 11 -1.5t-1 -12.5q-34 -86 -67 -167t-67 -161zM155 290q-22 -28 -40 -58q34 3 71.5 13t69 26t52 37.5t20.5 47.5q0 14 -6.5 24t-26.5 10q-26 0 -50 -16t-44 -35q-23 -21 -46 -49zM43 -244q-5 0 -6 2.5t-1 4.5q0 4 3.5 7.5
l5.5 5.5q15 14 32.5 33t21.5 36q1 4 1 9q0 10 -3.5 13.5t-8.5 3.5q-16 0 -27.5 9t-11.5 29t12.5 30.5t29.5 10.5q23 0 35.5 -16.5t12.5 -39.5q0 -41 -23 -72.5t-52 -55.5q-8 -6 -12 -8t-9 -2z" />
    <glyph glyph-name="kgreenlandic" unicode="&#x138;" horiz-adv-x="417" 
d="M95 366q2 5 4 12t2 13q0 8 -3 13.5t-14 8.5q-13 4 -23 5t-23 3q-8 1 -6 11t13 10q26 -1 64.5 -1.5t73.5 1.5q8 1 11 -1.5t-1 -12.5l-39 -99l6 -4q12 14 29 32.5t38.5 35t47 28t54.5 11.5q25 0 42.5 -13.5t17.5 -42.5q0 -36 -21 -61.5t-61 -50.5q-29 -17 -64 -29t-67 -18
q4 -21 14.5 -54.5t22.5 -65.5q10 -26 16 -34t14 -8q6 0 15.5 6t19 15t17.5 18.5t13 15.5t7.5 8t5.5 2q5 0 8.5 -4.5t-0.5 -10.5q-8 -13 -22.5 -31t-32.5 -35t-37 -29t-36 -12q-18 0 -26 8t-13 22q-16 42 -31 86t-29 87q-21 -48 -42 -95.5t-41 -95.5q-2 -4 -4.5 -6.5
t-8.5 -3.5q-11 -1 -24.5 -1h-17.5q-8 0 -12 0.5t-4 5.5q0 3 3 9zM156 288q-23 -26 -41 -56q34 3 71 12t67.5 23.5t50 34.5t19.5 45q0 14 -8 24t-26 10q-21 0 -43.5 -13.5t-42.5 -32.5q-23 -21 -47 -47z" />
    <glyph glyph-name="Lacute" unicode="&#x139;" horiz-adv-x="620" 
d="M-35 0q-14 0 -14 11q0 7 3.5 10t14.5 3q32 0 53.5 16t35.5 61l156 475q5 14 9 30t4 33t-13.5 25t-36.5 8q-15 0 -19.5 3t-4.5 11t4 9t9 1q28 0 56.5 -1t63.5 -1q26 0 52 1t58 1q11 0 14.5 -2.5t3.5 -8.5t-3 -9.5t-16 -3.5q-36 0 -52 -16t-26 -44l-162 -488
q-4 -11 -8.5 -29t-4.5 -33q0 -18 13.5 -27t43.5 -9h191q11 0 17 3t11 10l99 120q7 8 10 10.5t8 2.5q7 0 8.5 -5t-0.5 -13l-36 -145q-2 -9 -9 -9h-533zM260 734q-11 -5 -14.5 0t3.5 15q3 3 21 22.5t40 42.5t42 43t26 25q11 8 22 8q13 0 21.5 -9.5t8.5 -20.5q0 -14 -14 -25
q-4 -3 -16.5 -11t-28.5 -19t-34.5 -23t-34.5 -22t-27.5 -17.5t-14.5 -8.5z" />
    <glyph glyph-name="lacute" unicode="&#x13a;" horiz-adv-x="234" 
d="M-14 -2q-33 0 -33 30q0 13 7 28q9 22 20 47.5t25.5 58t32.5 74t41.5 96t53.5 124t67 157.5q2 5 4.5 12t2.5 13q0 8 -3.5 13.5t-14.5 8.5q-13 4 -23 5t-23 3q-8 1 -6.5 11.5t13.5 10.5q26 -1 64.5 -1.5t74.5 1.5q8 1 10.5 -1.5t-1.5 -12.5q-14 -37 -34 -84t-42.5 -100
t-47 -109.5t-48.5 -111t-46 -104.5t-40 -91q-4 -10 -6 -18.5t6 -8.5q6 0 22 15t33 34t31.5 37t18.5 23q9 12 14 12q8 0 10.5 -5.5t-0.5 -9.5q-10 -14 -25.5 -34t-34.5 -40.5t-38.5 -39t-36.5 -29.5q-10 -6 -22.5 -10t-25.5 -4zM229 734q-11 -5 -14.5 0t3.5 15q3 3 21 22.5
t40 42.5t42 43t26 25q11 8 22 8q13 0 21.5 -9.5t8.5 -20.5q0 -14 -14 -25q-4 -3 -16.5 -11t-28.5 -19t-34.5 -23t-34.5 -22t-27.5 -17.5t-14.5 -8.5z" />
    <glyph glyph-name="Lcommaaccent" unicode="&#x13b;" horiz-adv-x="620" 
d="M-35 0q-14 0 -14 11q0 7 3.5 10t14.5 3q32 0 53.5 16t35.5 61l156 475q5 14 9 30t4 33t-13.5 25t-36.5 8q-15 0 -19.5 3t-4.5 11t4 9t9 1q28 0 56.5 -1t63.5 -1q26 0 52 1t58 1q11 0 14.5 -2.5t3.5 -8.5t-3 -9.5t-16 -3.5q-36 0 -52 -16t-26 -44l-162 -488
q-4 -11 -8.5 -29t-4.5 -33q0 -18 13.5 -27t43.5 -9h191q11 0 17 3t11 10l99 120q7 8 10 10.5t8 2.5q7 0 8.5 -5t-0.5 -13l-36 -145q-2 -9 -9 -9h-533zM195 -251q-5 0 -6.5 3t-1.5 5q0 4 5.5 9t10.5 10q17 14 29.5 30.5t12.5 36.5q0 11 -5 14t-9 3q-19 0 -32 10t-13 32
t14 34.5t34 12.5q25 0 38.5 -18.5t13.5 -42.5q0 -46 -19 -74.5t-49 -53.5q-9 -8 -13.5 -9.5t-9.5 -1.5z" />
    <glyph glyph-name="lcommaaccent" unicode="&#x13c;" horiz-adv-x="234" 
d="M-14 -2q-33 0 -33 30q0 13 7 28q9 22 20 47.5t25.5 58t32.5 74t41.5 96t53.5 124t67 157.5q2 5 4.5 12t2.5 13q0 8 -3.5 13.5t-14.5 8.5q-13 4 -23 5t-23 3q-8 1 -6.5 11.5t13.5 10.5q26 -1 64.5 -1.5t74.5 1.5q8 1 10.5 -1.5t-1.5 -12.5q-14 -37 -34 -84t-42.5 -100
t-47 -109.5t-48.5 -111t-46 -104.5t-40 -91q-4 -10 -6 -18.5t6 -8.5q6 0 22 15t33 34t31.5 37t18.5 23q9 12 14 12q8 0 10.5 -5.5t-0.5 -9.5q-10 -14 -25.5 -34t-34.5 -40.5t-38.5 -39t-36.5 -29.5q-10 -6 -22.5 -10t-25.5 -4zM-75 -244q-5 0 -6 2.5t-1 4.5q0 4 3.5 7.5
l5.5 5.5q15 14 32.5 33t21.5 36q1 4 1 9q0 10 -3.5 13.5t-8.5 3.5q-16 0 -27.5 9t-11.5 29t12.5 30.5t29.5 10.5q23 0 35.5 -16.5t12.5 -39.5q0 -41 -23 -72.5t-52 -55.5q-8 -6 -12 -8t-9 -2z" />
    <glyph glyph-name="Lcaron" unicode="&#x13d;" horiz-adv-x="620" 
d="M-35 0q-14 0 -14 11q0 7 3.5 10t14.5 3q32 0 53.5 16t35.5 61l156 475q5 14 9 30t4 33t-13.5 25t-36.5 8q-15 0 -19.5 3t-4.5 11t4 9t9 1q28 0 56.5 -1t63.5 -1q26 0 52 1t58 1q11 0 14.5 -2.5t3.5 -8.5t-3 -9.5t-16 -3.5q-36 0 -52 -16t-26 -44l-162 -488
q-4 -11 -8.5 -29t-4.5 -33q0 -18 13.5 -27t43.5 -9h191q11 0 17 3t11 10l99 120q7 8 10 10.5t8 2.5q7 0 8.5 -5t-0.5 -13l-36 -145q-2 -9 -9 -9h-533zM440 471q-10 0 -10 11q0 6 9 30.5t21 53.5t23 56t16 38q8 19 19.5 25t23.5 6q18 0 27.5 -11t4.5 -23q-6 -13 -23 -40
t-36.5 -55t-36.5 -51t-21 -29q-4 -5 -7.5 -8t-9.5 -3z" />
    <glyph glyph-name="lcaron" unicode="&#x13e;" horiz-adv-x="282" 
d="M-14 -2q-33 0 -33 30q0 13 7 28q9 22 20 47.5t25.5 58t32.5 74t41.5 96t53.5 124t67 157.5q2 5 4.5 12t2.5 13q0 8 -3.5 13.5t-14.5 8.5q-13 4 -23 5t-23 3q-8 1 -6.5 11.5t13.5 10.5q26 -1 64.5 -1.5t74.5 1.5q8 1 10.5 -1.5t-1.5 -12.5q-14 -37 -34 -84t-42.5 -100
t-47 -109.5t-48.5 -111t-46 -104.5t-40 -91q-4 -10 -6 -18.5t6 -8.5q6 0 22 15t33 34t31.5 37t18.5 23q9 12 14 12q8 0 10.5 -5.5t-0.5 -9.5q-10 -14 -25.5 -34t-34.5 -40.5t-38.5 -39t-36.5 -29.5q-10 -6 -22.5 -10t-25.5 -4zM326 471q-10 0 -10 11q0 6 9 30.5t21 53.5
t23 56t16 38q8 19 19.5 25t23.5 6q18 0 27.5 -11t4.5 -23q-6 -13 -23 -40t-36.5 -55t-36.5 -51t-21 -29q-4 -5 -7.5 -8t-9.5 -3z" />
    <glyph glyph-name="Ldot" unicode="&#x13f;" horiz-adv-x="620" 
d="M-35 0q-14 0 -14 11q0 7 3.5 10t14.5 3q32 0 53.5 16t35.5 61l156 475q5 14 9 30t4 33t-13.5 25t-36.5 8q-15 0 -19.5 3t-4.5 11t4 9t9 1q28 0 56.5 -1t63.5 -1q26 0 52 1t58 1q11 0 14.5 -2.5t3.5 -8.5t-3 -9.5t-16 -3.5q-36 0 -52 -16t-26 -44l-162 -488
q-4 -11 -8.5 -29t-4.5 -33q0 -18 13.5 -27t43.5 -9h191q11 0 17 3t11 10l99 120q7 8 10 10.5t8 2.5q7 0 8.5 -5t-0.5 -13l-36 -145q-2 -9 -9 -9h-533zM494 295q-24 0 -37 15t-13 35q0 26 17.5 45.5t47.5 19.5q22 0 36 -14t14 -35q0 -25 -18.5 -45.5t-46.5 -20.5z" />
    <glyph glyph-name="ldot" unicode="&#x140;" horiz-adv-x="359" 
d="M-14 -2q-33 0 -33 30q0 13 7 28q9 22 20 47.5t25.5 58t32.5 74t41.5 96t53.5 124t67 157.5q2 5 4.5 12t2.5 13q0 8 -3.5 13.5t-14.5 8.5q-13 4 -23 5t-23 3q-8 1 -6.5 11.5t13.5 10.5q26 -1 64.5 -1.5t74.5 1.5q8 1 10.5 -1.5t-1.5 -12.5q-14 -37 -34 -84t-42.5 -100
t-47 -109.5t-48.5 -111t-46 -104.5t-40 -91q-4 -10 -6 -18.5t6 -8.5q6 0 22 15t33 34t31.5 37t18.5 23q9 12 14 12q8 0 10.5 -5.5t-0.5 -9.5q-10 -14 -25.5 -34t-34.5 -40.5t-38.5 -39t-36.5 -29.5q-10 -6 -22.5 -10t-25.5 -4zM293 298q-22 0 -33.5 13.5t-11.5 31.5
q0 23 16 41t43 18q20 0 32.5 -12.5t12.5 -31.5q0 -23 -16.5 -41.5t-42.5 -18.5z" />
    <glyph glyph-name="Lslash" unicode="&#x141;" horiz-adv-x="620" 
d="M-35 0q-14 0 -14 11q0 7 3.5 10t14.5 3q32 0 53.5 16t35.5 61l67 206l-67 -21q-16 -6 -24 -1.5t-8 15.5t10 14l102 32l76 230q5 14 9 30t4 33t-13.5 25t-36.5 8q-15 0 -19.5 3t-4.5 11t4 9t9 1q28 0 56.5 -1t63.5 -1q26 0 52 1t58 1q11 0 14.5 -2.5t3.5 -8.5t-3 -9.5
t-16 -3.5q-36 0 -52 -16t-26 -44l-78 -234l188 60q7 3 14 3q9 0 13 -5t4 -11q0 -5 -2.5 -9.5t-8.5 -6.5l-221 -70l-71 -215q-4 -11 -8.5 -29t-4.5 -33q0 -18 13.5 -27t43.5 -9h191q11 0 17 3t11 10l99 120q7 8 10 10.5t8 2.5q7 0 8.5 -5t-0.5 -13l-36 -145q-2 -9 -9 -9h-533
z" />
    <glyph glyph-name="lslash" unicode="&#x142;" horiz-adv-x="274" 
d="M20 297q-10 -4 -17 -4q-16 0 -16 17q0 11 10 15l97 40l106 248q2 5 4.5 12t2.5 13q0 8 -3.5 13.5t-14.5 8.5q-13 4 -23 5t-23 3q-8 1 -6.5 11.5t13.5 10.5q26 -1 64.5 -1.5t74.5 1.5q8 1 10.5 -1.5t-1.5 -12.5q-20 -52 -50.5 -124t-64.5 -150l62 26q8 4 15 4q16 0 16 -18
q0 -11 -11 -16l-102 -42q-34 -78 -66.5 -150.5t-56.5 -129.5q-4 -10 -6 -18.5t6 -8.5q6 0 22 15t33 34t31.5 37t18.5 23q9 12 14 12q8 0 10.5 -5.5t-0.5 -9.5q-10 -14 -25.5 -34t-34.5 -40.5t-38.5 -39t-36.5 -29.5q-10 -6 -22.5 -10t-25.5 -4q-33 0 -33 30q0 13 7 28
l19.5 45.5l24 56t31 71t39.5 90.5z" />
    <glyph glyph-name="Nacute" unicode="&#x143;" horiz-adv-x="727" 
d="M117 186q-9 -26 -15 -50t-6 -44q0 -16 3 -29t12 -22t25 -14t43 -5q9 0 11.5 -3t2.5 -9q0 -12 -13 -12q-40 0 -76 1t-76 1q-32 0 -55.5 -0.5t-49.5 -0.5q-14 0 -14 11q0 7 3 10.5t13 3.5q19 0 39 5t40.5 20.5t39.5 44.5t36 78l163 472q-11 13 -23.5 19.5t-28.5 9.5
q-13 2 -20 5t-7 10q0 5 3.5 8t14.5 3q10 0 37 -0.5t61 -0.5h52l174 -549l140 409q10 30 10 57q0 12 -2.5 23t-11 19t-23 12.5t-38.5 4.5q-14 0 -14 13q0 11 13 11q8 0 23 -0.5t31 -0.5t31.5 -0.5t25.5 -0.5q31 0 63.5 1t49.5 1q13 0 13 -11q0 -8 -2.5 -10.5t-12.5 -2.5
q-17 0 -33 -3.5t-31 -15t-29.5 -34t-27.5 -59.5l-194 -553q-5 -12 -13 -12q-6 0 -9 4.5t-6 12.5l-194 603zM481 734q-11 -5 -14.5 0t3.5 15q3 3 21 22.5t40 42.5t42 43t26 25q11 8 22 8q13 0 21.5 -9.5t8.5 -20.5q0 -14 -14 -25q-4 -3 -16.5 -11t-28.5 -19t-34.5 -23
t-34.5 -22t-27.5 -17.5t-14.5 -8.5z" />
    <glyph glyph-name="nacute" unicode="&#x144;" horiz-adv-x="451" 
d="M137 244q26 38 55 78.5t71 82.5q22 21 43 28.5t42 7.5q19 0 32 -10t13 -32q0 -14 -5 -31q-24 -78 -58.5 -150.5t-66.5 -147.5q-5 -10 -6.5 -18.5t7.5 -8.5q7 0 20 12t26.5 27.5t25.5 30t16 20.5q5 5 7 7.5t5 2.5q4 0 8.5 -4t-0.5 -11q-23 -35 -52 -65.5t-58 -49.5
q-14 -8 -27 -11.5t-23 -3.5q-34 0 -34 30q0 11 6 28q29 69 63 140t64 146q10 22 10 42q0 18 -16 18q-10 0 -18 -5.5t-17 -13.5q-11 -10 -31.5 -35t-42.5 -54t-42.5 -58t-30.5 -47q-26 -45 -47 -88t-41 -91q-2 -4 -4.5 -6.5t-8.5 -3.5q-11 -1 -22.5 -1.5t-16.5 -0.5
q-15 0 -15 7q0 1 2 9q34 78 73 169t71 176q4 12 4 22q0 12 -10 12q-5 0 -15.5 -10t-23 -26t-26 -35.5t-25.5 -38.5q-5 -6 -10 -6q-7 0 -9.5 5t0.5 10q8 13 19.5 30t25 35t29.5 35.5t33 29.5q11 8 24 13.5t27 5.5q11 0 20 -5.5t9 -19.5q0 -16 -5.5 -38.5t-14 -46t-17.5 -46
t-16 -39.5zM282 487q-7 6 -2 16q21 38 48.5 80.5t51.5 80.5q5 8 13.5 11.5t16.5 3.5q11 0 19 -6t11.5 -15t1 -19.5t-11.5 -19.5q-13 -13 -29.5 -29t-34 -33t-35.5 -34t-33 -33q-8 -8 -16 -3z" />
    <glyph glyph-name="Ncommaaccent" unicode="&#x145;" horiz-adv-x="727" 
d="M117 186q-9 -26 -15 -50t-6 -44q0 -16 3 -29t12 -22t25 -14t43 -5q9 0 11.5 -3t2.5 -9q0 -12 -13 -12q-40 0 -76 1t-76 1q-32 0 -55.5 -0.5t-49.5 -0.5q-14 0 -14 11q0 7 3 10.5t13 3.5q19 0 39 5t40.5 20.5t39.5 44.5t36 78l163 472q-11 13 -23.5 19.5t-28.5 9.5
q-13 2 -20 5t-7 10q0 5 3.5 8t14.5 3q10 0 37 -0.5t61 -0.5h52l174 -549l140 409q10 30 10 57q0 12 -2.5 23t-11 19t-23 12.5t-38.5 4.5q-14 0 -14 13q0 11 13 11q8 0 23 -0.5t31 -0.5t31.5 -0.5t25.5 -0.5q31 0 63.5 1t49.5 1q13 0 13 -11q0 -8 -2.5 -10.5t-12.5 -2.5
q-17 0 -33 -3.5t-31 -15t-29.5 -34t-27.5 -59.5l-194 -553q-5 -12 -13 -12q-6 0 -9 4.5t-6 12.5l-194 603zM216 -251q-5 0 -6.5 3t-1.5 5q0 4 5.5 9t10.5 10q17 14 29.5 30.5t12.5 36.5q0 11 -5 14t-9 3q-19 0 -32 10t-13 32t14 34.5t34 12.5q25 0 38.5 -18.5t13.5 -42.5
q0 -46 -19 -74.5t-49 -53.5q-9 -8 -13.5 -9.5t-9.5 -1.5z" />
    <glyph glyph-name="ncommaaccent" unicode="&#x146;" horiz-adv-x="451" 
d="M137 244q26 38 55 78.5t71 82.5q22 21 43 28.5t42 7.5q19 0 32 -10t13 -32q0 -14 -5 -31q-24 -78 -58.5 -150.5t-66.5 -147.5q-5 -10 -6.5 -18.5t7.5 -8.5q7 0 20 12t26.5 27.5t25.5 30t16 20.5q5 5 7 7.5t5 2.5q4 0 8.5 -4t-0.5 -11q-23 -35 -52 -65.5t-58 -49.5
q-14 -8 -27 -11.5t-23 -3.5q-34 0 -34 30q0 11 6 28q29 69 63 140t64 146q10 22 10 42q0 18 -16 18q-10 0 -18 -5.5t-17 -13.5q-11 -10 -31.5 -35t-42.5 -54t-42.5 -58t-30.5 -47q-26 -45 -47 -88t-41 -91q-2 -4 -4.5 -6.5t-8.5 -3.5q-11 -1 -22.5 -1.5t-16.5 -0.5
q-15 0 -15 7q0 1 2 9q34 78 73 169t71 176q4 12 4 22q0 12 -10 12q-5 0 -15.5 -10t-23 -26t-26 -35.5t-25.5 -38.5q-5 -6 -10 -6q-7 0 -9.5 5t0.5 10q8 13 19.5 30t25 35t29.5 35.5t33 29.5q11 8 24 13.5t27 5.5q11 0 20 -5.5t9 -19.5q0 -16 -5.5 -38.5t-14 -46t-17.5 -46
t-16 -39.5zM50 -244q-5 0 -6 2.5t-1 4.5q0 4 3.5 7.5l5.5 5.5q15 14 32.5 33t21.5 36q1 4 1 9q0 10 -3.5 13.5t-8.5 3.5q-16 0 -27.5 9t-11.5 29t12.5 30.5t29.5 10.5q23 0 35.5 -16.5t12.5 -39.5q0 -41 -23 -72.5t-52 -55.5q-8 -6 -12 -8t-9 -2z" />
    <glyph glyph-name="Ncaron" unicode="&#x147;" horiz-adv-x="727" 
d="M117 186q-9 -26 -15 -50t-6 -44q0 -16 3 -29t12 -22t25 -14t43 -5q9 0 11.5 -3t2.5 -9q0 -12 -13 -12q-40 0 -76 1t-76 1q-32 0 -55.5 -0.5t-49.5 -0.5q-14 0 -14 11q0 7 3 10.5t13 3.5q19 0 39 5t40.5 20.5t39.5 44.5t36 78l163 472q-11 13 -23.5 19.5t-28.5 9.5
q-13 2 -20 5t-7 10q0 5 3.5 8t14.5 3q10 0 37 -0.5t61 -0.5h52l174 -549l140 409q10 30 10 57q0 12 -2.5 23t-11 19t-23 12.5t-38.5 4.5q-14 0 -14 13q0 11 13 11q8 0 23 -0.5t31 -0.5t31.5 -0.5t25.5 -0.5q31 0 63.5 1t49.5 1q13 0 13 -11q0 -8 -2.5 -10.5t-12.5 -2.5
q-17 0 -33 -3.5t-31 -15t-29.5 -34t-27.5 -59.5l-194 -553q-5 -12 -13 -12q-6 0 -9 4.5t-6 12.5l-194 603zM405 873q-2 4 -2 7q0 6 3.5 8t7.5 2q6 0 12 -6l75 -81l120 82q8 5 13 5q6 0 8.5 -3t2.5 -6q0 -5 -8 -13l-112 -113q-8 -9 -17.5 -15t-19.5 -6q-12 0 -18.5 6.5
t-10.5 15.5z" />
    <glyph glyph-name="ncaron" unicode="&#x148;" horiz-adv-x="451" 
d="M137 244q26 38 55 78.5t71 82.5q22 21 43 28.5t42 7.5q19 0 32 -10t13 -32q0 -14 -5 -31q-24 -78 -58.5 -150.5t-66.5 -147.5q-5 -10 -6.5 -18.5t7.5 -8.5q7 0 20 12t26.5 27.5t25.5 30t16 20.5q5 5 7 7.5t5 2.5q4 0 8.5 -4t-0.5 -11q-23 -35 -52 -65.5t-58 -49.5
q-14 -8 -27 -11.5t-23 -3.5q-34 0 -34 30q0 11 6 28q29 69 63 140t64 146q10 22 10 42q0 18 -16 18q-10 0 -18 -5.5t-17 -13.5q-11 -10 -31.5 -35t-42.5 -54t-42.5 -58t-30.5 -47q-26 -45 -47 -88t-41 -91q-2 -4 -4.5 -6.5t-8.5 -3.5q-11 -1 -22.5 -1.5t-16.5 -0.5
q-15 0 -15 7q0 1 2 9q34 78 73 169t71 176q4 12 4 22q0 12 -10 12q-5 0 -15.5 -10t-23 -26t-26 -35.5t-25.5 -38.5q-5 -6 -10 -6q-7 0 -9.5 5t0.5 10q8 13 19.5 30t25 35t29.5 35.5t33 29.5q11 8 24 13.5t27 5.5q11 0 20 -5.5t9 -19.5q0 -16 -5.5 -38.5t-14 -46t-17.5 -46
t-16 -39.5zM318 491q-15 -19 -35 -19q-12 0 -20 5.5t-10 16.5l-21 175q1 11 9 12.5t12 -7.5l48 -120l130 119q11 9 19 4.5t0 -15.5z" />
    <glyph glyph-name="napostrophe" unicode="&#x149;" horiz-adv-x="451" 
d="M137 244q26 38 55 78.5t71 82.5q22 21 43 28.5t42 7.5q19 0 32 -10t13 -32q0 -14 -5 -31q-24 -78 -58.5 -150.5t-66.5 -147.5q-5 -10 -6.5 -18.5t7.5 -8.5q7 0 20 12t26.5 27.5t25.5 30t16 20.5q5 5 7 7.5t5 2.5q4 0 8.5 -4t-0.5 -11q-23 -35 -52 -65.5t-58 -49.5
q-14 -8 -27 -11.5t-23 -3.5q-34 0 -34 30q0 11 6 28q29 69 63 140t64 146q10 22 10 42q0 18 -16 18q-10 0 -18 -5.5t-17 -13.5q-11 -10 -31.5 -35t-42.5 -54t-42.5 -58t-30.5 -47q-26 -45 -47 -88t-41 -91q-2 -4 -4.5 -6.5t-8.5 -3.5q-11 -1 -22.5 -1.5t-16.5 -0.5
q-15 0 -15 7q0 1 2 9q34 78 73 169t71 176q4 12 4 22q0 12 -10 12q-5 0 -15.5 -10t-23 -26t-26 -35.5t-25.5 -38.5q-5 -6 -10 -6q-7 0 -9.5 5t0.5 10q8 13 19.5 30t25 35t29.5 35.5t33 29.5q11 8 24 13.5t27 5.5q11 0 20 -5.5t9 -19.5q0 -16 -5.5 -38.5t-14 -46t-17.5 -46
t-16 -39.5zM101 470q-5 0 -6.5 2.5t-1.5 3.5q0 5 4 8.5t9 8.5q17 14 28.5 28t15.5 32q1 4 1 10q0 10 -4.5 13t-8.5 3q-18 0 -30.5 9.5t-12.5 29.5q0 21 13 32.5t33 11.5q23 0 35.5 -17t12.5 -40q0 -43 -20 -72.5t-46 -51.5q-8 -7 -13 -9t-9 -2z" />
    <glyph glyph-name="Eng" unicode="&#x14a;" horiz-adv-x="727" 
d="M117 186q-9 -26 -15 -50t-6 -44q0 -16 3 -29t12 -22t25 -14t43 -5q9 0 11.5 -3t2.5 -9q0 -12 -13 -12q-40 0 -76 1t-76 1q-32 0 -55.5 -0.5t-49.5 -0.5q-14 0 -14 11q0 7 3 10.5t13 3.5q19 0 39 5t40.5 20.5t39.5 44.5t36 78l163 472q-11 13 -23.5 19.5t-28.5 9.5
q-13 2 -20 5t-7 10q0 5 3.5 8t14.5 3q10 0 37 -0.5t61 -0.5h52l174 -549l140 409q10 30 10 57q0 12 -2.5 23t-11 19t-23 12.5t-38.5 4.5q-14 0 -14 13q0 11 13 11q8 0 23 -0.5t31 -0.5t31.5 -0.5t25.5 -0.5q31 0 63.5 1t49.5 1q13 0 13 -11q0 -8 -2.5 -10.5t-12.5 -2.5
q-17 0 -33 -3.5t-31 -15t-29.5 -34t-27.5 -59.5l-204 -585q-18 -53 -41 -84.5t-47 -49t-49 -23t-47 -5.5q-35 0 -56 13t-21 38q0 23 13.5 34t27.5 11q16 0 26.5 -8t10.5 -26q0 -4 -1 -10.5t-1 -13t2.5 -11t9.5 -4.5q15 0 29 10.5t25.5 27t21 35t15.5 35.5l47 121l-177 550z
" />
    <glyph glyph-name="eng" unicode="&#x14b;" horiz-adv-x="433" 
d="M137 244q26 38 55 78.5t71 82.5q22 21 43 28.5t42 7.5q19 0 32 -10t13 -32q0 -14 -5 -31q-6 -19 -18 -50t-27.5 -69t-33 -79t-34 -78.5t-30 -68t-21.5 -47.5q-24 -52 -48.5 -83.5t-49 -49t-48.5 -23t-46 -5.5q-35 0 -56 13t-21 38q0 23 13.5 34t27.5 11q16 0 26.5 -8
t10.5 -26q0 -4 -1 -10.5t-1 -13t2.5 -11t9.5 -4.5q15 0 29 11t26 27t21.5 35l17.5 35q13 29 29.5 65t33.5 74.5t34 77.5t32 73.5t26.5 62t18.5 43.5q10 22 10 42q0 18 -16 18q-10 0 -18 -5.5t-17 -13.5q-11 -10 -31.5 -35t-42.5 -54t-42.5 -58t-30.5 -47q-26 -45 -47 -88
t-41 -91q-2 -4 -4.5 -6.5t-8.5 -3.5q-11 -1 -22.5 -1.5t-16.5 -0.5q-15 0 -15 7q0 1 2 9q34 78 73 169t71 176q4 12 4 22q0 12 -10 12q-5 0 -15.5 -10t-23 -26t-26 -35.5t-25.5 -38.5q-5 -6 -10 -6q-7 0 -9.5 5t0.5 10q8 13 19.5 30t25 35t29.5 35.5t33 29.5q11 8 24 13.5
t27 5.5q11 0 20 -5.5t9 -19.5q0 -16 -5.5 -38.5t-14 -46t-17.5 -46t-16 -39.5z" />
    <glyph glyph-name="Omacron" unicode="&#x14c;" horiz-adv-x="645" 
d="M156 -2q-41 14 -70 44.5t-44.5 77t-15.5 111.5q0 52 13 108t37 108.5t57.5 99.5t75.5 82t90.5 55.5t102.5 20.5q112 0 164.5 -66t52.5 -182q0 -60 -14 -118.5t-39 -111t-59.5 -97.5t-75.5 -77.5t-88 -51t-96 -18.5q-50 0 -91 15zM155 45q19 -20 41 -28.5t43 -8.5
q46 0 85.5 27.5t72.5 72t58.5 100.5t43 112t26.5 106.5t9 84.5q0 77 -30.5 123.5t-93.5 46.5q-40 0 -77.5 -25t-70.5 -66t-60.5 -93.5t-47 -108t-30 -109.5t-10.5 -97q0 -50 11.5 -83.5t29.5 -53.5zM310 773q-5 0 -6 3t0 5l13 39q3 9 12 9h229q5 0 6 -4t-1 -8l-12 -35
q-4 -9 -11 -9h-230z" />
    <glyph glyph-name="omacron" unicode="&#x14d;" horiz-adv-x="381" 
d="M37 -3q-16 5 -29.5 19.5t-21.5 39t-8 63.5q0 29 9 64t25 70.5t39 69.5t52 60t62.5 42t70.5 16q19 0 36 -5t29.5 -19t19.5 -38t7 -62q0 -29 -9 -64.5t-25.5 -72t-40 -70.5t-52 -60.5t-61 -42.5t-68.5 -16q-18 0 -35 6zM42 28q9 -16 29 -16q22 0 46.5 20.5t47.5 53.5
t43.5 73.5t36.5 80.5t25 74.5t9 55.5q0 17 -6.5 33.5t-29.5 16.5q-21 0 -44.5 -17t-47 -45t-45 -64.5t-38 -75t-26 -76.5t-9.5 -69q0 -29 9 -45zM159 564q-5 0 -6 3t0 5l13 39q3 9 12 9h229q5 0 6 -4t-1 -8l-12 -35q-4 -9 -11 -9h-230z" />
    <glyph glyph-name="Obreve" unicode="&#x14e;" horiz-adv-x="645" 
d="M156 -2q-41 14 -70 44.5t-44.5 77t-15.5 111.5q0 52 13 108t37 108.5t57.5 99.5t75.5 82t90.5 55.5t102.5 20.5q112 0 164.5 -66t52.5 -182q0 -60 -14 -118.5t-39 -111t-59.5 -97.5t-75.5 -77.5t-88 -51t-96 -18.5q-50 0 -91 15zM155 45q19 -20 41 -28.5t43 -8.5
q46 0 85.5 27.5t72.5 72t58.5 100.5t43 112t26.5 106.5t9 84.5q0 77 -30.5 123.5t-93.5 46.5q-40 0 -77.5 -25t-70.5 -66t-60.5 -93.5t-47 -108t-30 -109.5t-10.5 -97q0 -50 11.5 -83.5t29.5 -53.5zM358 776q-16 16 -25 42.5t-5 66.5q1 7 4.5 13.5t13.5 6.5q15 0 15 -14
q1 -50 25.5 -69.5t59.5 -19.5q33 0 69 19.5t66 70.5q5 8 8 10.5t10 2.5q10 0 12 -6.5t-1 -13.5q-18 -42 -40.5 -68.5t-45.5 -42t-45 -21t-39 -5.5q-22 0 -43.5 6.5t-38.5 21.5z" />
    <glyph glyph-name="obreve" unicode="&#x14f;" horiz-adv-x="381" 
d="M37 -3q-16 5 -29.5 19.5t-21.5 39t-8 63.5q0 29 9 64t25 70.5t39 69.5t52 60t62.5 42t70.5 16q19 0 36 -5t29.5 -19t19.5 -38t7 -62q0 -29 -9 -64.5t-25.5 -72t-40 -70.5t-52 -60.5t-61 -42.5t-68.5 -16q-18 0 -35 6zM42 28q9 -16 29 -16q22 0 46.5 20.5t47.5 53.5
t43.5 73.5t36.5 80.5t25 74.5t9 55.5q0 17 -6.5 33.5t-29.5 16.5q-21 0 -44.5 -17t-47 -45t-45 -64.5t-38 -75t-26 -76.5t-9.5 -69q0 -29 9 -45zM202 545q-16 16 -25 42.5t-5 66.5q1 7 4.5 13.5t13.5 6.5q15 0 15 -14q1 -50 25.5 -69.5t59.5 -19.5q33 0 69 19.5t66 70.5
q5 8 8 10.5t10 2.5q10 0 12 -6.5t-1 -13.5q-18 -42 -40.5 -68.5t-45.5 -42t-45 -21t-39 -5.5q-22 0 -43.5 6.5t-38.5 21.5z" />
    <glyph glyph-name="Ohungarumlaut" unicode="&#x150;" horiz-adv-x="645" 
d="M156 -2q-41 14 -70 44.5t-44.5 77t-15.5 111.5q0 52 13 108t37 108.5t57.5 99.5t75.5 82t90.5 55.5t102.5 20.5q112 0 164.5 -66t52.5 -182q0 -60 -14 -118.5t-39 -111t-59.5 -97.5t-75.5 -77.5t-88 -51t-96 -18.5q-50 0 -91 15zM155 45q19 -20 41 -28.5t43 -8.5
q46 0 85.5 27.5t72.5 72t58.5 100.5t43 112t26.5 106.5t9 84.5q0 77 -30.5 123.5t-93.5 46.5q-40 0 -77.5 -25t-70.5 -66t-60.5 -93.5t-47 -108t-30 -109.5t-10.5 -97q0 -50 11.5 -83.5t29.5 -53.5zM335 732q-11 -5 -15 0.5t3 15.5q3 3 21 22.5t40.5 43t42.5 43.5t26 25
q11 8 22 8q13 0 22 -10.5t9 -21.5q0 -14 -14 -25q-4 -3 -16.5 -11t-29 -19l-34.5 -23t-34.5 -22t-28 -17.5t-14.5 -8.5zM492 732q-11 -5 -15 0.5t3 15.5q3 3 21 22.5t40.5 43t42.5 43.5t26 25q11 8 22 8q13 0 22 -10.5t9 -21.5q0 -14 -14 -25q-4 -3 -16.5 -11t-29 -19
l-34.5 -23t-34.5 -22t-28 -17.5t-14.5 -8.5z" />
    <glyph glyph-name="ohungarumlaut" unicode="&#x151;" horiz-adv-x="381" 
d="M37 -3q-16 5 -29.5 19.5t-21.5 39t-8 63.5q0 29 9 64t25 70.5t39 69.5t52 60t62.5 42t70.5 16q19 0 36 -5t29.5 -19t19.5 -38t7 -62q0 -29 -9 -64.5t-25.5 -72t-40 -70.5t-52 -60.5t-61 -42.5t-68.5 -16q-18 0 -35 6zM42 28q9 -16 29 -16q22 0 46.5 20.5t47.5 53.5
t43.5 73.5t36.5 80.5t25 74.5t9 55.5q0 17 -6.5 33.5t-29.5 16.5q-21 0 -44.5 -17t-47 -45t-45 -64.5t-38 -75t-26 -76.5t-9.5 -69q0 -29 9 -45zM224 583q27 42 49 77q8 11 16 15t16 4q23 0 30.5 -17.5t-10.5 -37.5q-12 -13 -28 -29.5t-33.5 -34.5l-35 -36t-32.5 -34
q-8 -8 -16.5 -2t-3.5 16q21 38 48 79zM362 583q27 42 49 77q8 11 16 15t16 4q23 0 30.5 -17.5t-10.5 -37.5q-12 -13 -28 -29.5t-33.5 -34.5l-35 -36t-32.5 -34q-8 -8 -16.5 -2t-3.5 16q21 38 48 79z" />
    <glyph glyph-name="OE" unicode="&#x152;" horiz-adv-x="991" 
d="M359 0q-23 -7 -52 -12t-54 -5q-47 0 -88.5 14.5t-72 44.5t-48.5 76.5t-18 111.5q0 51 13 106.5t37 108t59.5 100t80 83t98.5 56.5t116 21q24 0 47.5 -1.5t45.5 -5.5h421q15 0 16 -17l9 -80q1 -4 1.5 -11t0.5 -11q0 -11 -10 -11q-7 0 -12.5 5t-20.5 25l-45 60
q-5 8 -11.5 11.5t-18.5 3.5h-174l-100 -301h40q50 0 77.5 4.5t39.5 9.5q23 10 44.5 29t38.5 60q4 10 7.5 16t9.5 6t10.5 -4t2.5 -10q-9 -28 -22 -63.5t-24 -76.5q-7 -27 -12 -45.5t-8 -33t-5.5 -26.5t-5.5 -26q-2 -9 -6 -12t-7 -3q-13 0 -12 17q1 11 1.5 21.5t0.5 24.5
q0 25 -10 42t-26.5 27t-37 14t-42.5 4h-63l-73 -223q-4 -11 -8.5 -29t-4.5 -33q0 -18 13.5 -27t43.5 -9h213q11 0 17 3t11 10l99 120q7 8 10 10.5t8 2.5q7 0 8.5 -5t-0.5 -13l-36 -145q-2 -9 -9 -9h-503zM550 560q8 24 8 44q0 33 -26.5 55t-93.5 22q-51 0 -94.5 -22.5
t-79 -60.5t-62.5 -87t-45.5 -103t-28 -108t-9.5 -102q0 -32 6 -65.5t20 -61.5t38.5 -45.5t61.5 -17.5q57 0 97.5 22t57.5 73z" />
    <glyph glyph-name="oe" unicode="&#x153;" horiz-adv-x="557" 
d="M218 26q-7 14 -9 35q-29 -32 -63.5 -51t-73.5 -19q-18 0 -34.5 5.5t-30 20t-21.5 39t-8 63.5q0 29 9 64t25 70.5t39 69.5t52 60t62.5 42t70.5 16q34 0 53.5 -18.5t24.5 -73.5q32 41 70.5 66.5t80.5 25.5q37 0 54.5 -14.5t17.5 -37.5q0 -28 -20 -55.5t-53.5 -54
t-78.5 -51.5t-96 -49q-10 -32 -15 -57t-5 -46q0 -26 8.5 -39t30.5 -13q23 0 58 26.5t65 78.5q6 12 15 12q7 0 10 -5t-1 -12q-12 -23 -29 -46.5t-39 -43t-48 -31.5t-57 -12q-12 0 -24 3t-22 10.5t-18 21.5zM42 28q9 -16 29 -16q22 0 46.5 20.5t47.5 53.5t43.5 73.5t36.5 80.5
t25 74.5t9 55.5q0 17 -6.5 33.5t-29.5 16.5q-21 0 -44.5 -17t-47 -45t-45 -64.5t-38 -75t-26 -76.5t-9.5 -69q0 -29 9 -45zM331 282q-19 -39 -33 -78q29 16 61.5 38t60 47t45.5 51.5t18 52.5q0 14 -8 21t-19 7q-19 0 -40.5 -19.5t-43 -50t-41.5 -69.5z" />
    <glyph glyph-name="Racute" unicode="&#x154;" horiz-adv-x="691" 
d="M163 111q-2 -10 -5 -20.5t-3 -21.5q0 -17 13.5 -31t53.5 -14q8 0 10.5 -3.5t2.5 -8.5t-2 -9.5t-13 -4.5q-8 0 -20.5 0.5t-26.5 0.5q-21 1 -43.5 1h-39.5h-30t-42 -1q-17 0 -31 -0.5t-19 -0.5q-12 0 -12 13q0 5 2.5 9t10.5 4q47 0 68.5 19.5t34.5 65.5l133 469
q4 14 7.5 33.5t3.5 31.5q0 17 -13 23.5t-44 7.5q-10 0 -15 2.5t-5 10.5t5 9.5t10 1.5q29 0 55 -0.5t62 -0.5q23 0 47.5 0.5t56.5 0.5q60 0 102 -12.5t68.5 -33.5t38.5 -50t12 -62q0 -48 -21 -83t-54.5 -59t-75 -38t-81.5 -19l109 -212q10 -20 22.5 -39t28 -34t35 -24
t45.5 -9q11 0 14 -4t3 -9q0 -12 -17 -12q-23 0 -50 1t-63 1h-61q-11 34 -21 57t-15 32l-126 249h-45zM229 362h57q44 0 83.5 8.5t69 29t47 56t17.5 89.5q0 25 -7 48.5t-22 42t-38 29.5t-55 11q-33 0 -48.5 -8.5t-21.5 -27.5zM335 734q-11 -5 -14.5 0t3.5 15q3 3 21 22.5
t40 42.5t42 43t26 25q11 8 22 8q13 0 21.5 -9.5t8.5 -20.5q0 -14 -14 -25q-4 -3 -16.5 -11t-28.5 -19t-34.5 -23t-34.5 -22t-27.5 -17.5t-14.5 -8.5z" />
    <glyph glyph-name="racute" unicode="&#x155;" horiz-adv-x="383" 
d="M168 309q13 21 29 44t35 42.5t42 32.5t52 13q24 0 41.5 -13.5t17.5 -36.5q0 -21 -12.5 -33.5t-31.5 -12.5t-26.5 8t-8.5 21q-1 11 -6 18.5t-16 7.5q-10 0 -17 -5t-16 -13q-11 -11 -27.5 -31.5t-33.5 -45t-33 -49t-26 -43.5q-24 -47 -49.5 -101.5t-46.5 -101.5
q-2 -4 -4.5 -6.5t-8.5 -3.5q-11 -1 -22.5 -1h-16.5q-14 0 -14 10q0 4 1 6q16 36 34 78t37 86.5t36.5 87.5t31.5 80q6 17 7.5 23.5t1.5 11.5q0 11 -9 11q-6 0 -16.5 -10.5t-23 -26t-25.5 -34.5t-25 -37q-6 -8 -11 -8q-8 0 -10 5t0 9q22 37 50.5 73t60.5 60q11 8 24 12.5
t27 4.5q11 0 20 -7t9 -26q0 -20 -7 -44.5t-18 -50.5zM268 487q-7 6 -2 16q21 38 48.5 80.5t51.5 80.5q5 8 13.5 11.5t16.5 3.5q11 0 19 -6t11.5 -15t1 -19.5t-11.5 -19.5q-13 -13 -29.5 -29t-34 -33t-35.5 -34t-33 -33q-8 -8 -16 -3z" />
    <glyph glyph-name="Rcommaaccent" unicode="&#x156;" horiz-adv-x="691" 
d="M163 111q-2 -10 -5 -20.5t-3 -21.5q0 -17 13.5 -31t53.5 -14q8 0 10.5 -3.5t2.5 -8.5t-2 -9.5t-13 -4.5q-8 0 -20.5 0.5t-26.5 0.5q-21 1 -43.5 1h-39.5h-30t-42 -1q-17 0 -31 -0.5t-19 -0.5q-12 0 -12 13q0 5 2.5 9t10.5 4q47 0 68.5 19.5t34.5 65.5l133 469
q4 14 7.5 33.5t3.5 31.5q0 17 -13 23.5t-44 7.5q-10 0 -15 2.5t-5 10.5t5 9.5t10 1.5q29 0 55 -0.5t62 -0.5q23 0 47.5 0.5t56.5 0.5q60 0 102 -12.5t68.5 -33.5t38.5 -50t12 -62q0 -48 -21 -83t-54.5 -59t-75 -38t-81.5 -19l109 -212q10 -20 22.5 -39t28 -34t35 -24
t45.5 -9q11 0 14 -4t3 -9q0 -12 -17 -12q-23 0 -50 1t-63 1h-61q-11 34 -21 57t-15 32l-126 249h-45zM229 362h57q44 0 83.5 8.5t69 29t47 56t17.5 89.5q0 25 -7 48.5t-22 42t-38 29.5t-55 11q-33 0 -48.5 -8.5t-21.5 -27.5zM252 -251q-5 0 -6.5 3t-1.5 5q0 4 5.5 9t10.5 10
q17 14 29.5 30.5t12.5 36.5q0 11 -5 14t-9 3q-19 0 -32 10t-13 32t14 34.5t34 12.5q25 0 38.5 -18.5t13.5 -42.5q0 -46 -19 -74.5t-49 -53.5q-9 -8 -13.5 -9.5t-9.5 -1.5z" />
    <glyph glyph-name="rcommaaccent" unicode="&#x157;" horiz-adv-x="383" 
d="M168 309q13 21 29 44t35 42.5t42 32.5t52 13q24 0 41.5 -13.5t17.5 -36.5q0 -21 -12.5 -33.5t-31.5 -12.5t-26.5 8t-8.5 21q-1 11 -6 18.5t-16 7.5q-10 0 -17 -5t-16 -13q-11 -11 -27.5 -31.5t-33.5 -45t-33 -49t-26 -43.5q-24 -47 -49.5 -101.5t-46.5 -101.5
q-2 -4 -4.5 -6.5t-8.5 -3.5q-11 -1 -22.5 -1h-16.5q-14 0 -14 10q0 4 1 6q16 36 34 78t37 86.5t36.5 87.5t31.5 80q6 17 7.5 23.5t1.5 11.5q0 11 -9 11q-6 0 -16.5 -10.5t-23 -26t-25.5 -34.5t-25 -37q-6 -8 -11 -8q-8 0 -10 5t0 9q22 37 50.5 73t60.5 60q11 8 24 12.5
t27 4.5q11 0 20 -7t9 -26q0 -20 -7 -44.5t-18 -50.5zM-46 -244q-5 0 -6 2.5t-1 4.5q0 4 3.5 7.5l5.5 5.5q15 14 32.5 33t21.5 36q1 4 1 9q0 10 -3.5 13.5t-8.5 3.5q-16 0 -27.5 9t-11.5 29t12.5 30.5t29.5 10.5q23 0 35.5 -16.5t12.5 -39.5q0 -41 -23 -72.5t-52 -55.5
q-8 -6 -12 -8t-9 -2z" />
    <glyph glyph-name="Rcaron" unicode="&#x158;" horiz-adv-x="691" 
d="M163 111q-2 -10 -5 -20.5t-3 -21.5q0 -17 13.5 -31t53.5 -14q8 0 10.5 -3.5t2.5 -8.5t-2 -9.5t-13 -4.5q-8 0 -20.5 0.5t-26.5 0.5q-21 1 -43.5 1h-39.5h-30t-42 -1q-17 0 -31 -0.5t-19 -0.5q-12 0 -12 13q0 5 2.5 9t10.5 4q47 0 68.5 19.5t34.5 65.5l133 469
q4 14 7.5 33.5t3.5 31.5q0 17 -13 23.5t-44 7.5q-10 0 -15 2.5t-5 10.5t5 9.5t10 1.5q29 0 55 -0.5t62 -0.5q23 0 47.5 0.5t56.5 0.5q60 0 102 -12.5t68.5 -33.5t38.5 -50t12 -62q0 -48 -21 -83t-54.5 -59t-75 -38t-81.5 -19l109 -212q10 -20 22.5 -39t28 -34t35 -24
t45.5 -9q11 0 14 -4t3 -9q0 -12 -17 -12q-23 0 -50 1t-63 1h-61q-11 34 -21 57t-15 32l-126 249h-45zM229 362h57q44 0 83.5 8.5t69 29t47 56t17.5 89.5q0 25 -7 48.5t-22 42t-38 29.5t-55 11q-33 0 -48.5 -8.5t-21.5 -27.5zM295 873q-2 4 -2 7q0 6 3.5 8t7.5 2q6 0 12 -6
l75 -81l120 82q8 5 13 5q6 0 8.5 -3t2.5 -6q0 -5 -8 -13l-112 -113q-8 -9 -17.5 -15t-19.5 -6q-12 0 -18.5 6.5t-10.5 15.5z" />
    <glyph glyph-name="rcaron" unicode="&#x159;" horiz-adv-x="383" 
d="M168 309q13 21 29 44t35 42.5t42 32.5t52 13q24 0 41.5 -13.5t17.5 -36.5q0 -21 -12.5 -33.5t-31.5 -12.5t-26.5 8t-8.5 21q-1 11 -6 18.5t-16 7.5q-10 0 -17 -5t-16 -13q-11 -11 -27.5 -31.5t-33.5 -45t-33 -49t-26 -43.5q-24 -47 -49.5 -101.5t-46.5 -101.5
q-2 -4 -4.5 -6.5t-8.5 -3.5q-11 -1 -22.5 -1h-16.5q-14 0 -14 10q0 4 1 6q16 36 34 78t37 86.5t36.5 87.5t31.5 80q6 17 7.5 23.5t1.5 11.5q0 11 -9 11q-6 0 -16.5 -10.5t-23 -26t-25.5 -34.5t-25 -37q-6 -8 -11 -8q-8 0 -10 5t0 9q22 37 50.5 73t60.5 60q11 8 24 12.5
t27 4.5q11 0 20 -7t9 -26q0 -20 -7 -44.5t-18 -50.5zM306 491q-15 -19 -35 -19q-12 0 -20 5.5t-10 16.5l-21 175q1 11 9 12.5t12 -7.5l48 -120l130 119q11 9 19 4.5t0 -15.5z" />
    <glyph glyph-name="Sacute" unicode="&#x15a;" horiz-adv-x="541" 
d="M65 201q0 -34 6.5 -68.5t23.5 -62t46.5 -45t76.5 -17.5q54 0 88 35.5t34 95.5q0 27 -8.5 51t-23 45.5t-32 41t-35.5 37.5q-20 20 -39 41t-34 45t-24 53.5t-9 65.5q0 45 17 79.5t45.5 58.5t65 36t75.5 12q21 0 42.5 -3t40.5 -8t34.5 -10.5t25.5 -9.5q8 -4 12.5 -6t9.5 -2
q13 0 24 24q4 9 12 9q5 0 9 -4.5t0 -15.5q-6 -17 -14 -41t-17 -50.5t-17 -53.5t-14 -48q-4 -12 -6.5 -17.5t-8.5 -5.5q-5 0 -8.5 2.5t-3.5 12.5q0 11 1 22t1 25q0 25 -3.5 49t-12.5 44q-13 28 -41.5 44.5t-70.5 16.5q-50 0 -81 -28.5t-31 -82.5q0 -27 7.5 -50t20.5 -44
t29 -41t34 -39q20 -22 41 -45.5t38 -49t28 -55t11 -63.5q0 -44 -16.5 -80.5t-45.5 -62.5t-69 -40.5t-87 -14.5q-30 0 -54.5 6t-44 15t-34 18.5t-24.5 16.5q-16 11 -26 11t-17 -9t-18 -27q-6 -10 -12 -10q-5 0 -10.5 3.5t-0.5 14.5q8 21 17 47t18 54t17 54.5t14 48.5
q4 13 6.5 17.5t8.5 5.5q13 0 13 -18v-30zM345 734q-11 -5 -14.5 0t3.5 15q3 3 21 22.5t40 42.5t42 43t26 25q11 8 22 8q13 0 21.5 -9.5t8.5 -20.5q0 -14 -14 -25q-4 -3 -16.5 -11t-28.5 -19t-34.5 -23t-34.5 -22t-27.5 -17.5t-14.5 -8.5z" />
    </font>
</defs>
</svg>
